<?xml version="1.0" encoding="utf-8"?>
<!-- Svg Vector Icons : http://www.onlinewebfonts.com/icon -->
<!DOCTYPE svg PUBLIC "-//W3C//DTD SVG 1.1//EN" "http://www.w3.org/Graphics/SVG/1.1/DTD/svg11.dtd">
<svg version="1.1" xmlns="http://www.w3.org/2000/svg" xmlns:xlink="http://www.w3.org/1999/xlink" x="0px" y="0px" viewBox="0 0 256 256" enable-background="new 0 0 256 256" xml:space="preserve">
<metadata> Svg Vector Icons : http://www.onlinewebfonts.com/icon </metadata>
<g><g><path fill="#00aee3" d="M174.3,146.7c10.6,0,18.1,2.4,24.4,6.3c5.5,3.5,9.8,7.9,13.4,13.4c0.8,1.2,2,2.8,2.4,4.3c0.4,1.2,0.8,2,1.2,3.2c2.4,5.1,3.9,15,2,22.1c-0.4,1.2-0.4,2.4-0.8,3.9c-0.8,3.2-2,6.3-3.5,8.7c-1.2,1.6-2,3.2-3.2,4.7c2.8,0,4.7,2.8,6.3,4.3c3.5,3.5,7.1,7.1,10.6,10.6c2,2,4.3,3.5,5.1,5.9c1.6,3.5,0,7.9-2,9.5c-1.2,0.8-2,1.6-3.5,2c-2.4,0.8-5.1,0-6.7-1.2c-0.8-0.8-1.6-1.6-2.4-2.4c-1.6-1.6-2.8-2.8-4.3-4.3c-2.8-2.8-5.1-5.1-7.9-7.9c-1.2-1.2-2.8-2.4-3.9-4c-0.4-0.8-0.8-1.6-1.2-2.4c0-0.4,0-0.8-0.4-1.2c-0.4,0.8-1.6,1.2-2.4,1.6c-1.6,0.8-2.8,1.6-4.3,2.4c-2,0.8-4.3,2-6.7,2.8c-1.6,0.4-3.5,0.8-5.1,1.2c-1.2,0.4-2.4,0-3.5,0.4c-1.2,0.4-3.2,0.4-3.9,0c-0.8,0-1.6,0-2.4,0c-2.4-0.4-4.7-0.4-6.7-1.2c-2.4-0.8-4.7-1.6-7.1-2.8c-2.4-1.2-4.7-2.8-6.7-4.3c-7.1-5.1-12.2-11.8-15.4-21.3c-0.8-2.4-1.2-4.7-1.6-7.1c-0.4-1.2,0-2.4-0.4-3.5c-0.4-1.6,0-5.1,0-6.3c0.4-1.2,0-2.4,0.4-3.5c0.8-3.2,1.6-5.9,2.8-8.7c4.3-10.2,12.2-18.1,22.5-22.5c2.8-1.2,5.9-2,9.1-2.8c1.2,0,2.8-0.4,3.9-0.4C173.5,146.7,174.3,147.1,174.3,146.7L174.3,146.7L174.3,146.7z M174.7,163.3c-1.2,0-2.4,0.4-3.2,0.4c-1.6,0.4-3.5,0.8-4.7,1.6c-6.7,2.8-11.4,7.9-14.6,15c-0.8,1.6-0.8,3.2-1.2,5.1c-0.8,3.2,0,7.9,0.8,10.6c0.4,1.6,0.8,2.8,1.6,4.3c2.4,5.5,7.1,10.2,12.6,12.6c1.6,0.8,3.5,1.6,5.9,2c1.2,0.4,2,0,3.2,0.4c0.8,0,2.4,0.4,3.2,0c0.8,0,1.6,0,2.4-0.4c1.6-0.4,3.5-0.8,5.1-1.2c6.7-2.8,11.8-7.5,14.6-14.2c0.8-1.6,1.2-3.5,1.6-5.1c0.4-1.2,0-2,0.4-3.2c0.4-1.2,0-3.9,0-5.1c-0.4-2.4-1.2-4.7-2-6.7c-3.5-8.3-9.5-13-18.9-15.4C179.4,162.9,177.1,163.3,174.7,163.3L174.7,163.3L174.7,163.3z"/><path fill="#00aee3" d="M149.9,246H52.9c-17,0-30.3-13.8-30.3-30.3V40.3c0-17,13.8-30.3,30.3-30.3H203c17,0,30.3,13.8,30.3,30.3v110.3h-17.3V40.3c0-7.1-5.9-13-13-13H52.9c-7.1,0-13,5.9-13,13v175.3c0,7.1,5.9,13,13,13h96.9V246L149.9,246z"/><path fill="#00aee3" d="M179.8,71.5H72.6c-5.1,0-9.5-4.3-9.5-9.5s4.3-9.5,9.5-9.5h107.2c5.1,0,9.5,4.3,9.5,9.5C189.3,67.5,184.9,71.5,179.8,71.5z"/><path fill="#00aee3" d="M147.9,121.1H72.6c-5.1,0-9.5-4.3-9.5-9.5c0-5.1,4.3-9.5,9.5-9.5h75.3c5.1,0,9.5,4.3,9.5,9.5C157,116.8,153,121.1,147.9,121.1z"/><path fill="#00aee3" d="M111.7,166h-39c-5.1,0-9.5-4.3-9.5-9.5s4.3-9.5,9.5-9.5h39c5.1,0,9.5,4.3,9.5,9.5C120.7,161.7,116.8,166,111.7,166z"/></g></g>
</svg>