<svg width="24" height="24" viewBox="0 0 24 24" fill="none" xmlns="http://www.w3.org/2000/svg">
<path fill-rule="evenodd" clip-rule="evenodd" d="M16.3582 12.0355C15.9739 11.8528 15.5817 11.6954 15.1827 11.5636C16.475 10.5936 17.3125 9.04902 17.3125 7.3125C17.3125 4.3832 14.9293 2 12 2C9.07065 2 6.68748 4.3832 6.68748 7.3125C6.68748 9.05094 7.52686 10.597 8.82159 11.5668C7.63534 11.9574 6.52225 12.5651 5.54803 13.3664C3.76163 14.8358 2.51956 16.8854 2.05069 19.1376C1.90373 19.8433 2.07979 20.5682 2.53362 21.1262C2.98522 21.6815 3.65487 22 4.37081 22H13.9922C14.4237 22 14.7734 21.6502 14.7734 21.2188C14.7734 20.7873 14.4237 20.4375 13.9922 20.4375H4.37081C4.03729 20.4375 3.83608 20.2513 3.74584 20.1404C3.59002 19.9488 3.52971 19.6994 3.58038 19.4561C4.39112 15.5617 7.82612 12.717 11.7929 12.621C11.8616 12.6237 11.9306 12.625 12 12.625C12.07 12.625 12.1398 12.6236 12.2091 12.6209C13.4248 12.6495 14.5939 12.9269 15.6874 13.4467C16.0771 13.6319 16.5431 13.4662 16.7284 13.0765C16.9136 12.6868 16.7479 12.2207 16.3582 12.0355ZM12.1905 11.0577C12.1271 11.0566 12.0636 11.056 12 11.056C11.9369 11.056 11.8739 11.0566 11.8109 11.0578C9.83065 10.959 8.24999 9.31687 8.24999 7.3125C8.24999 5.24473 9.93221 3.5625 12 3.5625C14.0678 3.5625 15.75 5.24473 15.75 7.3125C15.75 9.31637 14.1701 10.9582 12.1905 11.0577ZM19 14.35C16.9841 14.35 15.35 15.9842 15.35 18C15.35 20.0158 16.9841 21.65 19 21.65C21.0158 21.65 22.65 20.0158 22.65 18C22.65 15.9842 21.0158 14.35 19 14.35ZM19 15.65C20.2979 15.65 21.35 16.7021 21.35 18C21.35 19.2979 20.2979 20.35 19 20.35C17.7021 20.35 16.65 19.2979 16.65 18C16.65 16.7021 17.7021 15.65 19 15.65Z" fill="white"/>
</svg>
