<svg width="40" height="40" viewBox="0 0 40 40" fill="none" xmlns="http://www.w3.org/2000/svg">
<rect width="40" height="40" rx="10" fill="#1DA49E"/>
<path fill-rule="evenodd" clip-rule="evenodd" d="M22.9175 19.5999C23.2832 19.7208 23.6427 19.8651 23.995 20.0325C24.3523 20.2023 24.5042 20.6295 24.3344 20.9868C24.1646 21.344 23.7374 21.4959 23.3801 21.3261C22.3777 20.8496 21.306 20.5953 20.1917 20.5692C20.1281 20.5716 20.0642 20.5729 20 20.5729C19.9364 20.5729 19.8731 20.5717 19.8101 20.5692C16.174 20.6572 13.0252 23.2649 12.282 26.8347C12.2356 27.0577 12.2909 27.2864 12.4337 27.462C12.5164 27.5637 12.7009 27.7344 13.0066 27.7344H21.8262C22.2217 27.7344 22.5423 28.055 22.5423 28.4505C22.5423 28.846 22.2217 29.1666 21.8262 29.1666H13.0066C12.3503 29.1666 11.7365 28.8747 11.3225 28.3657C10.9065 27.8541 10.7451 27.1897 10.8798 26.5428C11.3096 24.4783 12.4482 22.5995 14.0857 21.2525C14.9787 20.518 15.9991 19.9609 17.0865 19.6029C15.8996 18.7139 15.1302 17.2967 15.1302 15.7031C15.1302 13.0179 17.3148 10.8333 20 10.8333C22.6852 10.8333 24.8698 13.0179 24.8698 15.7031C24.8698 17.2949 24.1021 18.7108 22.9175 19.5999ZM20 19.1346C20.0583 19.1346 20.1165 19.1352 20.1747 19.1362C21.9893 19.045 23.4375 17.54 23.4375 15.7031C23.4375 13.8076 21.8955 12.2656 20 12.2656C18.1045 12.2656 16.5625 13.8076 16.5625 15.7031C16.5625 17.5404 18.0114 19.0457 19.8267 19.1363C19.8844 19.1352 19.9422 19.1346 20 19.1346Z" fill="white"/>
<path d="M28.4505 25.0488H26.4811V23.0794C26.4811 22.6839 26.1605 22.3633 25.765 22.3633C25.3694 22.3633 25.0488 22.6839 25.0488 23.0794V25.0488H23.0794C22.6839 25.0488 22.3633 25.3694 22.3633 25.765C22.3633 26.1605 22.6839 26.4811 23.0794 26.4811H25.0488V28.4505C25.0488 28.846 25.3694 29.1667 25.765 29.1667C26.1605 29.1667 26.4811 28.846 26.4811 28.4505V26.4811H28.4505C28.846 26.4811 29.1667 26.1605 29.1667 25.765C29.1667 25.3694 28.846 25.0488 28.4505 25.0488Z" fill="white"/>
</svg>
