<svg width="40" height="40" viewBox="0 0 40 40" fill="none" xmlns="http://www.w3.org/2000/svg">
<rect width="40" height="40" rx="10" fill="#1DA49E"/>
<path fill-rule="evenodd" clip-rule="evenodd" d="M20 11.6666C16.9774 11.6666 14.527 14.1749 14.527 17.269V19.3439C14.527 20.0475 14.3157 20.5319 13.8119 21.1451L13.6109 21.3803L13.3269 21.7022L13.1828 21.8721C13.1609 21.8986 13.1398 21.9247 13.119 21.9509C12.7142 22.4598 12.5 22.9252 12.5 23.4938C12.5 24.8434 14.0931 25.7227 16.6529 26.1071L17.0543 26.1623L17.4704 26.2097C17.541 26.217 17.6121 26.2239 17.6838 26.2305L18.1211 26.2661L18.5719 26.2939C18.8768 26.3097 19.1903 26.3203 19.5118 26.3256L20 26.3296L20.4882 26.3256C20.8097 26.3203 21.1232 26.3097 21.4281 26.2939L21.8789 26.2661L22.3162 26.2305C22.3879 26.2239 22.459 26.217 22.5296 26.2097L22.9457 26.1623L23.3471 26.1071C25.9069 25.7227 27.5 24.8434 27.5 23.4938C27.5 22.9252 27.2858 22.4598 26.881 21.9509L26.7489 21.7904L26.3006 21.2786C25.7156 20.6 25.473 20.0978 25.473 19.3439V17.269C25.473 14.1749 23.0226 11.6666 20 11.6666ZM20 13.1883C22.2017 13.1883 23.9865 15.0153 23.9865 17.269V19.3439C23.9865 20.4626 24.3383 21.2566 25.0486 22.1221L25.7034 22.8811L25.7283 22.9116C25.9373 23.1745 26.0135 23.34 26.0135 23.4938C26.0135 23.6843 25.7207 23.9013 25.1875 24.1033L24.9765 24.1782L24.7434 24.2513L24.4891 24.322L24.2141 24.3898L23.9191 24.4543C23.8175 24.4752 23.7126 24.4954 23.6046 24.5149L23.2712 24.5712L22.9196 24.6228L22.5504 24.669L22.1643 24.7094C22.0985 24.7157 22.0321 24.7216 21.965 24.7273L21.5545 24.7582L21.1285 24.7821L20.6877 24.7985L20.2327 24.8069C20.1557 24.8076 20.0781 24.808 20 24.808L19.7673 24.8069L19.3123 24.7985L18.8715 24.7821L18.4455 24.7582L18.035 24.7273L17.6406 24.6899C17.5762 24.6832 17.5125 24.6762 17.4496 24.669L17.0804 24.6228L16.7288 24.5712L16.3954 24.5149C16.3414 24.5052 16.2882 24.4952 16.2358 24.4851L15.9309 24.4225C15.8817 24.4117 15.8334 24.4008 15.7859 24.3898L15.5109 24.322L15.2566 24.2513L15.0235 24.1782L14.8125 24.1033C14.2793 23.9013 13.9865 23.6843 13.9865 23.4938C13.9865 23.34 14.0627 23.1745 14.2717 22.9116L14.3652 22.7997L14.8141 22.2854C15.6164 21.3546 16.0135 20.5325 16.0135 19.3439V17.269C16.0135 15.0153 17.7983 13.1883 20 13.1883ZM18.0709 26.8829C18.675 26.9286 19.3169 26.9521 20 26.9521C20.6831 26.9521 21.325 26.9286 21.9291 26.8829C21.6648 27.7459 20.8836 28.3333 20 28.3333C19.1164 28.3333 18.3352 27.7459 18.0709 26.8829Z" fill="#D4FAFF"/>
</svg>
