<svg width="48" height="48" viewBox="0 0 48 48" fill="none" xmlns="http://www.w3.org/2000/svg">
<rect width="48" height="48" rx="10" fill="#1DA49E"/>
<path fill-rule="evenodd" clip-rule="evenodd" d="M35 23.4271C35 23.9018 34.6153 24.2865 34.1406 24.2865C33.666 24.2865 33.2812 23.9018 33.2812 23.4271V21.2787H14.7188V27.7188C14.7188 28.6665 15.4898 29.4375 16.4375 29.4375H31.5625C32.5102 29.4375 33.2812 28.6665 33.2812 27.7188C33.2812 27.2441 33.666 26.8594 34.1406 26.8594C34.6153 26.8594 35 27.2441 35 27.7188C35 29.6142 33.4579 31.1562 31.5625 31.1562H16.4375C14.5421 31.1562 13 29.6142 13 27.7188V18.4375C13 16.5421 14.5421 15 16.4375 15H31.5625C33.4579 15 35 16.5421 35 18.4375V23.4271ZM14.7188 18.4375V19.5599H33.2812V18.4375C33.2812 17.4898 32.5102 16.7188 31.5625 16.7188H16.4375C15.4898 16.7188 14.7188 17.4898 14.7188 18.4375Z" fill="white"/>
</svg>
