<svg width="20" height="20" viewBox="0 0 20 20" fill="none" xmlns="http://www.w3.org/2000/svg">
<path d="M18.4506 12.4805C18.8461 12.4805 19.1667 12.1599 19.1667 11.7643V7.10938C19.1667 5.52985 17.8817 4.2448 16.3021 4.2448H15.215C14.9083 4.2448 14.6358 4.04975 14.537 3.75939L14.3203 3.12285C14.0238 2.25187 13.2065 1.66667 12.2865 1.66667H7.71135C6.80914 1.66667 5.99707 2.23683 5.69067 3.08539L5.44277 3.77189C5.34062 4.05473 5.06995 4.2448 4.7692 4.2448H3.69796C2.11843 4.2448 0.833374 5.52985 0.833374 7.10938V15.3451C0.833374 16.9246 2.11843 18.2096 3.69796 18.2096H16.3021C17.8817 18.2096 19.1667 16.9246 19.1667 15.3451C19.1667 14.9495 18.8461 14.6289 18.4506 14.6289C18.055 14.6289 17.7344 14.9495 17.7344 15.3451C17.7344 16.1348 17.0919 16.7773 16.3021 16.7773H3.69796C2.90819 16.7773 2.26567 16.1348 2.26567 15.3451V7.10938C2.26567 6.31961 2.90819 5.67709 3.69796 5.67709H4.7692C5.6714 5.67709 6.48348 5.10693 6.78988 4.25837L7.03777 3.57187C7.13993 3.28903 7.4106 3.09896 7.71135 3.09896H12.2865C12.5932 3.09896 12.8656 3.29404 12.9645 3.58437L13.1811 4.22091C13.4776 5.09189 14.2949 5.67709 15.215 5.67709H16.3021C17.0919 5.67709 17.7344 6.31961 17.7344 7.10938V11.7643C17.7344 12.1599 18.055 12.4805 18.4506 12.4805Z" fill="#0C395B"/>
<path fill-rule="evenodd" clip-rule="evenodd" d="M5.55994 10.8691C5.55994 8.40113 7.56783 6.39323 10.0358 6.39323C12.5039 6.39323 14.5118 8.40113 14.5118 10.8691C14.5118 13.3372 12.5039 15.3451 10.0358 15.3451C7.56783 15.3451 5.55994 13.3372 5.55994 10.8691ZM6.99223 10.8691C6.99223 12.5474 8.3576 13.9128 10.0358 13.9128C11.7141 13.9128 13.0795 12.5474 13.0795 10.8691C13.0795 9.19089 11.7141 7.82553 10.0358 7.82553C8.3576 7.82553 6.99223 9.19089 6.99223 10.8691Z" fill="#0C395B"/>
</svg>
