<svg width="20" height="20" viewBox="0 0 20 20" fill="none" xmlns="http://www.w3.org/2000/svg">
<path d="M18.4505 12.4804C18.8461 12.4804 19.1667 12.1598 19.1667 11.7643V7.10933C19.1667 5.5298 17.8816 4.24475 16.3021 4.24475H15.2149C14.9083 4.24475 14.6358 4.04971 14.537 3.75935L14.3203 3.1228C14.0238 2.25182 13.2065 1.66663 12.2864 1.66663H7.71132C6.80911 1.66663 5.99704 2.23679 5.69064 3.08535L5.44274 3.77184C5.34059 4.05469 5.06992 4.24475 4.76917 4.24475H3.69793C2.1184 4.24475 0.833344 5.5298 0.833344 7.10933V15.345C0.833344 16.9245 2.1184 18.2096 3.69793 18.2096H16.3021C17.8816 18.2096 19.1667 16.9245 19.1667 15.345C19.1667 14.9495 18.8461 14.6289 18.4505 14.6289C18.055 14.6289 17.7344 14.9495 17.7344 15.345C17.7344 16.1348 17.0919 16.7773 16.3021 16.7773H3.69793C2.90816 16.7773 2.26564 16.1348 2.26564 15.345V7.10933C2.26564 6.31957 2.90816 5.67704 3.69793 5.67704H4.76917C5.67137 5.67704 6.48345 5.10688 6.78985 4.25832L7.03774 3.57182C7.1399 3.28898 7.41057 3.09892 7.71132 3.09892H12.2864C12.5931 3.09892 12.8656 3.294 12.9644 3.58432L13.1811 4.22087C13.4775 5.09184 14.2949 5.67704 15.2149 5.67704H16.3021C17.0919 5.67704 17.7344 6.31957 17.7344 7.10933V11.7643C17.7344 12.1598 18.055 12.4804 18.4505 12.4804Z" fill="#B0B3C7"/>
<path fill-rule="evenodd" clip-rule="evenodd" d="M5.55991 10.8691C5.55991 8.40108 7.5678 6.39319 10.0358 6.39319C12.5038 6.39319 14.5117 8.40108 14.5117 10.8691C14.5117 13.3371 12.5038 15.345 10.0358 15.345C7.5678 15.345 5.55991 13.3371 5.55991 10.8691ZM6.9922 10.8691C6.9922 12.5474 8.35757 13.9127 10.0358 13.9127C11.7141 13.9127 13.0794 12.5474 13.0794 10.8691C13.0794 9.19085 11.7141 7.82548 10.0358 7.82548C8.35757 7.82548 6.9922 9.19085 6.9922 10.8691Z" fill="#B0B3C7"/>
</svg>
