<svg width="42" height="42" viewBox="0 0 42 42" fill="none" xmlns="http://www.w3.org/2000/svg">
<circle cx="21" cy="21" r="21" fill="white"/>
<path fill-rule="evenodd" clip-rule="evenodd" d="M27.7604 23.75C28.0769 23.75 28.3334 23.4935 28.3334 23.1771V17.1042C28.3334 15.8406 27.3053 14.8125 26.0417 14.8125H25.2969V14.2396C25.2969 13.9232 25.0404 13.6667 24.724 13.6667C24.4076 13.6667 24.1511 13.9232 24.1511 14.2396V14.8125H21.5443V14.2396C21.5443 13.9232 21.2878 13.6667 20.9714 13.6667C20.655 13.6667 20.3985 13.9232 20.3985 14.2396V14.8125H17.8203V14.2396C17.8203 13.9232 17.5638 13.6667 17.2474 13.6667C16.931 13.6667 16.6745 13.9232 16.6745 14.2396V14.8125H15.9584C14.6947 14.8125 13.6667 15.8406 13.6667 17.1042V26.0417C13.6667 27.3053 14.6947 28.3334 15.9584 28.3334H26.0417C27.3053 28.3334 28.3334 27.3053 28.3334 26.0417C28.3334 25.7253 28.0769 25.4688 27.7604 25.4688C27.444 25.4688 27.1875 25.7253 27.1875 26.0417C27.1875 26.6735 26.6735 27.1875 26.0417 27.1875H15.9584C15.3265 27.1875 14.8125 26.6735 14.8125 26.0417V17.1042C14.8125 16.4724 15.3265 15.9584 15.9584 15.9584H16.6745V16.5313C16.6745 16.8477 16.931 17.1042 17.2474 17.1042C17.5638 17.1042 17.8203 16.8477 17.8203 16.5313V15.9584H20.3985V16.5313C20.3985 16.8477 20.655 17.1042 20.9714 17.1042C21.2878 17.1042 21.5443 16.8477 21.5443 16.5313V15.9584H24.1511V16.5313C24.1511 16.8477 24.4076 17.1042 24.724 17.1042C25.0404 17.1042 25.2969 16.8477 25.2969 16.5313V15.9584H26.0417C26.6735 15.9584 27.1875 16.4724 27.1875 17.1042V23.1771C27.1875 23.4935 27.444 23.75 27.7604 23.75Z" fill="#7065E4"/>
<ellipse cx="17.2474" cy="19.6823" rx="0.572917" ry="0.572917" fill="#7065E4"/>
<ellipse cx="22.2318" cy="19.6823" rx="0.572917" ry="0.572917" fill="#7065E4"/>
<ellipse cx="24.724" cy="19.6823" rx="0.572917" ry="0.572917" fill="#7065E4"/>
<ellipse cx="17.2474" cy="22.1745" rx="0.572917" ry="0.572917" fill="#7065E4"/>
<ellipse cx="17.2474" cy="24.6667" rx="0.572917" ry="0.572917" fill="#7065E4"/>
<circle cx="19.7396" cy="19.6823" r="0.572917" fill="#7065E4"/>
<ellipse cx="19.7396" cy="22.1745" rx="0.572917" ry="0.572917" fill="#7065E4"/>
<ellipse cx="19.7396" cy="24.6667" rx="0.572917" ry="0.572917" fill="#7065E4"/>
<circle cx="22.2318" cy="22.1745" r="0.572917" fill="#0C395B"/>
<circle cx="24.724" cy="22.1745" r="0.572917" fill="#7065E4"/>
<circle cx="22.2318" cy="24.6667" r="0.572917" fill="#7065E4"/>
</svg>
