<svg width="16" height="16" viewBox="0 0 16 16" fill="none" xmlns="http://www.w3.org/2000/svg">
<path fill-rule="evenodd" clip-rule="evenodd" d="M14.7604 10.7501C15.0768 10.7501 15.3333 10.4936 15.3333 10.1772V4.10425C15.3333 2.84062 14.3053 1.81258 13.0416 1.81258H12.2968V1.23966C12.2968 0.923243 12.0403 0.666748 11.7239 0.666748C11.4075 0.666748 11.151 0.923243 11.151 1.23966V1.81258H8.54423V1.23966C8.54423 0.923243 8.28773 0.666748 7.97131 0.666748C7.65489 0.666748 7.3984 0.923243 7.3984 1.23966V1.81258H4.82027V1.23966C4.82027 0.923243 4.56378 0.666748 4.24735 0.666748C3.93093 0.666748 3.67444 0.923243 3.67444 1.23966V1.81258H2.95829C1.69467 1.81258 0.666626 2.84062 0.666626 4.10425V13.0417C0.666626 14.3054 1.69467 15.3334 2.95829 15.3334H13.0416C14.3053 15.3334 15.3333 14.3054 15.3333 13.0417C15.3333 12.7253 15.0768 12.4688 14.7604 12.4688C14.444 12.4688 14.1875 12.7253 14.1875 13.0417C14.1875 13.6736 13.6734 14.1876 13.0416 14.1876H2.95829C2.32648 14.1876 1.81246 13.6736 1.81246 13.0417V4.10425C1.81246 3.47244 2.32648 2.95841 2.95829 2.95841H3.67444V3.53133C3.67444 3.84775 3.93093 4.10425 4.24735 4.10425C4.56378 4.10425 4.82027 3.84775 4.82027 3.53133V2.95841H7.3984V3.53133C7.3984 3.84775 7.65489 4.10425 7.97131 4.10425C8.28773 4.10425 8.54423 3.84775 8.54423 3.53133V2.95841H11.151V3.53133C11.151 3.84775 11.4075 4.10425 11.7239 4.10425C12.0403 4.10425 12.2968 3.84775 12.2968 3.53133V2.95841H13.0416C13.6734 2.95841 14.1875 3.47244 14.1875 4.10425V10.1772C14.1875 10.4936 14.444 10.7501 14.7604 10.7501Z" fill="#7065E4"/>
<ellipse cx="4.24735" cy="6.68229" rx="0.572917" ry="0.572917" fill="#7065E4"/>
<ellipse cx="9.23173" cy="6.68229" rx="0.572917" ry="0.572917" fill="#7065E4"/>
<ellipse cx="11.7239" cy="6.68229" rx="0.572917" ry="0.572917" fill="#7065E4"/>
<ellipse cx="4.24735" cy="9.17448" rx="0.572917" ry="0.572917" fill="#7065E4"/>
<ellipse cx="4.24735" cy="11.6667" rx="0.572917" ry="0.572917" fill="#7065E4"/>
<circle cx="6.73954" cy="6.68229" r="0.572917" fill="#7065E4"/>
<ellipse cx="6.73954" cy="9.17448" rx="0.572917" ry="0.572917" fill="#7065E4"/>
<ellipse cx="6.73954" cy="11.6667" rx="0.572917" ry="0.572917" fill="#7065E4"/>
<circle cx="9.23173" cy="9.17448" r="0.572917" fill="#7065E4"/>
<circle cx="11.7239" cy="9.17448" r="0.572917" fill="#7065E4"/>
<circle cx="9.23173" cy="11.6667" r="0.572917" fill="#7065E4"/>
</svg>
