<svg width="14" height="14" viewBox="0 0 14 14" fill="none" xmlns="http://www.w3.org/2000/svg">
<g id="calendar">
<path id="Path" fill-rule="evenodd" clip-rule="evenodd" d="M12.9154 9.40626C13.1922 9.40626 13.4167 9.18183 13.4167 8.90496V3.59116C13.4167 2.48548 12.5171 1.58595 11.4115 1.58595H10.7598V1.08465C10.7598 0.807776 10.5353 0.583344 10.2585 0.583344C9.9816 0.583344 9.75716 0.807776 9.75716 1.08465V1.58595H7.47624V1.08465C7.47624 0.807776 7.25181 0.583344 6.97494 0.583344C6.69807 0.583344 6.47364 0.807776 6.47364 1.08465V1.58595H4.21778V1.08465C4.21778 0.807776 3.99334 0.583344 3.71647 0.583344C3.4396 0.583344 3.21517 0.807776 3.21517 1.08465V1.58595H2.58854C1.48287 1.58595 0.583336 2.48548 0.583336 3.59116V11.4115C0.583336 12.5171 1.48287 13.4167 2.58854 13.4167H11.4115C12.5171 13.4167 13.4167 12.5171 13.4167 11.4115C13.4167 11.1346 13.1922 10.9102 12.9154 10.9102C12.6385 10.9102 12.4141 11.1346 12.4141 11.4115C12.4141 11.9643 11.9643 12.4141 11.4115 12.4141H2.58854C2.03571 12.4141 1.58594 11.9643 1.58594 11.4115V3.59116C1.58594 3.03832 2.03571 2.58855 2.58854 2.58855H3.21517V3.08985C3.21517 3.36672 3.4396 3.59116 3.71647 3.59116C3.99334 3.59116 4.21778 3.36672 4.21778 3.08985V2.58855H6.47364V3.08985C6.47364 3.36672 6.69807 3.59116 6.97494 3.59116C7.25181 3.59116 7.47624 3.36672 7.47624 3.08985V2.58855H9.75716V3.08985C9.75716 3.36672 9.9816 3.59116 10.2585 3.59116C10.5353 3.59116 10.7598 3.36672 10.7598 3.08985V2.58855H11.4115C11.9643 2.58855 12.4141 3.03832 12.4141 3.59116V8.90496C12.4141 9.18183 12.6385 9.40626 12.9154 9.40626Z" fill="#7065E4"/>
<ellipse id="Oval" cx="3.71647" cy="5.847" rx="0.501302" ry="0.501302" fill="#7065E4"/>
<circle id="Oval_2" cx="8.0778" cy="5.847" r="0.501302" fill="#7065E4"/>
<ellipse id="Oval_3" cx="10.2585" cy="5.847" rx="0.501302" ry="0.501302" fill="#7065E4"/>
<ellipse id="Oval_4" cx="3.71647" cy="8.02767" rx="0.501302" ry="0.501302" fill="#7065E4"/>
<ellipse id="Oval_5" cx="3.71647" cy="10.2083" rx="0.501302" ry="0.501302" fill="#7065E4"/>
<circle id="Oval_6" cx="5.89714" cy="5.847" r="0.501302" fill="#7065E4"/>
<ellipse id="Oval_7" cx="5.89714" cy="8.02767" rx="0.501302" ry="0.501302" fill="#7065E4"/>
<ellipse id="Oval_8" cx="5.89714" cy="10.2083" rx="0.501302" ry="0.501302" fill="#7065E4"/>
<ellipse id="Oval_9" cx="8.0778" cy="8.02767" rx="0.501302" ry="0.501302" fill="#7065E4"/>
<circle id="Oval_10" cx="10.2585" cy="8.02767" r="0.501302" fill="#7065E4"/>
<ellipse id="Oval_11" cx="8.0778" cy="10.2083" rx="0.501302" ry="0.501302" fill="#7065E4"/>
</g>
</svg>
