<svg width="36" height="36" viewBox="0 0 36 36" fill="none" xmlns="http://www.w3.org/2000/svg">
<rect width="36" height="36" rx="10" fill="#0C395B"/>
<path fill-rule="evenodd" clip-rule="evenodd" d="M12.375 10.3165H20.8125C22.2322 10.3165 22.7854 11.341 22.7854 12.375V18C22.7854 19.0341 22.1061 20.0125 20.799 20.0125H14.0401L11.3495 22.1747C11.2642 22.246 10.9555 22.3 10.8477 22.3C10.7961 22.3 10.6865 22.2437 10.6098 22.2042L10.6098 22.2042L10.6097 22.2042L10.6097 22.2041C10.5862 22.192 10.5658 22.1815 10.5511 22.1747C10.3861 22.0978 10.3317 21.9736 10.3317 21.7917V12.4167C10.3317 11.3826 10.9687 10.3165 12.375 10.3165ZM20.8125 18.9375C21.33 18.9375 21.75 18.5166 21.75 18V12.375C21.75 11.8585 21.33 11.4375 20.8125 11.4375H12.375C11.8575 11.4375 11.4375 11.8585 11.4375 12.375V20.7497L13.4812 19.0463C13.5656 18.976 13.6716 18.9375 13.7812 18.9375H20.8125ZM13.7812 13.3125H19.4062C19.665 13.3125 19.875 13.5225 19.875 13.7813C19.875 14.04 19.665 14.25 19.4062 14.25H13.7812C13.5225 14.25 13.3125 14.04 13.3125 13.7813C13.3125 13.5225 13.5225 13.3125 13.7812 13.3125ZM13.7812 15.1875H17.5312C17.79 15.1875 18 15.3975 18 15.6563C18 15.915 17.79 16.125 17.5312 16.125H13.7812C13.5225 16.125 13.3125 15.915 13.3125 15.6563C13.3125 15.3975 13.5225 15.1875 13.7812 15.1875ZM23.1603 14.6232C23.1603 14.3645 23.3662 14.1511 23.625 14.1511C24.8228 14.1511 25.6146 15.091 25.6146 16.125L25.6126 25.1571C25.6126 25.3371 25.5095 25.5012 25.3473 25.5799C25.2817 25.6109 25.0977 25.6259 25.0293 25.6259C24.9252 25.6259 24.8211 25.5912 24.7358 25.5237L22.5024 23.7523H16.1049C15.0708 23.7523 14.0995 22.7841 14.0995 21.75V21.2813C14.0995 21.0225 14.39 20.7894 14.6487 20.7894C14.9075 20.7894 15.1875 21.0225 15.1875 21.2813V21.75C15.1875 22.2666 15.6075 22.6875 16.125 22.6875H22.6875C22.7934 22.6875 22.8975 22.7241 22.98 22.7897L24.5625 24.0553V16.125C24.5625 15.6085 24.1425 15.1875 23.625 15.1875C23.3662 15.1875 23.1603 14.882 23.1603 14.6232Z" fill="white"/>
</svg>
