<svg width="130" height="130" viewBox="0 0 130 130" fill="none" xmlns="http://www.w3.org/2000/svg">
<g id="Icon">
<g id="Mask">
<path fill-rule="evenodd" clip-rule="evenodd" d="M65 118C94.2711 118 118 94.2711 118 65C118 35.7289 94.2711 12 65 12C35.7289 12 12 35.7289 12 65C12 94.2711 35.7289 118 65 118Z" fill="#1DA49E"/>
<path d="M65 124C97.5848 124 124 97.5848 124 65C124 32.4152 97.5848 6 65 6C32.4152 6 6 32.4152 6 65C6 97.5848 32.4152 124 65 124Z" stroke="#1DA49E" stroke-opacity="0.35" stroke-width="12"/>
</g>
<g id="check">
<g id="Path">
<path fill-rule="evenodd" clip-rule="evenodd" d="M79.2666 55.0625L59.8333 74.4958L51 65.6625" fill="#1DA49E"/>
<path d="M79.2666 55.0625L59.8333 74.4958L51 65.6625" stroke="white" stroke-width="6" stroke-linecap="round" stroke-linejoin="round"/>
</g>
</g>
</g>
</svg>
