<svg width="40" height="40" viewBox="0 0 40 40" fill="none" xmlns="http://www.w3.org/2000/svg">
<rect width="40" height="40" rx="10" fill="white"/>
<path fill-rule="evenodd" clip-rule="evenodd" d="M17.1832 10.8334H22.8169C26.3182 10.8334 29.1667 13.6819 29.1667 17.1832V22.8169C29.1667 26.3182 26.3182 29.1667 22.8168 29.1667H17.1832C13.6818 29.1667 10.8333 26.3182 10.8333 22.8169V20C10.8333 19.6045 11.154 19.2839 11.5495 19.2839C11.945 19.2839 12.2656 19.6045 12.2656 20V22.8169C12.2656 25.5284 14.4716 27.7344 17.1832 27.7344H22.8169C25.5284 27.7344 27.7344 25.5284 27.7344 22.8169V17.1832C27.7344 14.4716 25.5284 12.2657 22.8168 12.2657H17.1832C15.8953 12.2657 14.6718 12.7763 13.7654 13.6502H15.12C15.5156 13.6502 15.8362 13.9708 15.8362 14.3664C15.8362 14.7619 15.5156 15.0825 15.12 15.0825H12.3032C11.9104 15.0825 11.5871 14.7619 11.5871 14.3664V11.5495C11.5871 11.154 11.9077 10.8334 12.3032 10.8334C12.6987 10.8334 13.0193 11.154 13.0193 11.5495V12.3902C14.2034 11.3605 15.6832 10.8334 17.1832 10.8334ZM20.7162 19.7034V15.7748C20.7162 15.3793 20.3955 15.0586 20 15.0586C19.6045 15.0586 19.2839 15.3793 19.2839 15.7748V20C19.2839 20.19 19.3593 20.3721 19.4936 20.5064L22.3105 23.3233C22.5901 23.6029 23.0436 23.603 23.3232 23.3233C23.6029 23.0436 23.6029 22.5902 23.3232 22.3105L20.7162 19.7034Z" fill="#0C395B"/>
</svg>
