<svg width="24" height="24" viewBox="0 0 24 24" fill="none" xmlns="http://www.w3.org/2000/svg">
<path d="M11.8086 4.4375C8.84697 4.4375 6.4375 6.84697 6.4375 9.80859C6.4375 12.7702 8.84697 15.1797 11.8086 15.1797C12.3088 15.1797 12.8044 15.1108 13.2816 14.9749C13.7381 14.845 14.0028 14.3696 13.8729 13.9131C13.743 13.4567 13.2676 13.1919 12.8111 13.3219C12.4869 13.4141 12.1496 13.4609 11.8086 13.4609C9.79469 13.4609 8.15625 11.8225 8.15625 9.80859C8.15625 7.79469 9.79469 6.15625 11.8086 6.15625C13.8225 6.15625 15.4609 7.79469 15.4609 9.80859C15.4609 10.1669 15.4094 10.5206 15.3077 10.8597C15.1713 11.3143 15.4294 11.7934 15.884 11.9297C16.3386 12.066 16.8176 11.8081 16.954 11.3534C17.1037 10.854 17.1797 10.3343 17.1797 9.80859C17.1797 6.84697 14.7702 4.4375 11.8086 4.4375Z" fill="#0C395B"/>
<path fill-rule="evenodd" clip-rule="evenodd" d="M11.8086 1C14.1596 1 16.3705 1.91506 18.0338 3.57658C19.6969 5.23801 20.6144 7.44755 20.6171 9.79824C20.6154 11.5126 20.1398 13.1193 19.1629 14.7121C18.3171 16.0913 17.2183 17.2947 16.0549 18.5686C14.9142 19.8178 13.7348 21.1095 12.7928 22.5997C12.6353 22.8489 12.3611 23 12.0664 23H11.5508C11.2561 23 10.9818 22.8489 10.8243 22.5998C9.88238 21.1095 8.70293 19.8178 7.56224 18.5687L7.56219 18.5686C6.39887 17.2946 5.30005 16.0912 4.45423 14.7121C3.47746 13.1193 3.0018 11.5126 3.00012 9.80013C3.00283 7.44759 3.92025 5.23805 5.5834 3.57662C7.24672 1.91506 9.45751 1 11.8086 1ZM11.8086 20.9777C12.7279 19.6633 13.7715 18.5204 14.7857 17.4097L14.7859 17.4095C16.9909 14.9947 18.8953 12.9091 18.8983 9.79841C18.8938 5.89552 15.7134 2.71875 11.8086 2.71875C7.9038 2.71875 4.72334 5.89552 4.71887 9.80026C4.72188 12.9092 6.62632 14.9948 8.83142 17.4097L8.83145 17.4097L8.8315 17.4098C9.84572 18.5205 10.8893 19.6633 11.8086 20.9777Z" fill="#0C395B"/>
</svg>
