<svg width="295" height="191" viewBox="0 0 295 191" fill="none" xmlns="http://www.w3.org/2000/svg">
<path fill-rule="evenodd" clip-rule="evenodd" d="M139.135 12.0843C140.309 13.5463 140.644 15.5091 140.32 17.3184C139.997 19.1273 139.068 20.7983 137.93 22.2856C135.728 25.1635 132.027 27.2831 128.569 28.6809C127.174 24.9652 128.893 20.6891 129.91 18.5717C131.516 15.2251 136.573 10.0971 139.135 12.0843Z" fill="#F5F5F5"/>
<path fill-rule="evenodd" clip-rule="evenodd" d="M128.732 35.4475C129.329 33.4769 131.231 31.9779 133.352 31.5407C135.474 31.1031 137.748 31.6491 139.554 32.7877C140.388 33.3139 141.188 34.055 141.283 34.9985C141.373 35.8801 140.793 36.7369 140.005 37.2197C139.219 37.703 138.258 37.8656 137.32 37.908C134.105 38.053 130.964 37.6361 128.732 35.4475Z" fill="#F5F5F5"/>
<path fill-rule="evenodd" clip-rule="evenodd" d="M121.246 40.8332C121.209 40.8002 121.78 40.0898 122.818 39.0149C123.337 38.477 124.047 37.8944 124.893 37.3592C125.739 36.8289 126.658 36.2283 127.726 35.731C129.844 34.7198 132.023 34.3539 133.572 34.4194C134.35 34.4456 134.969 34.5639 135.388 34.6597C135.804 34.7735 136.026 34.8553 136.018 34.8805C136.001 34.951 135.083 34.689 133.569 34.7008C132.064 34.7089 129.975 35.1041 127.913 36.0873C126.883 36.5652 125.959 37.155 125.109 37.6631C124.263 38.1762 123.57 38.7069 123.03 39.2123C121.951 40.2244 121.293 40.8761 121.246 40.8332Z" fill="#E1E1E1"/>
<path fill-rule="evenodd" clip-rule="evenodd" d="M135.649 16.3101C135.675 16.3227 135.494 16.7093 135.144 17.3976C134.795 18.0864 134.274 19.0755 133.621 20.2927C132.312 22.7266 130.466 26.0706 128.331 29.7162C126.193 33.3624 124.161 36.6115 122.638 38.9325C121.877 40.0932 121.249 41.0259 120.801 41.6618C120.355 42.2986 120.097 42.6437 120.072 42.6292C120.047 42.6147 120.259 42.2421 120.662 41.5805C121.106 40.8592 121.685 39.9198 122.382 38.788C123.838 36.4322 125.827 33.1659 127.962 29.5238C130.051 25.8985 131.941 22.6195 133.357 20.1621C134.022 19.0127 134.574 18.0588 134.998 17.3263C135.393 16.6601 135.623 16.2974 135.649 16.3101Z" fill="#E1E1E1"/>
<path fill-rule="evenodd" clip-rule="evenodd" d="M123.888 34.4303C124.877 30.2111 123.538 25.5677 120.42 22.4039C119.626 21.5982 118.468 20.8345 117.378 21.2229C116.285 21.6122 115.95 22.9139 115.946 24.0163C115.929 28.6023 119.164 33.046 123.706 34.6742" fill="#F5F5F5"/>
<path fill-rule="evenodd" clip-rule="evenodd" d="M119.891 25.5878C119.915 25.5719 120.07 25.7395 120.328 26.0579C120.592 26.3723 120.94 26.8501 121.354 27.4521C122.144 28.6657 123.217 30.4303 123.662 32.6221C123.881 33.7133 123.89 34.7859 123.748 35.7389C123.609 36.6959 123.288 37.5152 122.986 38.1778C122.658 38.8313 122.354 39.3403 122.098 39.6637C121.855 39.9939 121.709 40.1677 121.686 40.1528C121.613 40.1104 122.149 39.376 122.711 38.0689C122.97 37.41 123.251 36.6106 123.363 35.6897C123.478 34.7715 123.459 33.7472 123.248 32.6962C122.822 30.5861 121.816 28.8342 121.098 27.5967C120.349 26.3641 119.836 25.6239 119.891 25.5878Z" fill="#E1E1E1"/>
<mask id="mask0_0_64" style="mask-type:luminance" maskUnits="userSpaceOnUse" x="0" y="20" width="79" height="92">
<path fill-rule="evenodd" clip-rule="evenodd" d="M0 20.4346H78.5559V111.829H0V20.4346Z" fill="white"/>
</mask>
<g mask="url(#mask0_0_64)">
<path fill-rule="evenodd" clip-rule="evenodd" d="M77.1883 94.184L40.8316 111.574C39.6032 112.162 38.1015 111.698 37.479 110.538L0.269992 41.244C-0.35306 40.0842 0.138395 38.6674 1.36727 38.0793L37.724 20.6892C38.9528 20.1016 40.454 20.5655 41.0771 21.7253L78.286 91.0193C78.9086 92.1796 78.4172 93.5959 77.1883 94.184Z" fill="#ECECEC"/>
</g>
<path fill-rule="evenodd" clip-rule="evenodd" d="M20.342 45.514C21.1771 47.0681 20.5186 48.9672 18.8715 49.7549C17.2244 50.5426 15.2126 49.9211 14.3781 48.3665C13.543 46.8124 14.2015 44.9133 15.8486 44.1256C17.4957 43.3379 19.5075 43.9594 20.342 45.514Z" fill="#FAFAFA"/>
<path fill-rule="evenodd" clip-rule="evenodd" d="M37.6929 37.2148C38.5275 38.7693 37.869 40.668 36.2219 41.4557C34.5753 42.2434 32.5635 41.6219 31.7284 40.0673C30.8939 38.5132 31.5523 36.6141 33.1995 35.8264C34.8466 35.0387 36.8583 35.6602 37.6929 37.2148Z" fill="#FAFAFA"/>
<path fill-rule="evenodd" clip-rule="evenodd" d="M28.517 60.7384C29.352 62.2925 28.6931 64.1917 27.0464 64.9793C25.3993 65.767 23.3875 65.1455 22.553 63.591C21.7179 62.0369 22.3764 60.1377 24.0235 59.35C25.6706 58.5624 27.6824 59.1838 28.517 60.7384Z" fill="#FAFAFA"/>
<path fill-rule="evenodd" clip-rule="evenodd" d="M45.8678 52.439C46.7024 53.9936 46.0439 55.8923 44.3968 56.6799C42.7497 57.4681 40.7384 56.8461 39.9034 55.292C39.0688 53.7375 39.7273 51.8388 41.3744 51.0511C43.0215 50.263 45.0333 50.8849 45.8678 52.439Z" fill="#FAFAFA"/>
<path fill-rule="evenodd" clip-rule="evenodd" d="M36.692 75.9627C37.5271 77.5172 36.8681 79.416 35.221 80.2036C33.5744 80.9913 31.5626 80.3698 30.728 78.8153C29.893 77.2612 30.5514 75.362 32.1986 74.5743C33.8457 73.7867 35.8574 74.4081 36.692 75.9627Z" fill="#FAFAFA"/>
<path fill-rule="evenodd" clip-rule="evenodd" d="M54.0429 67.6635C54.8775 69.218 54.219 71.1168 52.5719 71.9044C50.9248 72.6921 48.9131 72.0706 48.0785 70.5161C47.2439 68.962 47.9024 67.0628 49.5495 66.2751C51.1961 65.4875 53.2079 66.1089 54.0429 67.6635Z" fill="#FAFAFA"/>
<path fill-rule="evenodd" clip-rule="evenodd" d="M44.8671 91.1869C45.7017 92.7415 45.0432 94.6402 43.3961 95.4283C41.7494 96.216 39.7377 95.5945 38.9026 94.0395C38.0681 92.4854 38.7265 90.5867 40.3737 89.7986C42.0208 89.0109 44.0325 89.6328 44.8671 91.1869Z" fill="#FAFAFA"/>
<path fill-rule="evenodd" clip-rule="evenodd" d="M62.218 82.8877C63.0526 84.4423 62.3941 86.341 60.747 87.1287C59.0999 87.9168 57.0881 87.2949 56.2535 85.7408C55.419 84.1862 56.0774 82.2875 57.7246 81.4998C59.3712 80.7117 61.383 81.3336 62.218 82.8877Z" fill="#FAFAFA"/>
<path fill-rule="evenodd" clip-rule="evenodd" d="M18.3142 44.0739C18.3841 44.0965 17.985 45.3728 17.4242 46.9251C16.8628 48.4779 16.3513 49.7181 16.2819 49.6955C16.2125 49.6729 16.6111 48.397 17.1724 46.8443C17.7338 45.292 18.2448 44.0518 18.3142 44.0739Z" fill="#E1E1E1"/>
<path fill-rule="evenodd" clip-rule="evenodd" d="M35.2847 35.8089C35.3546 35.8315 34.9555 37.1078 34.3946 38.6601C33.8333 40.2129 33.3217 41.4531 33.2524 41.4305C33.183 41.4084 33.5816 40.132 34.1429 38.5793C34.7042 37.027 35.2153 35.7868 35.2847 35.8089Z" fill="#E1E1E1"/>
<path fill-rule="evenodd" clip-rule="evenodd" d="M26.6574 59.2763C26.7282 59.2948 26.4052 60.6227 25.9357 62.2423C25.4658 63.8623 25.0279 65.1603 24.9571 65.1423C24.8863 65.1238 25.2098 63.7959 25.6792 62.1759C26.1487 60.5563 26.587 59.2578 26.6574 59.2763Z" fill="#E1E1E1"/>
<path fill-rule="evenodd" clip-rule="evenodd" d="M43.7827 50.9698C43.854 50.9856 43.5961 52.2715 43.2066 53.8423C42.8166 55.4131 42.4433 56.6736 42.3715 56.6578C42.3002 56.642 42.5582 55.3557 42.9477 53.7849C43.3377 52.2145 43.7114 50.954 43.7827 50.9698Z" fill="#E1E1E1"/>
<path fill-rule="evenodd" clip-rule="evenodd" d="M34.279 74.5063C34.3499 74.5248 34.0541 75.7411 33.6186 77.2229C33.1832 78.7047 32.7731 79.8908 32.7023 79.8722C32.6319 79.8537 32.9272 78.6374 33.3626 77.1556C33.7981 75.6742 34.2082 74.4877 34.279 74.5063Z" fill="#E1E1E1"/>
<path fill-rule="evenodd" clip-rule="evenodd" d="M52.1143 66.4177C52.1837 66.4412 51.7855 67.6507 51.2257 69.1185C50.6658 70.5868 50.1561 71.7584 50.0872 71.7345C50.0183 71.7114 50.416 70.5019 50.9759 69.0336C51.5358 67.5658 52.0454 66.3942 52.1143 66.4177Z" fill="#E1E1E1"/>
<path fill-rule="evenodd" clip-rule="evenodd" d="M42.9839 89.8893C43.0528 89.9137 42.6149 91.172 42.0067 92.6999C41.3985 94.2278 40.8501 95.4468 40.7812 95.422C40.7123 95.3976 41.1497 94.1398 41.7579 92.6114C42.3661 91.0839 42.915 89.8649 42.9839 89.8893Z" fill="#E1E1E1"/>
<path fill-rule="evenodd" clip-rule="evenodd" d="M60.2165 81.0807C60.2873 81.0974 59.9719 82.5079 59.5116 84.23C59.0512 85.9526 58.6206 87.3351 58.5497 87.3179C58.4784 87.3008 58.7938 85.8912 59.2541 84.1686C59.7145 82.4465 60.1452 81.0636 60.2165 81.0807Z" fill="#E1E1E1"/>
<path fill-rule="evenodd" clip-rule="evenodd" d="M68.4572 90.7935C68.4902 90.8554 63.1837 93.4564 56.6062 96.6021C50.0269 99.7496 44.6677 102.25 44.6342 102.188C44.6012 102.127 49.9063 99.526 56.4861 96.3785C63.0636 93.2328 68.4241 90.7316 68.4572 90.7935Z" fill="#E1E1E1"/>
<path fill-rule="evenodd" clip-rule="evenodd" d="M34.0274 29.7948C34.0604 29.8567 28.754 32.4577 22.177 35.6039C15.5971 38.7509 10.238 41.2512 10.205 41.1894C10.1715 41.1279 15.477 38.5274 22.0569 35.3803C28.6339 32.2342 33.9944 29.7329 34.0274 29.7948Z" fill="#E1E1E1"/>
<path fill-rule="evenodd" clip-rule="evenodd" d="M22.9541 38.6509C22.9215 38.6667 22.8876 38.6726 22.8588 38.6698C22.8445 38.6689 22.832 38.6653 22.8215 38.6599L22.8072 38.6495C22.8048 38.6468 22.8019 38.6432 22.8019 38.6432L22.7995 38.64L22.7981 38.6382L22.7976 38.6373V38.6369L23.0345 38.5235L23.034 38.5231C23.055 38.5624 23.0196 38.6197 22.9541 38.6509C22.8885 38.682 22.8182 38.6757 22.7971 38.6364L22.7976 38.6369L23.0345 38.5235V38.524L23.0349 38.5249L23.0359 38.5267L23.0373 38.5303C23.0373 38.5303 23.0388 38.5353 23.0397 38.5384V38.5551C23.0383 38.5664 23.034 38.5782 23.0263 38.5899C23.012 38.6134 22.9866 38.6351 22.9541 38.6509Z" fill="#E1E1E1"/>
<path fill-rule="evenodd" clip-rule="evenodd" d="M55.714 96.7403C55.6484 96.7714 48.2 83.0247 39.0796 66.0393C29.9559 49.0484 22.6152 35.2534 22.6807 35.2222C22.7458 35.1911 30.1928 48.935 39.3165 65.9259C48.4369 82.9114 55.7796 96.7091 55.714 96.7403Z" fill="#E1E1E1"/>
<path fill-rule="evenodd" clip-rule="evenodd" d="M15.8859 133.31C15.8859 133.31 12.3658 135.115 17.5076 142.052C22.65 148.99 25.994 152.319 25.994 152.319C25.994 152.319 26.9663 153.959 25.4594 154.432C23.953 154.905 20.4717 154.841 20.0467 156.718C19.606 158.664 21.29 160.224 24.4076 161.376C27.5248 162.528 34.2564 165.289 34.8641 165.541C35.4608 165.788 36.1308 166.523 35.1593 167C34.1874 167.478 26.6395 169.241 27.7401 172.572C28.8413 175.902 38.0842 177.765 39.0905 177.987C40.0969 178.209 40.3816 178.561 40.3773 179.066C40.3725 179.571 37.776 179.938 35.6513 180.522C33.5261 181.107 31.1703 182.136 31.9766 184.007C32.782 185.879 38.5952 189.267 51.42 188.771L57.3471 188.174L59.8618 183.046C64.5366 171.764 63.035 165.473 61.4233 164.144C59.8111 162.816 58.0127 164.583 56.7351 166.288C55.4574 167.994 54.2443 170.192 53.7366 170.031C53.2293 169.871 52.9695 169.502 53.0752 168.532C53.1805 167.562 54.3247 158.707 51.3472 156.64C48.3693 154.572 44.1443 160.734 43.3495 161.445C42.5546 162.157 42.0373 161.319 41.9842 160.707C41.9297 160.082 41.3564 153.176 41.2176 150.019C41.0783 146.862 40.0643 144.852 37.9707 144.611C35.9523 144.379 34.8828 147.506 33.918 148.696C32.9533 149.887 31.6278 148.485 31.6278 148.485C31.6278 148.485 29.3815 144.416 24.1066 137.568C18.8322 130.72 15.817 133.352 15.817 133.352" fill="#ECECEC"/>
<path fill-rule="evenodd" clip-rule="evenodd" d="M57.8463 189.444C53.9931 184.4 47.3051 175.327 41.5196 167.566C35.7365 159.807 30.4937 152.787 26.6683 147.725C24.7565 145.201 23.2075 143.156 22.1318 141.735C21.5996 141.033 21.1857 140.485 20.8991 140.106C20.7632 139.923 20.6579 139.781 20.5823 139.679C20.5119 139.583 20.4799 139.53 20.4799 139.53C20.4799 139.53 20.522 139.576 20.5976 139.669C20.677 139.768 20.7871 139.907 20.9292 140.085C21.2221 140.459 21.646 141.001 22.1897 141.696C23.2831 143.095 24.8494 145.131 26.775 147.654C30.6277 152.697 35.8882 159.706 41.6713 167.465C47.4563 175.227 54.1276 184.31 57.953 189.372" fill="#E1E1E1"/>
<path fill-rule="evenodd" clip-rule="evenodd" d="M24.9131 156.993C24.916 156.981 25.0677 157.001 25.3404 157.046C25.6137 157.091 26.0066 157.167 26.4904 157.265C27.4584 157.462 28.7883 157.768 30.2493 158.129C31.6882 158.491 32.9893 158.818 33.9852 159.068C34.4345 159.178 34.8135 159.271 35.1188 159.345C35.3868 159.41 35.5337 159.451 35.5313 159.463C35.5289 159.474 35.3768 159.456 35.103 159.412C34.8303 159.366 34.4374 159.29 33.9541 159.188C32.9879 158.981 31.6629 158.66 30.2024 158.298C28.7615 157.946 27.458 157.628 26.4607 157.385C26.0104 157.277 25.6309 157.186 25.3251 157.113C25.0572 157.046 24.9107 157.004 24.9131 156.993Z" fill="#E1E1E1"/>
<path fill-rule="evenodd" clip-rule="evenodd" d="M35.8819 159.054C35.8322 159.044 36.3777 156.429 37.1003 153.213C37.8234 149.998 38.4502 147.399 38.5 147.409C38.5502 147.419 38.0047 150.034 37.2816 153.25C36.5586 156.465 35.9317 159.063 35.8819 159.054Z" fill="#E1E1E1"/>
<path fill-rule="evenodd" clip-rule="evenodd" d="M44.1949 171.348C44.1839 171.342 44.2518 171.209 44.3839 170.973C44.5351 170.706 44.7246 170.373 44.9495 169.978C45.4252 169.138 46.0779 167.975 46.7474 166.667C47.4212 165.359 47.9868 164.156 48.3888 163.283C48.5787 162.871 48.7386 162.525 48.8663 162.247C48.9802 162.004 49.0491 161.87 49.0611 161.874C49.0731 161.879 49.0271 162.02 48.9333 162.272C48.8395 162.524 48.6965 162.886 48.5098 163.33C48.138 164.217 47.5896 165.432 46.9144 166.743C46.2425 168.055 45.5702 169.213 45.0634 170.039C44.8088 170.451 44.5983 170.782 44.4461 171.007C44.2949 171.233 44.2059 171.355 44.1949 171.348Z" fill="#E1E1E1"/>
<path fill-rule="evenodd" clip-rule="evenodd" d="M33.8389 171.545C33.8384 171.533 33.9824 171.517 34.2428 171.498C34.5433 171.482 34.9117 171.461 35.3467 171.436C36.2794 171.392 37.5681 171.342 38.9917 171.297C40.4159 171.253 41.705 171.223 42.6386 171.21C43.0746 171.207 43.444 171.205 43.7445 171.203C44.0058 171.206 44.1508 171.213 44.1508 171.225C44.1513 171.237 44.0077 171.253 43.7469 171.272C43.4469 171.288 43.0779 171.309 42.643 171.333C41.7108 171.378 40.4216 171.428 38.9975 171.472C37.5743 171.517 36.2847 171.547 35.351 171.56C34.9156 171.562 34.5461 171.565 34.2451 171.566C33.9839 171.564 33.8393 171.557 33.8389 171.545Z" fill="#E1E1E1"/>
<path fill-rule="evenodd" clip-rule="evenodd" d="M39.7166 183.279C39.7161 183.267 39.9003 183.248 40.2343 183.225C40.6028 183.202 41.078 183.174 41.6489 183.14C42.8438 183.076 44.4947 183 46.3184 182.927C48.1431 182.854 49.7955 182.798 50.9913 182.765C51.5632 182.754 52.0393 182.743 52.4083 182.736C52.7432 182.733 52.9284 182.738 52.9289 182.749C52.9294 182.762 52.7451 182.781 52.4116 182.804C52.0427 182.826 51.568 182.855 50.9971 182.889C49.8022 182.952 48.1507 183.028 46.3266 183.101C44.5024 183.175 42.8505 183.231 41.6541 183.263C41.0828 183.275 40.6066 183.285 40.2372 183.292C39.9027 183.295 39.717 183.291 39.7166 183.279Z" fill="#E1E1E1"/>
<path fill-rule="evenodd" clip-rule="evenodd" d="M52.6094 182.678C52.5979 182.673 52.6793 182.501 52.8358 182.197C53.008 181.865 53.2334 181.432 53.5047 180.912C54.068 179.825 54.8403 178.322 55.6428 176.641C56.4482 174.96 57.1349 173.421 57.624 172.303C57.8589 171.766 58.0542 171.321 58.204 170.98C58.3423 170.667 58.4241 170.497 58.436 170.501C58.4485 170.506 58.3887 170.684 58.2714 171.004C58.1532 171.324 57.9752 171.784 57.745 172.349C57.2871 173.479 56.6181 175.029 55.8113 176.713C55.0073 178.397 54.2154 179.894 53.6215 180.967C53.3229 181.503 53.0769 181.934 52.8994 182.229C52.7233 182.524 52.6204 182.684 52.6094 182.678Z" fill="#E1E1E1"/>
<path fill-rule="evenodd" clip-rule="evenodd" d="M262.216 49.5845C268.742 44.2135 269.357 35.4142 268.19 27.6788C267.996 26.388 267.991 25.0065 267.208 23.9356C266.425 22.8652 264.812 22.2433 263.645 22.9144C262.677 23.4709 262.361 24.6357 261.896 25.6193C261.278 26.9287 260.264 28.0627 259.007 28.85C258.182 29.3671 257.13 29.7392 256.216 29.3775C254.961 28.8811 254.645 27.3509 254.506 26.0611C254.248 23.6574 253.989 21.2533 253.731 18.8496C253.592 17.5602 253.446 16.2437 252.882 15.0635C252.317 13.8834 251.249 12.8423 249.91 12.6314C248.572 12.42 247.046 13.2904 246.916 14.5798C246.862 15.1164 247.037 15.6497 247.06 16.1886C247.084 16.7278 246.888 17.3466 246.366 17.5503C245.838 17.7571 245.25 17.4468 244.799 17.1113C243.241 15.9532 242.092 14.3743 241.008 12.7976C239.924 11.2218 238.861 9.60313 237.421 8.31369C235.979 7.02424 234.081 6.0794 232.114 6.17379C230.146 6.26819 228.193 7.61951 227.905 9.48209C227.617 11.3496 228.951 13.0785 230.341 14.4253C232.404 16.4234 234.77 18.1347 237.34 19.4896C237.803 19.7344 238.305 19.9986 238.525 20.4593C238.919 21.2881 238.154 22.2293 237.288 22.6033C236.306 23.0269 235.19 23.0395 234.139 23.2663C233.088 23.4925 231.984 24.053 231.69 25.0439C231.281 26.4183 232.607 27.6802 233.858 28.4679C236.365 30.0455 239.155 31.2084 242.068 31.8927C243.112 32.1375 244.203 32.3339 245.09 32.9179C245.976 33.5019 246.597 34.6102 246.212 35.5677C245.826 36.5266 244.603 36.9448 243.529 36.8675C242.456 36.7903 241.452 36.3468 240.409 36.0921C238.456 35.6142 236.046 35.9828 235.019 37.6358C234.344 38.7225 234.434 40.1307 234.971 41.2896C235.507 42.4485 236.436 43.3992 237.405 44.2646C240.793 47.2892 244.95 49.5791 249.466 50.561C253.983 51.5428 258.06 51.518 262.216 49.5845Z" fill="#F5F5F5"/>
<path fill-rule="evenodd" clip-rule="evenodd" d="M259.537 44.9337C257.879 41.139 255.697 37.1216 253.26 32.9936C252.647 31.9638 252.042 30.9463 251.444 29.9436C250.846 28.9437 250.253 27.9519 249.609 27.0161C248.33 25.1386 246.948 23.4255 245.582 21.8384C244.217 20.2495 242.86 18.7894 241.582 17.4326C240.299 16.0777 239.078 14.8361 237.914 13.7495C235.593 11.5671 233.504 10.0193 232.023 9.01217C231.284 8.50588 230.697 8.13102 230.296 7.88216C230.103 7.76428 229.951 7.67169 229.837 7.60169C229.733 7.53981 229.679 7.51001 229.677 7.51317C229.674 7.51678 229.723 7.55381 229.823 7.62246C229.934 7.69699 230.08 7.7959 230.267 7.92236C230.659 8.18431 231.236 8.57092 231.966 9.0876C233.426 10.1169 235.49 11.6796 237.789 13.871C238.942 14.9621 240.152 16.2073 241.426 17.5659C242.698 18.9276 244.046 20.3905 245.403 21.9789C246.76 23.566 248.132 25.2759 249.401 27.1448C250.04 28.0761 250.627 29.0598 251.227 30.0624C251.823 31.0646 252.428 32.0817 253.04 33.111C255.475 37.2359 257.658 41.2406 259.323 45.0191" fill="#E1E1E1"/>
<path fill-rule="evenodd" clip-rule="evenodd" d="M249.536 27.0144C249.553 27.0148 249.577 26.8147 249.607 26.4507C249.638 26.0871 249.664 25.5605 249.686 24.9084C249.733 23.6058 249.732 21.8042 249.724 19.8183C249.715 17.8311 249.741 16.0349 249.808 14.736C249.841 14.0865 249.872 13.5612 249.898 13.1986C249.923 12.835 249.928 12.6331 249.91 12.6313C249.893 12.629 249.855 12.8278 249.801 13.1891C249.744 13.55 249.685 14.0748 249.631 14.7251C249.517 16.0254 249.462 17.8293 249.471 19.8179C249.485 21.7776 249.498 23.5507 249.508 24.9056C249.508 25.5176 249.508 26.0334 249.508 26.4471C249.509 26.8111 249.518 27.0135 249.536 27.0144Z" fill="#E1E1E1"/>
<path fill-rule="evenodd" clip-rule="evenodd" d="M231.624 25.7033C231.626 25.7196 231.878 25.7219 232.333 25.711C232.789 25.7033 233.447 25.6884 234.26 25.6943C235.887 25.6948 238.134 25.7693 240.61 25.954C243.086 26.1433 245.319 26.4043 246.927 26.6369C247.734 26.748 248.383 26.8541 248.832 26.9255C249.282 26.9982 249.532 27.0303 249.536 27.0145C249.54 26.9978 249.296 26.9345 248.852 26.8329C248.406 26.734 247.76 26.6017 246.956 26.4684C245.35 26.192 243.112 25.903 240.628 25.7133C238.146 25.5286 235.889 25.4802 234.258 25.524C233.442 25.5399 232.783 25.5805 232.328 25.6175C231.874 25.6568 231.623 25.6862 231.624 25.7033Z" fill="#E1E1E1"/>
<path fill-rule="evenodd" clip-rule="evenodd" d="M259.287 44.6508C259.295 44.653 259.328 44.5794 259.384 44.4362C259.447 44.266 259.523 44.0582 259.616 43.8062C259.815 43.2583 260.08 42.4585 260.395 41.4658C261.025 39.4817 261.804 36.7145 262.62 33.6501C263.438 30.5838 264.188 27.8139 264.774 25.8199C265.061 24.8502 265.299 24.0526 265.475 23.4601C265.549 23.2026 265.611 22.9908 265.661 22.8165C265.701 22.6688 265.718 22.5902 265.71 22.587C265.702 22.5848 265.669 22.6584 265.613 22.802C265.55 22.9718 265.474 23.1796 265.38 23.4316C265.182 23.9794 264.917 24.7793 264.602 25.772C263.972 27.7561 263.193 30.5233 262.376 33.5891C261.559 36.6539 260.809 39.4239 260.223 41.4183C259.935 42.3876 259.698 43.1856 259.522 43.7777C259.448 44.0352 259.386 44.2474 259.336 44.4213C259.296 44.5695 259.278 44.648 259.287 44.6508Z" fill="#E1E1E1"/>
<path fill-rule="evenodd" clip-rule="evenodd" d="M235.145 39.927C235.144 39.9352 235.227 39.9577 235.387 39.9934C235.575 40.0327 235.808 40.0806 236.089 40.1388C236.736 40.2667 237.61 40.4392 238.674 40.6488C240.857 41.0801 243.866 41.7079 247.189 42.4066C250.513 43.1052 253.53 43.7077 255.724 44.0962C256.82 44.2908 257.709 44.4399 258.325 44.5306C258.61 44.5713 258.845 44.6043 259.036 44.6318C259.199 44.6526 259.285 44.6589 259.287 44.6508C259.288 44.6426 259.204 44.6201 259.045 44.5839C258.856 44.5451 258.624 44.4972 258.343 44.439C257.695 44.3111 256.821 44.1386 255.757 43.9286C253.574 43.4977 250.566 42.8695 247.241 42.1708C243.919 41.4721 240.902 40.8701 238.708 40.4816C237.612 40.2865 236.723 40.1379 236.106 40.0467C235.821 40.0065 235.587 39.9726 235.395 39.946C235.233 39.9252 235.147 39.9184 235.145 39.927Z" fill="#E1E1E1"/>
<path fill-rule="evenodd" clip-rule="evenodd" d="M279.505 39.3885L294.303 189.549H279.505V39.3885Z" fill="#E1E1E1"/>
<path fill-rule="evenodd" clip-rule="evenodd" d="M66.4948 189.548H279.505V39.3883H66.4948V189.548Z" fill="#FAFAFA"/>
<path d="M66.4953 76.3455H279.506V39.3888H66.4953V76.3455Z" fill="#1DA49E"/>
<path fill-rule="evenodd" clip-rule="evenodd" d="M66.8578 39.5887C67.8512 39.5883 153.681 39.5454 279.868 39.4826H279.981V39.5887C279.984 84.6687 279.988 135.78 279.992 189.732V189.749V189.866L279.868 189.866C200.482 189.859 126.91 189.851 66.8578 189.845H66.7559V189.749C66.8176 98.8282 66.8573 40.3863 66.8578 39.5887C66.8583 40.3859 66.898 98.8282 66.9597 189.749L66.8578 189.652C126.91 189.646 200.482 189.639 279.868 189.631L279.744 189.749V189.732C279.747 135.78 279.752 84.6687 279.756 39.5887L279.868 39.6949C153.681 39.6321 67.8507 39.5892 66.8578 39.5887Z" fill="#1A2E35"/>
<path fill-rule="evenodd" clip-rule="evenodd" d="M105.177 46.2617C105.177 48.5285 103.231 50.3658 100.829 50.3658C98.4271 50.3658 96.4804 48.5285 96.4804 46.2617C96.4804 43.9949 98.4271 42.1577 100.829 42.1577C103.231 42.1577 105.177 43.9949 105.177 46.2617Z" fill="#1A2E35"/>
<path fill-rule="evenodd" clip-rule="evenodd" d="M100.829 42.3835C98.5628 42.3835 96.7195 44.1232 96.7195 46.2617C96.7195 48.4003 98.5628 50.14 100.829 50.14C103.095 50.14 104.938 48.4003 104.938 46.2617C104.938 44.1232 103.095 42.3835 100.829 42.3835ZM100.829 50.5917C98.2991 50.5917 96.241 48.6491 96.241 46.2617C96.241 43.8743 98.2991 41.9318 100.829 41.9318C103.359 41.9318 105.416 43.8743 105.416 46.2617C105.416 48.6491 103.359 50.5917 100.829 50.5917Z" fill="#1A2E35"/>
<path fill-rule="evenodd" clip-rule="evenodd" d="M141.04 46.2617C141.04 48.5285 139.093 50.3658 136.692 50.3658C134.29 50.3658 132.343 48.5285 132.343 46.2617C132.343 43.9949 134.29 42.1577 136.692 42.1577C139.093 42.1577 141.04 43.9949 141.04 46.2617Z" fill="#1A2E35"/>
<path fill-rule="evenodd" clip-rule="evenodd" d="M136.692 42.3835C134.426 42.3835 132.583 44.1232 132.583 46.2617C132.583 48.4003 134.426 50.14 136.692 50.14C138.958 50.14 140.801 48.4003 140.801 46.2617C140.801 44.1232 138.958 42.3835 136.692 42.3835ZM136.692 50.5917C134.162 50.5917 132.104 48.6491 132.104 46.2617C132.104 43.8743 134.162 41.9318 136.692 41.9318C139.222 41.9318 141.279 43.8743 141.279 46.2617C141.279 48.6491 139.222 50.5917 136.692 50.5917Z" fill="#1A2E35"/>
<path fill-rule="evenodd" clip-rule="evenodd" d="M176.903 46.2617C176.903 48.5285 174.957 50.3658 172.555 50.3658C170.153 50.3658 168.206 48.5285 168.206 46.2617C168.206 43.9949 170.153 42.1577 172.555 42.1577C174.957 42.1577 176.903 43.9949 176.903 46.2617Z" fill="#1A2E35"/>
<path fill-rule="evenodd" clip-rule="evenodd" d="M172.555 42.3835C170.289 42.3835 168.445 44.1232 168.445 46.2617C168.445 48.4003 170.289 50.14 172.555 50.14C174.82 50.14 176.664 48.4003 176.664 46.2617C176.664 44.1232 174.82 42.3835 172.555 42.3835ZM172.555 50.5917C170.025 50.5917 167.967 48.6491 167.967 46.2617C167.967 43.8743 170.025 41.9318 172.555 41.9318C175.084 41.9318 177.143 43.8743 177.143 46.2617C177.143 48.6491 175.084 50.5917 172.555 50.5917Z" fill="#1A2E35"/>
<path fill-rule="evenodd" clip-rule="evenodd" d="M212.766 46.2617C212.766 48.5285 210.82 50.3658 208.417 50.3658C206.016 50.3658 204.069 48.5285 204.069 46.2617C204.069 43.9949 206.016 42.1577 208.417 42.1577C210.82 42.1577 212.766 43.9949 212.766 46.2617Z" fill="#1A2E35"/>
<path fill-rule="evenodd" clip-rule="evenodd" d="M208.417 42.3835C206.152 42.3835 204.308 44.1232 204.308 46.2617C204.308 48.4003 206.152 50.14 208.417 50.14C210.683 50.14 212.527 48.4003 212.527 46.2617C212.527 44.1232 210.683 42.3835 208.417 42.3835ZM208.417 50.5917C205.888 50.5917 203.83 48.6491 203.83 46.2617C203.83 43.8743 205.888 41.9318 208.417 41.9318C210.948 41.9318 213.006 43.8743 213.006 46.2617C213.006 48.6491 210.948 50.5917 208.417 50.5917Z" fill="#1A2E35"/>
<path fill-rule="evenodd" clip-rule="evenodd" d="M248.629 46.2617C248.629 48.5285 246.682 50.3658 244.28 50.3658C241.879 50.3658 239.932 48.5285 239.932 46.2617C239.932 43.9949 241.879 42.1577 244.28 42.1577C246.682 42.1577 248.629 43.9949 248.629 46.2617Z" fill="#1A2E35"/>
<path fill-rule="evenodd" clip-rule="evenodd" d="M244.28 42.3835C242.015 42.3835 240.171 44.1232 240.171 46.2617C240.171 48.4003 242.015 50.14 244.28 50.14C246.546 50.14 248.39 48.4003 248.39 46.2617C248.39 44.1232 246.546 42.3835 244.28 42.3835ZM244.28 50.5917C241.751 50.5917 239.693 48.6491 239.693 46.2617C239.693 43.8743 241.751 41.9318 244.28 41.9318C246.81 41.9318 248.869 43.8743 248.869 46.2617C248.869 48.6491 246.81 50.5917 244.28 50.5917Z" fill="#1A2E35"/>
<path fill-rule="evenodd" clip-rule="evenodd" d="M100.829 46.3396C99.3844 46.3396 98.2144 45.2348 98.2144 43.8718V31.7234C98.2144 30.3608 99.3844 29.2561 100.829 29.2561C102.273 29.2561 103.443 30.3608 103.443 31.7234V43.8718C103.443 45.2348 102.273 46.3396 100.829 46.3396Z" fill="#E1E1E1"/>
<path fill-rule="evenodd" clip-rule="evenodd" d="M100.829 46.3395C100.828 46.3246 100.978 46.3314 101.251 46.2804C101.52 46.228 101.929 46.1241 102.347 45.8211C102.763 45.5302 103.191 45.0239 103.326 44.3333C103.395 43.9937 103.36 43.6094 103.364 43.2029C103.361 42.7968 103.358 42.3682 103.355 41.9188C103.348 40.1114 103.339 37.9697 103.329 35.594C103.326 34.403 103.324 33.1538 103.321 31.8589C103.346 31.2298 103.121 30.6002 102.656 30.1305C102.2 29.6599 101.526 29.3704 100.83 29.3735C100.133 29.3699 99.4586 29.6594 99.0026 30.1296C98.537 30.5988 98.3116 31.2289 98.3365 31.8585C98.3336 33.1533 98.3312 34.403 98.3288 35.594C98.3187 37.9701 98.3101 40.1118 98.3025 41.9193C98.2991 42.3687 98.2963 42.7973 98.2934 43.2033C98.2972 43.6098 98.2628 43.9937 98.3321 44.3333C98.4666 45.0244 98.8949 45.5306 99.3108 45.8215C99.7285 46.1241 100.138 46.228 100.407 46.2804C100.68 46.3314 100.829 46.3246 100.829 46.3395C100.829 46.3395 100.68 46.3639 100.398 46.3273C100.122 46.289 99.696 46.1977 99.2533 45.8951C98.8136 45.6052 98.3513 45.0853 98.1953 44.3586C98.1154 43.9933 98.146 43.6062 98.135 43.2033C98.1321 42.7973 98.1292 42.3687 98.1264 41.9193C98.1182 40.1118 98.1092 37.9701 98.0996 35.594C98.0972 34.403 98.0948 33.1533 98.0919 31.8585C98.0623 31.1946 98.3097 30.481 98.8203 29.9706C99.3203 29.4535 100.065 29.1337 100.83 29.1387C101.595 29.1346 102.338 29.4544 102.838 29.9715C103.349 30.4823 103.596 31.1955 103.565 31.8589C103.563 33.1538 103.56 34.403 103.558 35.594C103.548 37.9697 103.539 40.1114 103.531 41.9188C103.529 42.3682 103.525 42.7968 103.522 43.2029C103.512 43.6057 103.542 43.9928 103.462 44.3582C103.307 45.0853 102.844 45.6047 102.404 45.8951C101.962 46.1977 101.535 46.289 101.259 46.3273C100.978 46.3639 100.829 46.3395 100.829 46.3395Z" fill="#1A2E35"/>
<path fill-rule="evenodd" clip-rule="evenodd" d="M136.692 46.3396C135.247 46.3396 134.077 45.2348 134.077 43.8718V31.7234C134.077 30.3608 135.247 29.2561 136.692 29.2561C138.136 29.2561 139.306 30.3608 139.306 31.7234V43.8718C139.306 45.2348 138.136 46.3396 136.692 46.3396Z" fill="#E1E1E1"/>
<path fill-rule="evenodd" clip-rule="evenodd" d="M136.692 46.3395C136.691 46.3246 136.841 46.3314 137.114 46.2804C137.382 46.228 137.792 46.1241 138.21 45.8211C138.626 45.5302 139.054 45.0239 139.189 44.3333C139.258 43.9937 139.223 43.6094 139.227 43.2029C139.224 42.7968 139.221 42.3682 139.218 41.9188C139.211 40.1114 139.202 37.9697 139.192 35.594C139.189 34.403 139.187 33.1538 139.184 31.8589C139.209 31.2298 138.984 30.6002 138.519 30.1305C138.063 29.6599 137.388 29.3704 136.693 29.3735C135.996 29.3699 135.322 29.6594 134.866 30.1296C134.4 30.5988 134.174 31.2289 134.199 31.8585C134.197 33.1533 134.194 34.403 134.192 35.594C134.182 37.9701 134.173 40.1118 134.166 41.9193C134.162 42.3687 134.159 42.7973 134.156 43.2033C134.16 43.6098 134.126 43.9937 134.195 44.3333C134.33 45.0244 134.758 45.5306 135.174 45.8215C135.592 46.1241 136.001 46.228 136.27 46.2804C136.543 46.3314 136.692 46.3246 136.692 46.3395C136.692 46.3395 136.543 46.3639 136.262 46.3273C135.985 46.289 135.559 46.1977 135.116 45.8951C134.676 45.6052 134.214 45.0853 134.058 44.3586C133.978 43.9933 134.009 43.6062 133.998 43.2033C133.995 42.7973 133.992 42.3687 133.989 41.9193C133.981 40.1118 133.972 37.9701 133.962 35.594C133.96 34.403 133.958 33.1533 133.955 31.8585C133.925 31.1946 134.173 30.481 134.683 29.9706C135.183 29.4535 135.928 29.1337 136.693 29.1387C137.458 29.1346 138.201 29.4544 138.701 29.9715C139.212 30.4823 139.459 31.1955 139.428 31.8589C139.426 33.1538 139.423 34.403 139.421 35.594C139.411 37.9697 139.402 40.1114 139.394 41.9188C139.392 42.3682 139.388 42.7968 139.385 43.2029C139.375 43.6057 139.405 43.9928 139.325 44.3582C139.17 45.0853 138.707 45.6047 138.268 45.8951C137.825 46.1977 137.398 46.289 137.122 46.3273C136.841 46.3639 136.692 46.3395 136.692 46.3395Z" fill="#1A2E35"/>
<path fill-rule="evenodd" clip-rule="evenodd" d="M172.555 46.3396C171.111 46.3396 169.94 45.2348 169.94 43.8718V31.7234C169.94 30.3608 171.111 29.2561 172.555 29.2561C173.999 29.2561 175.169 30.3608 175.169 31.7234V43.8718C175.169 45.2348 173.999 46.3396 172.555 46.3396Z" fill="#E1E1E1"/>
<path fill-rule="evenodd" clip-rule="evenodd" d="M172.555 46.3395C172.554 46.3246 172.704 46.3314 172.977 46.2804C173.245 46.228 173.655 46.1241 174.073 45.8211C174.489 45.5302 174.917 45.0239 175.051 44.3333C175.12 43.9937 175.086 43.6094 175.09 43.2029C175.087 42.7968 175.084 42.3682 175.081 41.9188C175.073 40.1114 175.064 37.9697 175.055 35.594C175.052 34.403 175.05 33.1538 175.047 31.8589C175.072 31.2298 174.847 30.6002 174.382 30.1305C173.926 29.6599 173.252 29.3704 172.556 29.3735C171.86 29.3699 171.184 29.6594 170.728 30.1296C170.263 30.5988 170.037 31.2289 170.062 31.8585C170.06 33.1533 170.057 34.403 170.055 35.594C170.045 37.9701 170.036 40.1118 170.028 41.9193C170.025 42.3687 170.022 42.7973 170.019 43.2033C170.023 43.6098 169.989 43.9937 170.058 44.3333C170.192 45.0244 170.621 45.5306 171.037 45.8215C171.454 46.1241 171.864 46.228 172.132 46.2804C172.406 46.3314 172.555 46.3246 172.555 46.3395C172.555 46.3395 172.406 46.3639 172.125 46.3273C171.848 46.289 171.422 46.1977 170.979 45.8951C170.539 45.6052 170.077 45.0853 169.921 44.3586C169.841 43.9933 169.872 43.6062 169.861 43.2033C169.858 42.7973 169.855 42.3687 169.852 41.9193C169.845 40.1118 169.835 37.9701 169.825 35.594C169.823 34.403 169.821 33.1533 169.818 31.8585C169.789 31.1946 170.035 30.481 170.547 29.9706C171.047 29.4535 171.791 29.1337 172.556 29.1387C173.321 29.1346 174.064 29.4544 174.564 29.9715C175.074 30.4823 175.321 31.1955 175.292 31.8589C175.289 33.1538 175.286 34.403 175.284 35.594C175.274 37.9697 175.265 40.1114 175.257 41.9188C175.254 42.3682 175.251 42.7968 175.249 43.2029C175.238 43.6057 175.268 43.9928 175.188 44.3582C175.033 45.0853 174.571 45.6047 174.13 45.8951C173.688 46.1977 173.262 46.289 172.985 46.3273C172.704 46.3639 172.555 46.3395 172.555 46.3395Z" fill="#1A2E35"/>
<path fill-rule="evenodd" clip-rule="evenodd" d="M208.417 46.3396C206.974 46.3396 205.803 45.2348 205.803 43.8718V31.7234C205.803 30.3608 206.974 29.2561 208.417 29.2561C209.862 29.2561 211.032 30.3608 211.032 31.7234V43.8718C211.032 45.2348 209.862 46.3396 208.417 46.3396Z" fill="#E1E1E1"/>
<path fill-rule="evenodd" clip-rule="evenodd" d="M208.417 46.3395C208.417 46.3246 208.567 46.3314 208.84 46.2804C209.108 46.228 209.518 46.1241 209.936 45.8211C210.352 45.5302 210.78 45.0239 210.914 44.3333C210.983 43.9937 210.949 43.6094 210.953 43.2029C210.95 42.7968 210.947 42.3682 210.944 41.9188C210.936 40.1114 210.927 37.9697 210.918 35.594C210.915 34.403 210.913 33.1538 210.91 31.8589C210.936 31.2298 210.71 30.6002 210.245 30.1305C209.789 29.6599 209.115 29.3704 208.419 29.3735C207.723 29.3699 207.047 29.6594 206.591 30.1296C206.126 30.5988 205.9 31.2289 205.925 31.8585C205.923 33.1533 205.92 34.403 205.918 35.594C205.908 37.9701 205.899 40.1118 205.891 41.9193C205.888 42.3687 205.885 42.7973 205.882 43.2033C205.887 43.6098 205.852 43.9937 205.921 44.3333C206.055 45.0244 206.484 45.5306 206.9 45.8215C207.317 46.1241 207.727 46.228 207.995 46.2804C208.269 46.3314 208.418 46.3246 208.417 46.3395C208.417 46.3395 208.269 46.3639 207.988 46.3273C207.711 46.289 207.285 46.1977 206.842 45.8951C206.402 45.6052 205.94 45.0853 205.784 44.3586C205.704 43.9933 205.735 43.6062 205.724 43.2033C205.721 42.7973 205.718 42.3687 205.715 41.9193C205.708 40.1118 205.698 37.9701 205.688 35.594C205.686 34.403 205.684 33.1533 205.681 31.8585C205.652 31.1946 205.898 30.481 206.41 29.9706C206.91 29.4535 207.654 29.1337 208.419 29.1387C209.184 29.1346 209.927 29.4544 210.427 29.9715C210.937 30.4823 211.184 31.1955 211.154 31.8589C211.152 33.1538 211.149 34.403 211.147 35.594C211.137 37.9697 211.128 40.1114 211.12 41.9188C211.117 42.3682 211.115 42.7968 211.112 43.2029C211.101 43.6057 211.131 43.9928 211.051 44.3582C210.896 45.0853 210.434 45.6047 209.993 45.8951C209.551 46.1977 209.124 46.289 208.848 46.3273C208.567 46.3639 208.417 46.3395 208.417 46.3395Z" fill="#1A2E35"/>
<path fill-rule="evenodd" clip-rule="evenodd" d="M244.28 46.3396C242.836 46.3396 241.666 45.2348 241.666 43.8718V31.7234C241.666 30.3608 242.836 29.2561 244.28 29.2561C245.725 29.2561 246.895 30.3608 246.895 31.7234V43.8718C246.895 45.2348 245.725 46.3396 244.28 46.3396Z" fill="#E1E1E1"/>
<path fill-rule="evenodd" clip-rule="evenodd" d="M244.281 46.3395C244.28 46.3246 244.43 46.3314 244.703 46.2804C244.972 46.228 245.381 46.1241 245.799 45.8211C246.215 45.5302 246.643 45.0239 246.778 44.3333C246.846 43.9937 246.812 43.6094 246.816 43.2029C246.813 42.7968 246.81 42.3682 246.807 41.9188C246.8 40.1114 246.79 37.9697 246.78 35.594C246.778 34.403 246.776 33.1538 246.773 31.8589C246.798 31.2298 246.573 30.6002 246.108 30.1305C245.652 29.6599 244.977 29.3704 244.281 29.3735C243.586 29.3699 242.91 29.6594 242.454 30.1296C241.989 30.5988 241.763 31.2289 241.788 31.8585C241.785 33.1533 241.783 34.403 241.781 35.594C241.771 37.9701 241.762 40.1118 241.754 41.9193C241.751 42.3687 241.748 42.7973 241.745 43.2033C241.75 43.6098 241.715 43.9937 241.784 44.3333C241.918 45.0244 242.347 45.5306 242.763 45.8215C243.18 46.1241 243.59 46.228 243.858 46.2804C244.132 46.3314 244.281 46.3246 244.281 46.3395C244.281 46.3395 244.132 46.3639 243.851 46.3273C243.574 46.289 243.148 46.1977 242.705 45.8951C242.265 45.6052 241.803 45.0853 241.647 44.3586C241.567 43.9933 241.598 43.6062 241.587 43.2033C241.584 42.7973 241.581 42.3687 241.578 41.9193C241.571 40.1118 241.561 37.9701 241.551 35.594C241.549 34.403 241.547 33.1533 241.544 31.8585C241.514 31.1946 241.762 30.481 242.273 29.9706C242.773 29.4535 243.517 29.1337 244.282 29.1387C245.047 29.1346 245.79 29.4544 246.29 29.9715C246.8 30.4823 247.047 31.1955 247.017 31.8589C247.015 33.1538 247.012 34.403 247.01 35.594C247 37.9697 246.991 40.1114 246.983 41.9188C246.98 42.3682 246.978 42.7968 246.975 43.2029C246.964 43.6057 246.994 43.9928 246.914 44.3582C246.759 45.0853 246.297 45.6047 245.856 45.8951C245.414 46.1977 244.987 46.289 244.711 46.3273C244.43 46.3639 244.281 46.3395 244.281 46.3395Z" fill="#1A2E35"/>
<path d="M90.216 69.9999L95.016 59.4999H96.111L100.911 69.9999H99.741L95.331 60.1449H95.781L91.371 69.9999H90.216ZM92.106 67.1949L92.436 66.2949H98.541L98.871 67.1949H92.106ZM106.488 70.0749C105.808 70.0749 105.193 69.9199 104.643 69.6099C104.093 69.2899 103.653 68.8349 103.323 68.2449C103.003 67.6449 102.843 66.9149 102.843 66.0549C102.843 65.1949 103.003 64.4699 103.323 63.8799C103.643 63.2799 104.078 62.8249 104.628 62.5149C105.178 62.2049 105.798 62.0499 106.488 62.0499C107.238 62.0499 107.908 62.2199 108.498 62.5599C109.098 62.8899 109.568 63.3599 109.908 63.9699C110.248 64.5699 110.418 65.2649 110.418 66.0549C110.418 66.8549 110.248 67.5549 109.908 68.1549C109.568 68.7549 109.098 69.2249 108.498 69.5649C107.908 69.9049 107.238 70.0749 106.488 70.0749ZM102.423 72.9099V62.1249H103.443V64.4949L103.338 66.0699L103.488 67.6599V72.9099H102.423ZM106.413 69.1299C106.973 69.1299 107.473 69.0049 107.913 68.7549C108.353 68.4949 108.703 68.1349 108.963 67.6749C109.223 67.2049 109.353 66.6649 109.353 66.0549C109.353 65.4449 109.223 64.9099 108.963 64.4499C108.703 63.9899 108.353 63.6299 107.913 63.3699C107.473 63.1099 106.973 62.9799 106.413 62.9799C105.853 62.9799 105.348 63.1099 104.898 63.3699C104.458 63.6299 104.108 63.9899 103.848 64.4499C103.598 64.9099 103.473 65.4449 103.473 66.0549C103.473 66.6649 103.598 67.2049 103.848 67.6749C104.108 68.1349 104.458 68.4949 104.898 68.7549C105.348 69.0049 105.853 69.1299 106.413 69.1299ZM116.654 70.0749C115.974 70.0749 115.359 69.9199 114.809 69.6099C114.259 69.2899 113.819 68.8349 113.489 68.2449C113.169 67.6449 113.009 66.9149 113.009 66.0549C113.009 65.1949 113.169 64.4699 113.489 63.8799C113.809 63.2799 114.244 62.8249 114.794 62.5149C115.344 62.2049 115.964 62.0499 116.654 62.0499C117.404 62.0499 118.074 62.2199 118.664 62.5599C119.264 62.8899 119.734 63.3599 120.074 63.9699C120.414 64.5699 120.584 65.2649 120.584 66.0549C120.584 66.8549 120.414 67.5549 120.074 68.1549C119.734 68.7549 119.264 69.2249 118.664 69.5649C118.074 69.9049 117.404 70.0749 116.654 70.0749ZM112.589 72.9099V62.1249H113.609V64.4949L113.504 66.0699L113.654 67.6599V72.9099H112.589ZM116.579 69.1299C117.139 69.1299 117.639 69.0049 118.079 68.7549C118.519 68.4949 118.869 68.1349 119.129 67.6749C119.389 67.2049 119.519 66.6649 119.519 66.0549C119.519 65.4449 119.389 64.9099 119.129 64.4499C118.869 63.9899 118.519 63.6299 118.079 63.3699C117.639 63.1099 117.139 62.9799 116.579 62.9799C116.019 62.9799 115.514 63.1099 115.064 63.3699C114.624 63.6299 114.274 63.9899 114.014 64.4499C113.764 64.9099 113.639 65.4449 113.639 66.0549C113.639 66.6649 113.764 67.2049 114.014 67.6749C114.274 68.1349 114.624 68.4949 115.064 68.7549C115.514 69.0049 116.019 69.1299 116.579 69.1299ZM125.965 70.0749C125.205 70.0749 124.52 69.9049 123.91 69.5649C123.31 69.2149 122.835 68.7399 122.485 68.1399C122.135 67.5299 121.96 66.8349 121.96 66.0549C121.96 65.2649 122.135 64.5699 122.485 63.9699C122.835 63.3699 123.31 62.8999 123.91 62.5599C124.51 62.2199 125.195 62.0499 125.965 62.0499C126.745 62.0499 127.435 62.2199 128.035 62.5599C128.645 62.8999 129.12 63.3699 129.46 63.9699C129.81 64.5699 129.985 65.2649 129.985 66.0549C129.985 66.8349 129.81 67.5299 129.46 68.1399C129.12 68.7399 128.645 69.2149 128.035 69.5649C127.425 69.9049 126.735 70.0749 125.965 70.0749ZM125.965 69.1299C126.535 69.1299 127.04 69.0049 127.48 68.7549C127.92 68.4949 128.265 68.1349 128.515 67.6749C128.775 67.2049 128.905 66.6649 128.905 66.0549C128.905 65.4349 128.775 64.8949 128.515 64.4349C128.265 63.9749 127.92 63.6199 127.48 63.3699C127.04 63.1099 126.54 62.9799 125.98 62.9799C125.42 62.9799 124.92 63.1099 124.48 63.3699C124.04 63.6199 123.69 63.9749 123.43 64.4349C123.17 64.8949 123.04 65.4349 123.04 66.0549C123.04 66.6649 123.17 67.2049 123.43 67.6749C123.69 68.1349 124.04 68.4949 124.48 68.7549C124.92 69.0049 125.415 69.1299 125.965 69.1299ZM132.159 69.9999V62.1249H133.224V69.9999H132.159ZM132.699 60.3849C132.479 60.3849 132.294 60.3099 132.144 60.1599C131.994 60.0099 131.919 59.8299 131.919 59.6199C131.919 59.4099 131.994 59.2349 132.144 59.0949C132.294 58.9449 132.479 58.8699 132.699 58.8699C132.919 58.8699 133.104 58.9399 133.254 59.0799C133.404 59.2199 133.479 59.3949 133.479 59.6049C133.479 59.8249 133.404 60.0099 133.254 60.1599C133.114 60.3099 132.929 60.3849 132.699 60.3849ZM140.208 62.0499C140.848 62.0499 141.408 62.1749 141.888 62.4249C142.378 62.6649 142.758 63.0349 143.028 63.5349C143.308 64.0349 143.448 64.6649 143.448 65.4249V69.9999H142.383V65.5299C142.383 64.6999 142.173 64.0749 141.753 63.6549C141.343 63.2249 140.763 63.0099 140.013 63.0099C139.453 63.0099 138.963 63.1249 138.543 63.3549C138.133 63.5749 137.813 63.8999 137.583 64.3299C137.363 64.7499 137.253 65.2599 137.253 65.8599V69.9999H136.188V62.1249H137.208V64.2849L137.043 63.8799C137.293 63.3099 137.693 62.8649 138.243 62.5449C138.793 62.2149 139.448 62.0499 140.208 62.0499ZM148.814 70.0749C148.074 70.0749 147.504 69.8749 147.104 69.4749C146.704 69.0749 146.504 68.5099 146.504 67.7799V60.3849H147.569V67.7199C147.569 68.1799 147.684 68.5349 147.914 68.7849C148.154 69.0349 148.494 69.1599 148.934 69.1599C149.404 69.1599 149.794 69.0249 150.104 68.7549L150.479 69.5199C150.269 69.7099 150.014 69.8499 149.714 69.9399C149.424 70.0299 149.124 70.0749 148.814 70.0749ZM145.094 63.0099V62.1249H149.969V63.0099H145.094ZM162.258 62.0499C162.898 62.0499 163.453 62.1749 163.923 62.4249C164.403 62.6649 164.773 63.0349 165.033 63.5349C165.303 64.0349 165.438 64.6649 165.438 65.4249V69.9999H164.373V65.5299C164.373 64.6999 164.173 64.0749 163.773 63.6549C163.383 63.2249 162.828 63.0099 162.108 63.0099C161.568 63.0099 161.098 63.1249 160.698 63.3549C160.308 63.5749 160.003 63.8999 159.783 64.3299C159.573 64.7499 159.468 65.2599 159.468 65.8599V69.9999H158.403V65.5299C158.403 64.6999 158.203 64.0749 157.803 63.6549C157.403 63.2249 156.843 63.0099 156.123 63.0099C155.593 63.0099 155.128 63.1249 154.728 63.3549C154.328 63.5749 154.018 63.8999 153.798 64.3299C153.588 64.7499 153.483 65.2599 153.483 65.8599V69.9999H152.418V62.1249H153.438V64.2549L153.273 63.8799C153.513 63.3099 153.898 62.8649 154.428 62.5449C154.968 62.2149 155.603 62.0499 156.333 62.0499C157.103 62.0499 157.758 62.2449 158.298 62.6349C158.838 63.0149 159.188 63.5899 159.348 64.3599L158.928 64.1949C159.158 63.5549 159.563 63.0399 160.143 62.6499C160.733 62.2499 161.438 62.0499 162.258 62.0499ZM171.671 70.0749C170.851 70.0749 170.131 69.9049 169.511 69.5649C168.891 69.2149 168.406 68.7399 168.056 68.1399C167.706 67.5299 167.531 66.8349 167.531 66.0549C167.531 65.2749 167.696 64.5849 168.026 63.9849C168.366 63.3849 168.826 62.9149 169.406 62.5749C169.996 62.2249 170.656 62.0499 171.386 62.0499C172.126 62.0499 172.781 62.2199 173.351 62.5599C173.931 62.8899 174.386 63.3599 174.716 63.9699C175.046 64.5699 175.211 65.2649 175.211 66.0549C175.211 66.1049 175.206 66.1599 175.196 66.2199C175.196 66.2699 175.196 66.3249 175.196 66.3849H168.341V65.5899H174.626L174.206 65.9049C174.206 65.3349 174.081 64.8299 173.831 64.3899C173.591 63.9399 173.261 63.5899 172.841 63.3399C172.421 63.0899 171.936 62.9649 171.386 62.9649C170.846 62.9649 170.361 63.0899 169.931 63.3399C169.501 63.5899 169.166 63.9399 168.926 64.3899C168.686 64.8399 168.566 65.3549 168.566 65.9349V66.0999C168.566 66.6999 168.696 67.2299 168.956 67.6899C169.226 68.1399 169.596 68.4949 170.066 68.7549C170.546 69.0049 171.091 69.1299 171.701 69.1299C172.181 69.1299 172.626 69.0449 173.036 68.8749C173.456 68.7049 173.816 68.4449 174.116 68.0949L174.716 68.7849C174.366 69.2049 173.926 69.5249 173.396 69.7449C172.876 69.9649 172.301 70.0749 171.671 70.0749ZM181.399 62.0499C182.039 62.0499 182.599 62.1749 183.079 62.4249C183.569 62.6649 183.949 63.0349 184.219 63.5349C184.499 64.0349 184.639 64.6649 184.639 65.4249V69.9999H183.574V65.5299C183.574 64.6999 183.364 64.0749 182.944 63.6549C182.534 63.2249 181.954 63.0099 181.204 63.0099C180.644 63.0099 180.154 63.1249 179.734 63.3549C179.324 63.5749 179.004 63.8999 178.774 64.3299C178.554 64.7499 178.444 65.2599 178.444 65.8599V69.9999H177.379V62.1249H178.399V64.2849L178.234 63.8799C178.484 63.3099 178.884 62.8649 179.434 62.5449C179.984 62.2149 180.639 62.0499 181.399 62.0499ZM190.006 70.0749C189.266 70.0749 188.696 69.8749 188.296 69.4749C187.896 69.0749 187.696 68.5099 187.696 67.7799V60.3849H188.761V67.7199C188.761 68.1799 188.876 68.5349 189.106 68.7849C189.346 69.0349 189.686 69.1599 190.126 69.1599C190.596 69.1599 190.986 69.0249 191.296 68.7549L191.671 69.5199C191.461 69.7099 191.206 69.8499 190.906 69.9399C190.616 70.0299 190.316 70.0749 190.006 70.0749ZM186.286 63.0099V62.1249H191.161V63.0099H186.286ZM202.32 70.0899C201.53 70.0899 200.8 69.9599 200.13 69.6999C199.46 69.4299 198.88 69.0549 198.39 68.5749C197.9 68.0949 197.515 67.5299 197.235 66.8799C196.965 66.2299 196.83 65.5199 196.83 64.7499C196.83 63.9799 196.965 63.2699 197.235 62.6199C197.515 61.9699 197.9 61.4049 198.39 60.9249C198.89 60.4449 199.475 60.0749 200.145 59.8149C200.815 59.5449 201.545 59.4099 202.335 59.4099C203.095 59.4099 203.81 59.5399 204.48 59.7999C205.15 60.0499 205.715 60.4299 206.175 60.9399L205.47 61.6449C205.04 61.2049 204.565 60.8899 204.045 60.6999C203.525 60.4999 202.965 60.3999 202.365 60.3999C201.735 60.3999 201.15 60.5099 200.61 60.7299C200.07 60.9399 199.6 61.2449 199.2 61.6449C198.8 62.0349 198.485 62.4949 198.255 63.0249C198.035 63.5449 197.925 64.1199 197.925 64.7499C197.925 65.3799 198.035 65.9599 198.255 66.4899C198.485 67.0099 198.8 67.4699 199.2 67.8699C199.6 68.2599 200.07 68.5649 200.61 68.7849C201.15 68.9949 201.735 69.0999 202.365 69.0999C202.965 69.0999 203.525 68.9999 204.045 68.7999C204.565 68.5999 205.04 68.2799 205.47 67.8399L206.175 68.5449C205.715 69.0549 205.15 69.4399 204.48 69.6999C203.81 69.9599 203.09 70.0899 202.32 70.0899ZM213.134 69.9999V68.2599L213.089 67.9749V65.0649C213.089 64.3949 212.899 63.8799 212.519 63.5199C212.149 63.1599 211.594 62.9799 210.854 62.9799C210.344 62.9799 209.859 63.0649 209.399 63.2349C208.939 63.4049 208.549 63.6299 208.229 63.9099L207.749 63.1149C208.149 62.7749 208.629 62.5149 209.189 62.3349C209.749 62.1449 210.339 62.0499 210.959 62.0499C211.979 62.0499 212.764 62.3049 213.314 62.8149C213.874 63.3149 214.154 64.0799 214.154 65.1099V69.9999H213.134ZM210.419 70.0749C209.829 70.0749 209.314 69.9799 208.874 69.7899C208.444 69.5899 208.114 69.3199 207.884 68.9799C207.654 68.6299 207.539 68.2299 207.539 67.7799C207.539 67.3699 207.634 66.9999 207.824 66.6699C208.024 66.3299 208.344 66.0599 208.784 65.8599C209.234 65.6499 209.834 65.5449 210.584 65.5449H213.299V66.3399H210.614C209.854 66.3399 209.324 66.4749 209.024 66.7449C208.734 67.0149 208.589 67.3499 208.589 67.7499C208.589 68.1999 208.764 68.5599 209.114 68.8299C209.464 69.0999 209.954 69.2349 210.584 69.2349C211.184 69.2349 211.699 69.0999 212.129 68.8299C212.569 68.5499 212.889 68.1499 213.089 67.6299L213.329 68.3649C213.129 68.8849 212.779 69.2999 212.279 69.6099C211.789 69.9199 211.169 70.0749 210.419 70.0749ZM217.047 69.9999V58.8699H218.112V69.9999H217.047ZM224.42 70.0749C223.6 70.0749 222.88 69.9049 222.26 69.5649C221.64 69.2149 221.155 68.7399 220.805 68.1399C220.455 67.5299 220.28 66.8349 220.28 66.0549C220.28 65.2749 220.445 64.5849 220.775 63.9849C221.115 63.3849 221.575 62.9149 222.155 62.5749C222.745 62.2249 223.405 62.0499 224.135 62.0499C224.875 62.0499 225.53 62.2199 226.1 62.5599C226.68 62.8899 227.135 63.3599 227.465 63.9699C227.795 64.5699 227.96 65.2649 227.96 66.0549C227.96 66.1049 227.955 66.1599 227.945 66.2199C227.945 66.2699 227.945 66.3249 227.945 66.3849H221.09V65.5899H227.375L226.955 65.9049C226.955 65.3349 226.83 64.8299 226.58 64.3899C226.34 63.9399 226.01 63.5899 225.59 63.3399C225.17 63.0899 224.685 62.9649 224.135 62.9649C223.595 62.9649 223.11 63.0899 222.68 63.3399C222.25 63.5899 221.915 63.9399 221.675 64.3899C221.435 64.8399 221.315 65.3549 221.315 65.9349V66.0999C221.315 66.6999 221.445 67.2299 221.705 67.6899C221.975 68.1399 222.345 68.4949 222.815 68.7549C223.295 69.0049 223.84 69.1299 224.45 69.1299C224.93 69.1299 225.375 69.0449 225.785 68.8749C226.205 68.7049 226.565 68.4449 226.865 68.0949L227.465 68.7849C227.115 69.2049 226.675 69.5249 226.145 69.7449C225.625 69.9649 225.05 70.0749 224.42 70.0749ZM234.148 62.0499C234.788 62.0499 235.348 62.1749 235.828 62.4249C236.318 62.6649 236.698 63.0349 236.968 63.5349C237.248 64.0349 237.388 64.6649 237.388 65.4249V69.9999H236.323V65.5299C236.323 64.6999 236.113 64.0749 235.693 63.6549C235.283 63.2249 234.703 63.0099 233.953 63.0099C233.393 63.0099 232.903 63.1249 232.483 63.3549C232.073 63.5749 231.753 63.8999 231.523 64.3299C231.303 64.7499 231.193 65.2599 231.193 65.8599V69.9999H230.128V62.1249H231.148V64.2849L230.983 63.8799C231.233 63.3099 231.633 62.8649 232.183 62.5449C232.733 62.2149 233.388 62.0499 234.148 62.0499ZM243.4 70.0749C242.65 70.0749 241.975 69.9049 241.375 69.5649C240.785 69.2249 240.32 68.7549 239.98 68.1549C239.64 67.5449 239.47 66.8449 239.47 66.0549C239.47 65.2549 239.64 64.5549 239.98 63.9549C240.32 63.3549 240.785 62.8899 241.375 62.5599C241.975 62.2199 242.65 62.0499 243.4 62.0499C244.09 62.0499 244.705 62.2049 245.245 62.5149C245.795 62.8249 246.23 63.2799 246.55 63.8799C246.88 64.4699 247.045 65.1949 247.045 66.0549C247.045 66.9049 246.885 67.6299 246.565 68.2299C246.245 68.8299 245.81 69.2899 245.26 69.6099C244.72 69.9199 244.1 70.0749 243.4 70.0749ZM243.475 69.1299C244.035 69.1299 244.535 69.0049 244.975 68.7549C245.425 68.4949 245.775 68.1349 246.025 67.6749C246.285 67.2049 246.415 66.6649 246.415 66.0549C246.415 65.4349 246.285 64.8949 246.025 64.4349C245.775 63.9749 245.425 63.6199 244.975 63.3699C244.535 63.1099 244.035 62.9799 243.475 62.9799C242.925 62.9799 242.43 63.1099 241.99 63.3699C241.55 63.6199 241.2 63.9749 240.94 64.4349C240.68 64.8949 240.55 65.4349 240.55 66.0549C240.55 66.6649 240.68 67.2049 240.94 67.6749C241.2 68.1349 241.55 68.4949 241.99 68.7549C242.43 69.0049 242.925 69.1299 243.475 69.1299ZM246.445 69.9999V67.6299L246.55 66.0399L246.4 64.4499V58.8699H247.465V69.9999H246.445ZM255.366 69.9999V68.2599L255.321 67.9749V65.0649C255.321 64.3949 255.131 63.8799 254.751 63.5199C254.381 63.1599 253.826 62.9799 253.086 62.9799C252.576 62.9799 252.091 63.0649 251.631 63.2349C251.171 63.4049 250.781 63.6299 250.461 63.9099L249.981 63.1149C250.381 62.7749 250.861 62.5149 251.421 62.3349C251.981 62.1449 252.571 62.0499 253.191 62.0499C254.211 62.0499 254.996 62.3049 255.546 62.8149C256.106 63.3149 256.386 64.0799 256.386 65.1099V69.9999H255.366ZM252.651 70.0749C252.061 70.0749 251.546 69.9799 251.106 69.7899C250.676 69.5899 250.346 69.3199 250.116 68.9799C249.886 68.6299 249.771 68.2299 249.771 67.7799C249.771 67.3699 249.866 66.9999 250.056 66.6699C250.256 66.3299 250.576 66.0599 251.016 65.8599C251.466 65.6499 252.066 65.5449 252.816 65.5449H255.531V66.3399H252.846C252.086 66.3399 251.556 66.4749 251.256 66.7449C250.966 67.0149 250.821 67.3499 250.821 67.7499C250.821 68.1999 250.996 68.5599 251.346 68.8299C251.696 69.0999 252.186 69.2349 252.816 69.2349C253.416 69.2349 253.931 69.0999 254.361 68.8299C254.801 68.5499 255.121 68.1499 255.321 67.6299L255.561 68.3649C255.361 68.8849 255.011 69.2999 254.511 69.6099C254.021 69.9199 253.401 70.0749 252.651 70.0749ZM259.278 69.9999V62.1249H260.298V64.2699L260.193 63.8949C260.413 63.2949 260.783 62.8399 261.303 62.5299C261.823 62.2099 262.468 62.0499 263.238 62.0499V63.0849C263.198 63.0849 263.158 63.0849 263.118 63.0849C263.078 63.0749 263.038 63.0699 262.998 63.0699C262.168 63.0699 261.518 63.3249 261.048 63.8349C260.578 64.3349 260.343 65.0499 260.343 65.9799V69.9999H259.278Z" fill="white"/>
<path fill-rule="evenodd" clip-rule="evenodd" d="M66.8117 7.63141C67.4171 7.28229 67.8363 6.65902 67.9128 5.99374C67.9899 5.32757 67.7229 4.63429 67.2113 4.17C66.8122 3.80824 66.2834 3.58603 65.9106 3.20032C65.601 2.87966 65.4211 2.46956 65.179 2.10102C64.4023 0.918164 62.9552 0.190565 61.4837 0.107914C60.0122 0.0252631 58.5388 0.547816 57.3898 1.41994C56.9333 1.76635 56.5022 2.1778 55.9418 2.33904C55.3987 2.49531 54.8158 2.39323 54.2487 2.40814C52.9031 2.44246 51.6034 3.19581 50.9622 4.31318C50.3214 5.43054 50.3626 6.86948 51.0679 7.95162C49.6275 8.48863 48.7226 10.0721 49.0375 11.5029C49.3524 12.9337 50.8507 14.0457 52.3978 13.9969C53.3539 13.9671 54.2425 13.5534 55.1091 13.1713C58.6197 11.6226 62.3192 10.4582 66.1116 9.70716" fill="#1A2E35"/>
<path d="M51.9601 30.3248C50.0718 28.4265 48.9266 25.8838 48.7888 23.2832C48.6515 20.6822 49.0467 17.429 50.7254 15.3623C49.5191 14.1595 49.9933 12.801 50.8264 11.3435C51.66 9.88608 53.1617 8.87259 54.7246 8.12015C57.0517 6.99962 59.6286 6.34383 62.2371 6.20834C64.3646 6.09768 67.2067 6.40209 67.5153 7.84555C67.8374 9.35088 66.8071 10.0392 66.8071 10.0392C66.8071 10.0392 68.9275 10.5784 70.799 12.227C73.4922 14.5994 74.5627 17.0175 74.2469 19.7319C73.931 22.4468 73.3424 24.5659 71.6456 26.3065" fill="#0C395B"/>
<path d="M69.9869 29.517C70.2621 29.2487 70.6549 29.0007 71.0536 28.8856L70.9732 28.8792C71.0473 28.8612 71.1234 28.8548 71.199 28.8476C71.4905 28.7889 71.7781 28.8088 72.0183 28.9605L72.0106 28.9596C72.4571 29.1249 72.8466 29.4447 73.0543 29.8552C73.4161 30.5697 73.2548 31.469 72.7318 32.0882C72.2776 32.6261 71.5091 32.9693 70.8042 32.7923C70.1573 32.6301 69.6873 32.0633 69.517 31.4518C69.3304 30.7829 69.4768 30.0138 69.9869 29.517Z" fill="#2AD3E7"/>
<path fill-rule="evenodd" clip-rule="evenodd" d="M71.391 20.7251C71.1354 17.2727 68.6801 13.0503 65.0365 13.4378L53.6699 16.2276C52.5625 16.345 51.7351 17.2429 51.7648 18.2939L53.1703 44.1998C53.1435 44.2056 53.1186 44.2106 53.0918 44.2165C53.0918 44.2165 55.7209 51.5137 63.2353 49.2482C64.7255 48.7989 65.3992 47.2556 65.6873 45.6699L65.7644 45.6784C65.7663 45.4906 65.7677 45.3153 65.7691 45.136C66.0084 43.3064 65.7969 41.5775 65.7969 41.5775C65.8079 39.4855 65.8012 38.6274 65.8026 38.6468C65.8026 38.6468 70.4731 37.884 71.4001 32.1205C71.8609 29.2544 71.6747 24.5609 71.391 20.7251Z" fill="#EAB7A7"/>
<path fill-rule="evenodd" clip-rule="evenodd" d="M69.2133 25.0966C69.231 25.4864 68.8951 25.8215 68.4644 25.8464C68.0342 25.8708 67.6705 25.5758 67.6528 25.1856C67.6356 24.7959 67.971 24.4603 68.4012 24.4359C68.8324 24.4106 69.1961 24.7069 69.2133 25.0966Z" fill="#1A2E35"/>
<path fill-rule="evenodd" clip-rule="evenodd" d="M70.3295 23.1741C70.2333 23.2712 69.6375 22.8611 68.7958 22.8683C67.9545 22.8643 67.3396 23.2775 67.2477 23.1809C67.2027 23.1375 67.3004 22.9632 67.5679 22.7766C67.8311 22.591 68.2818 22.409 68.8058 22.4077C69.3308 22.4072 69.7729 22.5865 70.028 22.7712C70.2879 22.9573 70.3769 23.1307 70.3295 23.1741Z" fill="#1A2E35"/>
<path fill-rule="evenodd" clip-rule="evenodd" d="M61.3179 25.0967C61.3356 25.4864 60.9997 25.8215 60.569 25.8464C60.1393 25.8708 59.7751 25.5759 59.7579 25.1861C59.7407 24.7959 60.0761 24.4603 60.5063 24.4359C60.937 24.4111 61.3007 24.7069 61.3179 25.0967Z" fill="#1A2E35"/>
<path fill-rule="evenodd" clip-rule="evenodd" d="M62.0559 23.3757C61.9592 23.4723 61.3629 23.0627 60.5217 23.0699C59.6809 23.0659 59.0655 23.4791 58.9736 23.382C58.9286 23.3391 59.0253 23.1652 59.2937 22.9782C59.5574 22.7922 60.0077 22.6106 60.5317 22.6093C61.0562 22.6088 61.4988 22.7881 61.7539 22.9728C62.0133 23.1589 62.1027 23.3323 62.0559 23.3757Z" fill="#1A2E35"/>
<path fill-rule="evenodd" clip-rule="evenodd" d="M65.1532 29.2484C65.1489 29.2032 65.6715 29.1147 66.5189 29.0068C66.7338 28.9846 66.9372 28.9426 66.9721 28.8044C67.0219 28.6572 66.93 28.439 66.8242 28.2037C66.619 27.7141 66.4036 27.2006 66.1777 26.6627C65.2786 24.4691 64.6263 22.6643 64.7206 22.6313C64.8144 22.5975 65.6193 24.3489 66.518 26.5426C66.7343 27.0841 66.941 27.5994 67.1382 28.0931C67.221 28.323 67.3631 28.5836 67.2554 28.8889C67.1985 29.0406 67.0415 29.1517 66.9042 29.1874C66.7663 29.2281 66.6458 29.2308 66.539 29.2375C65.6863 29.2863 65.1566 29.2936 65.1532 29.2484Z" fill="#1A2E35"/>
<path fill-rule="evenodd" clip-rule="evenodd" d="M65.8028 38.6469C65.8028 38.6469 61.7008 38.9228 57.6184 36.6429C57.6184 36.6429 59.6292 40.5849 65.7305 40.0068L65.8028 38.6469Z" fill="#D9A291"/>
<path d="M65.0422 31.1383C64.6311 30.5977 63.9636 30.2689 63.3305 30.2956C62.8917 30.3141 62.4634 30.5083 62.227 30.8714C61.9906 31.2345 61.9805 31.7734 62.2567 32.1554C62.5672 32.5859 63.151 32.7223 63.6262 32.6102C64.1009 32.4987 64.4909 32.1889 64.8604 31.879C64.9623 31.7932 65.0671 31.7033 65.1245 31.58C65.1824 31.4568 65.1829 31.2896 65.0886 31.1772" fill="#FF6F5B"/>
<path fill-rule="evenodd" clip-rule="evenodd" d="M62.6799 29.814C62.8168 29.8055 62.8244 30.6681 63.6111 31.2751C64.3964 31.8844 65.3698 31.7809 65.3779 31.9015C65.3908 31.9557 65.1621 32.0704 64.751 32.0835C64.3476 32.0994 63.7581 31.981 63.2766 31.6098C62.7967 31.2372 62.588 30.7376 62.5545 30.384C62.5167 30.0236 62.6172 29.8095 62.6799 29.814Z" fill="#1A2E35"/>
<path fill-rule="evenodd" clip-rule="evenodd" d="M62.3783 21.2189C62.2969 21.4353 61.4557 21.3386 60.4689 21.4569C59.4793 21.5572 58.6849 21.835 58.5524 21.6421C58.4935 21.55 58.6304 21.3458 58.951 21.1345C59.2687 20.9235 59.777 20.7217 60.3694 20.6557C60.9618 20.5907 61.5054 20.676 61.8662 20.812C62.2294 20.9475 62.4132 21.1159 62.3783 21.2189Z" fill="#1A2E35"/>
<path fill-rule="evenodd" clip-rule="evenodd" d="M70.0033 20.8767C69.8564 21.0582 69.2755 20.8748 68.5777 20.8703C67.8805 20.8428 67.291 20.9995 67.1536 20.8116C67.0933 20.7204 67.1852 20.5393 67.4417 20.3667C67.6948 20.1951 68.1188 20.0529 68.5983 20.0637C69.0778 20.075 69.4941 20.2358 69.7382 20.4191C69.9856 20.603 70.0679 20.7881 70.0033 20.8767Z" fill="#1A2E35"/>
<path d="M65.8649 15.0767C65.8649 15.0767 60.1397 14.9963 55.8066 21.0967C52.9511 25.1168 52.3487 30.1635 52.3487 30.1635L50.1388 20.5592L51.7974 16.1796L55.7525 14.0677L63.2588 13.6689L66.0908 14.9932" fill="#0C395B"/>
<path d="M54.6479 15.5774C63.7659 13.5052 71.0544 16.3551 72.3924 23.1031L74.2472 18.663L69.5021 13.2708L64.3128 11.9954L53.8564 13.4953L54.6479 15.5774Z" fill="#0C395B"/>
<path d="M50.9558 29.5382C51.252 29.2496 51.6741 28.9831 52.1033 28.8589L52.0167 28.8517C52.0971 28.8327 52.1789 28.8255 52.2603 28.8182C52.5737 28.755 52.8829 28.7762 53.1418 28.9393L53.1336 28.9384C53.6141 29.1168 54.0333 29.4605 54.2567 29.9022C54.6453 30.6713 54.4726 31.6388 53.9098 32.3054C53.4207 32.8844 52.5938 33.2534 51.8354 33.0632C51.1391 32.8885 50.6333 32.2783 50.45 31.6207C50.249 30.9008 50.4069 30.0729 50.9558 29.5382Z" fill="#2AD3E7"/>
<path fill-rule="evenodd" clip-rule="evenodd" d="M53.113 26.4648C53.1096 26.4757 52.9541 26.4508 52.7067 26.3239C52.4641 26.1961 52.1306 25.9495 51.8698 25.5353C51.6109 25.1302 51.4372 24.5286 51.6018 23.899C51.6764 23.5924 51.798 23.2907 51.8511 22.979C51.9109 22.6697 51.8497 22.3504 51.6085 22.1236C51.3721 21.8937 51.0338 21.7587 50.7208 21.6002C50.4002 21.4493 50.1025 21.2348 49.8881 20.99C49.4503 20.4973 49.2665 19.9255 49.2297 19.4531C49.1885 18.9752 49.3005 18.5927 49.4063 18.3506C49.513 18.1058 49.6206 17.996 49.6278 18.001C49.6833 18.0146 49.2967 18.5281 49.4053 19.4368C49.4613 19.8785 49.6522 20.4056 50.0618 20.8482C50.2671 21.0708 50.5227 21.2515 50.8342 21.3956C51.1386 21.5496 51.4965 21.6815 51.7879 21.961C52.0923 22.2388 52.1679 22.6778 52.0923 23.0152C52.0286 23.3616 51.8999 23.6619 51.8252 23.9501C51.664 24.5178 51.8013 25.0638 52.0238 25.4541C52.2473 25.8497 52.5421 26.1008 52.7589 26.2467C52.979 26.3912 53.1211 26.4454 53.113 26.4648Z" fill="white"/>
<path fill-rule="evenodd" clip-rule="evenodd" d="M51.5217 14.7503C51.5729 14.7666 51.2184 15.2399 51.2495 16.0958C51.2624 16.5154 51.393 17.0203 51.7132 17.4814C52.0218 17.9552 52.5927 18.2741 53.1646 18.6787C53.4459 18.8856 53.7173 19.1227 53.8857 19.4226C54.0613 19.7198 54.102 20.0599 54.0776 20.3552C54.0274 20.9491 53.835 21.441 53.8728 21.8556C53.8943 22.2747 54.0604 22.5936 54.2379 22.7494C54.414 22.912 54.5681 22.9292 54.559 22.9531C54.5571 22.9608 54.5212 22.959 54.4518 22.9472C54.3839 22.9314 54.2819 22.8989 54.1747 22.819C53.9541 22.6663 53.7426 22.3203 53.6967 21.8691C53.6359 21.408 53.8173 20.8945 53.8484 20.343C53.8642 20.0675 53.823 19.7844 53.6713 19.5323C53.5254 19.2781 53.2828 19.0631 53.0119 18.8648C52.4692 18.4787 51.8519 18.1282 51.5203 17.5993C51.1829 17.0898 51.0643 16.5438 51.0734 16.0985C51.0729 15.6491 51.1973 15.2977 51.304 15.0737C51.4122 14.8474 51.5131 14.7449 51.5217 14.7503Z" fill="white"/>
<path fill-rule="evenodd" clip-rule="evenodd" d="M57.9373 18.8436C57.9483 18.8504 57.8674 18.9326 57.6889 18.8982C57.6047 18.8793 57.5066 18.8305 57.4253 18.7402C57.3406 18.6507 57.2922 18.5121 57.2884 18.3703C57.2712 18.0785 57.4434 17.7759 57.4573 17.4738C57.4798 17.173 57.1994 16.9074 56.8405 16.738C56.4768 16.5732 56.0796 16.3568 55.8538 16.0588C55.6178 15.7702 55.4929 15.4576 55.4437 15.1916C55.347 14.6483 55.515 14.3267 55.5346 14.3384C55.5791 14.3452 55.4834 14.6677 55.6154 15.1555C55.682 15.3962 55.8131 15.6722 56.0322 15.9228C56.2509 16.1843 56.5687 16.351 56.9587 16.5312C57.1487 16.626 57.3391 16.7457 57.4798 16.9083C57.6239 17.0655 57.7057 17.2877 57.6865 17.4828C57.6449 17.8694 57.4645 18.1314 57.4645 18.3707C57.4434 18.6087 57.5937 18.7596 57.7191 18.8111C57.8454 18.863 57.9301 18.8246 57.9373 18.8436Z" fill="white"/>
<path fill-rule="evenodd" clip-rule="evenodd" d="M59.676 14.1602C59.6812 14.1471 59.7367 14.1444 59.8056 14.2045C59.8722 14.2637 59.9305 14.386 59.9152 14.5392C59.9009 14.6914 59.8147 14.8413 59.7674 14.9858C59.7209 15.1295 59.7186 15.2993 59.7631 15.4732C59.853 15.8254 60.0976 16.0928 60.2713 16.2852C60.4498 16.4772 60.5622 16.6027 60.5378 16.628C60.5158 16.651 60.3655 16.572 60.1483 16.404C59.9392 16.2378 59.6334 15.9573 59.5209 15.5283C59.4664 15.3182 59.4759 15.0969 59.5501 14.9154C59.6262 14.7388 59.7138 14.6191 59.7415 14.5121C59.8047 14.2871 59.6626 14.1837 59.676 14.1602Z" fill="white"/>
<path fill-rule="evenodd" clip-rule="evenodd" d="M68.7955 11.0161C68.8099 11.0238 68.7792 11.1091 68.6964 11.2487C68.6161 11.3892 68.4715 11.577 68.3433 11.8187C68.2079 12.0598 68.1638 12.3665 68.2686 12.7147C68.3572 13.058 68.5596 13.4527 68.5596 13.9179C68.5663 14.3745 68.4155 14.8022 68.1849 15.1288C67.9552 15.4598 67.6489 15.6807 67.3757 15.8157C66.8144 16.0858 66.4095 16.0339 66.4153 16.0117C66.4076 15.9706 66.7933 15.9575 67.2881 15.6716C67.5307 15.5285 67.7963 15.3144 67.9911 15.0122C68.1882 14.7133 68.3165 14.328 68.3107 13.9211C68.3136 13.515 68.1332 13.1442 68.0452 12.7644C67.9384 12.3873 68.0155 11.9862 68.1873 11.7401C68.349 11.4876 68.5132 11.3201 68.6161 11.1972C68.7218 11.0762 68.7797 11.008 68.7955 11.0161Z" fill="white"/>
<path fill-rule="evenodd" clip-rule="evenodd" d="M73.1381 15.0421C73.1749 15.08 72.8667 15.2141 72.7543 15.6387C72.7002 15.8577 72.5858 16.1219 72.5026 16.3983C72.4155 16.682 72.3437 17.0144 72.1681 17.3454C71.7982 18.0279 71.0536 18.3034 70.5635 18.326C70.052 18.354 69.7692 18.19 69.7826 18.171C69.794 18.1309 70.0845 18.2284 70.5439 18.1607C70.9894 18.0992 71.6297 17.8264 71.946 17.2379C72.1025 16.9462 72.1815 16.6251 72.2829 16.3351C72.3872 16.0361 72.5097 15.804 72.5877 15.5845C72.6696 15.3605 72.8237 15.1974 72.9395 15.1274C73.0557 15.052 73.1294 15.0303 73.1381 15.0421Z" fill="white"/>
<path fill-rule="evenodd" clip-rule="evenodd" d="M73.9636 20.805C73.9923 20.8163 73.9722 20.9522 73.8421 21.132C73.7157 21.3095 73.4616 21.5217 73.1118 21.6094C72.762 21.6965 72.4294 21.6301 72.227 21.5348C72.0198 21.4395 71.9308 21.3307 71.9499 21.3072C71.9815 21.2494 72.4562 21.5303 73.0482 21.3822C73.6401 21.2349 73.9057 20.7693 73.9636 20.805Z" fill="white"/>
<path fill-rule="evenodd" clip-rule="evenodd" d="M63.3741 10.1587C63.3985 10.1939 63.1191 10.3325 62.8659 10.7106C62.6176 11.0732 62.4156 11.7272 62.7094 12.3406C62.854 12.6404 63.0774 12.9665 63.0549 13.3215C63.0435 13.6666 62.8721 13.9335 62.7185 14.1214C62.3941 14.4967 62.1113 14.6317 62.0964 14.6123C62.0677 14.583 62.3108 14.3973 62.5754 14.0252C62.7008 13.8391 62.8291 13.5952 62.8257 13.3197C62.8358 13.042 62.6472 12.771 62.4817 12.4358C62.3137 12.0894 62.2945 11.7105 62.3572 11.3935C62.4242 11.0746 62.564 10.8077 62.7209 10.6157C63.0415 10.2255 63.3693 10.1365 63.3741 10.1587Z" fill="white"/>
<path fill-rule="evenodd" clip-rule="evenodd" d="M57.6315 14.3086C57.5631 14.2824 57.7506 13.7698 57.753 13.1181C57.7655 12.4663 57.5899 11.9501 57.6588 11.9253C57.7148 11.8959 58.0138 12.4135 58.0024 13.1208C57.9976 13.828 57.687 14.3393 57.6315 14.3086Z" fill="white"/>
<path fill-rule="evenodd" clip-rule="evenodd" d="M53.3941 13.7575C53.3831 13.7417 53.4467 13.6965 53.4998 13.5818C53.553 13.4693 53.5946 13.2837 53.5458 13.0665C53.4592 12.6189 52.9825 12.1176 52.581 11.474C52.382 11.147 52.2451 10.7988 52.2049 10.465C52.1609 10.1326 52.2245 9.81735 52.348 9.59063C52.4676 9.35983 52.6433 9.21395 52.782 9.15343C52.9242 9.09427 53.0122 9.10872 53.0127 9.12137C53.016 9.13988 52.9385 9.15885 52.8313 9.23247C52.726 9.30744 52.5954 9.44745 52.5088 9.65882C52.3116 10.077 52.4107 10.7464 52.7973 11.3579C53.1744 11.9699 53.6587 12.5082 53.72 13.0407C53.753 13.3009 53.674 13.5114 53.5836 13.6279C53.4917 13.748 53.3989 13.7697 53.3941 13.7575Z" fill="white"/>
<path fill-rule="evenodd" clip-rule="evenodd" d="M59.1991 11.1632C59.1871 11.1514 59.2354 11.0887 59.3292 10.9861C59.413 10.885 59.5848 10.7364 59.5958 10.5399C59.5977 10.352 59.4058 10.0986 59.1895 9.88231C58.9641 9.65784 58.6665 9.45189 58.3669 9.19988C58.0798 8.9447 57.7793 8.66829 57.719 8.2862C57.6769 7.91992 57.8271 7.63222 57.9448 7.41362C58.2052 6.9805 58.4267 6.7619 58.4507 6.7759C58.4851 6.79623 58.3119 7.05502 58.1032 7.48634C58.009 7.70042 57.8989 7.97502 57.9463 8.25504C57.9908 8.52286 58.2568 8.78527 58.5334 9.02509C59.1005 9.49164 59.7561 9.94554 59.7714 10.553C59.7125 10.8524 59.4967 10.9635 59.3962 11.0525C59.28 11.1356 59.211 11.1745 59.1991 11.1632Z" fill="white"/>
<path fill-rule="evenodd" clip-rule="evenodd" d="M64.8495 10.2154C64.8275 10.1856 65.0993 10.0745 65.1787 9.69733C65.2199 9.51397 65.1998 9.29311 65.0959 9.06006C64.9969 8.82611 64.8256 8.5899 64.6476 8.32704C64.4705 8.06419 64.314 7.78236 64.2681 7.49241C64.2159 7.18709 64.3336 6.93237 64.4399 6.75035C64.6624 6.36284 64.9954 6.29148 64.9935 6.33258C65.0036 6.36013 64.7581 6.46221 64.5968 6.82578C64.5188 6.99966 64.4399 7.22684 64.4944 7.45537C64.5437 7.6961 64.6854 7.94541 64.8586 8.20149C65.0313 8.45757 65.2103 8.7141 65.3108 8.98328C65.417 9.2493 65.4233 9.53113 65.3491 9.73934C65.2792 9.95026 65.1471 10.0925 65.038 10.1576C64.928 10.224 64.8543 10.228 64.8495 10.2154Z" fill="white"/>
<path fill-rule="evenodd" clip-rule="evenodd" d="M66.8073 10.0392C66.8063 10.0554 66.558 10.0649 66.1101 10.0681C65.6631 10.0622 65.0161 10.088 64.2203 10.1354C62.6321 10.2483 60.437 10.5893 58.1759 11.4442C55.9139 12.2965 54.0304 13.4057 52.6929 14.2286C52.0579 14.6306 51.5286 14.9653 51.118 15.2245C50.7472 15.4616 50.5371 15.5867 50.5266 15.5736C50.5165 15.5605 50.707 15.411 51.0611 15.1504C51.4142 14.8889 51.9363 14.5249 52.5943 14.0909C53.9108 13.2296 55.7948 12.0883 58.0841 11.2256C60.3734 10.3598 62.6062 10.0401 64.2093 9.96963C65.0132 9.94298 65.6641 9.94253 66.1124 9.9764C66.5608 10.0017 66.8078 10.0229 66.8073 10.0392Z" fill="#1A2E35"/>
<path fill-rule="evenodd" clip-rule="evenodd" d="M52.4164 15.3521C52.4174 15.3544 52.438 15.3476 52.4767 15.3331C52.5231 15.3146 52.5786 15.2925 52.6471 15.2654C52.7251 15.2329 52.816 15.1949 52.9218 15.1511C53.0347 15.1105 53.162 15.0644 53.3041 15.0129C53.8812 14.8129 54.7387 14.5649 55.8322 14.4389C56.9223 14.3034 58.2416 14.2912 59.6863 14.4556C60.4089 14.536 61.1612 14.6647 61.9383 14.8156C62.714 14.9687 63.5127 15.148 64.3147 15.3824C67.552 16.2667 70.0466 18.1907 71.1712 19.9657C71.7478 20.8504 72.0148 21.6643 72.1742 22.2225C72.255 22.503 72.3029 22.7243 72.334 22.8747C72.3498 22.9434 72.3632 22.9989 72.3737 23.0454C72.3838 23.0838 72.3895 23.1032 72.3924 23.1028C72.3948 23.1023 72.3933 23.0825 72.3881 23.0432C72.3809 22.9962 72.3728 22.9393 72.3622 22.8702C72.3397 22.718 72.301 22.494 72.2282 22.2099C72.0842 21.6444 71.8301 20.8188 71.2578 19.9164C70.1414 18.1053 67.6219 16.1457 64.3568 15.2537C63.5491 15.0179 62.7456 14.8386 61.9665 14.6864C61.187 14.5369 60.43 14.41 59.7016 14.3328C58.2464 14.1738 56.9161 14.1955 55.8188 14.3445C54.7187 14.4836 53.8582 14.7478 53.284 14.9642C53.1433 15.0197 53.0165 15.0698 52.905 15.1146C52.8012 15.1629 52.7112 15.2049 52.6346 15.2406C52.5691 15.2726 52.515 15.2988 52.47 15.321C52.4336 15.3395 52.4155 15.3503 52.4164 15.3521Z" fill="#1A2E35"/>
<path fill-rule="evenodd" clip-rule="evenodd" d="M64.3473 15.3647C64.3468 15.3602 64.2784 15.3625 64.1487 15.372C64.0185 15.3778 63.8285 15.4022 63.584 15.4415C63.0983 15.5255 62.4001 15.7062 61.5995 16.0675C60.0022 16.7829 58.0048 18.2263 56.4141 20.2962C55.6097 21.3237 55.0091 22.4032 54.4852 23.3859C53.9645 24.3723 53.5477 25.286 53.2496 26.0714C52.9467 26.8546 52.7648 27.5099 52.6667 27.967C52.6189 28.1959 52.5868 28.3743 52.5729 28.4967C52.5567 28.6182 52.5504 28.6824 52.5552 28.6828C52.56 28.6837 52.5758 28.6209 52.6012 28.5008C52.6241 28.3802 52.6653 28.2045 52.7208 27.9783C52.8352 27.5271 53.0304 26.8799 53.3438 26.1039C53.653 25.3271 54.0774 24.4216 54.6024 23.4415C55.1321 22.4641 55.7317 21.3937 56.5295 20.3757C58.1057 18.3244 60.074 16.8832 61.644 16.1528C62.4307 15.7848 63.1165 15.5924 63.595 15.493C63.8357 15.4465 64.0233 15.4135 64.152 15.3986C64.2803 15.381 64.3473 15.3692 64.3473 15.3647Z" fill="#1A2E35"/>
<path fill-rule="evenodd" clip-rule="evenodd" d="M39.278 134.092L45.964 186.116H55.1194L54.8696 131.416L39.278 134.092Z" fill="#EAB7A7"/>
<path fill-rule="evenodd" clip-rule="evenodd" d="M66.4949 133.22L66.2996 148.081C65.2976 150.096 52.4867 172.425 52.4867 172.425L46.6381 160.997L59.6791 134.69L66.4949 133.22Z" fill="#EAB7A7"/>
<path fill-rule="evenodd" clip-rule="evenodd" d="M55.0626 140.407C55.1473 140.407 55.2158 150.435 55.2158 162.802C55.2158 175.174 55.1473 185.2 55.0626 185.2C54.9784 185.2 54.91 175.174 54.91 162.802C54.91 150.435 54.9784 140.407 55.0626 140.407Z" fill="#A78D85"/>
<path fill-rule="evenodd" clip-rule="evenodd" d="M55.435 184.814C55.435 184.814 66.0891 188.042 66.2418 189.725L45.7768 190.025L45.6586 185.412L46.4137 185.55C49.4376 186.101 52.5844 185.843 55.435 184.814Z" fill="#0C395B"/>
<path fill-rule="evenodd" clip-rule="evenodd" d="M48.0421 186.242C47.6478 186.341 47.3817 186.729 47.4803 187.072C47.5788 187.416 48.0339 187.652 48.4306 187.559C48.8264 187.466 49.1628 187.009 49.0197 186.677C48.8771 186.345 48.3249 186.093 47.9665 186.265" fill="white"/>
<path fill-rule="evenodd" clip-rule="evenodd" d="M45.777 190.025L45.8052 188.594L65.4165 188.842C65.4165 188.842 66.3339 189.171 66.242 189.725L45.777 190.025Z" fill="white"/>
<path fill-rule="evenodd" clip-rule="evenodd" d="M55.765 184.719C55.7636 184.805 55.2645 184.852 54.7783 185.136C54.2835 185.409 54.0375 185.786 53.9447 185.753C53.8523 185.738 53.9911 185.221 54.5869 184.885C55.1788 184.546 55.7851 184.64 55.765 184.719Z" fill="#1A2E35"/>
<path fill-rule="evenodd" clip-rule="evenodd" d="M57.9266 185.453C57.9515 185.536 57.5213 185.689 57.1887 186.058C56.8442 186.419 56.7662 186.814 56.6666 186.812C56.5728 186.827 56.4939 186.323 56.9174 185.871C57.3356 185.416 57.9228 185.371 57.9266 185.453Z" fill="#1A2E35"/>
<path fill-rule="evenodd" clip-rule="evenodd" d="M59.1893 187.65C59.0988 187.669 58.9514 187.241 59.1988 186.766C59.4419 186.288 59.9095 186.096 59.9535 186.167C60.0114 186.236 59.7128 186.494 59.5166 186.888C59.3099 187.276 59.2883 187.64 59.1893 187.65Z" fill="#1A2E35"/>
<path fill-rule="evenodd" clip-rule="evenodd" d="M55.5419 184.672C55.5433 184.708 55.15 184.767 54.5168 184.683C54.202 184.641 53.8302 184.558 53.4387 184.415C53.2435 184.343 53.0434 184.257 52.8448 184.154C52.7496 184.103 52.6367 184.052 52.5314 183.951C52.419 183.863 52.3515 183.636 52.4764 183.494C52.5788 183.356 52.763 183.295 52.9104 183.29C53.0611 183.284 53.1841 183.308 53.2961 183.33C53.5248 183.374 53.7397 183.437 53.9369 183.51C54.3307 183.657 54.6523 183.846 54.8925 184.03C55.3744 184.402 55.5428 184.722 55.5093 184.739C55.4643 184.768 55.2284 184.502 54.7389 184.196C54.4948 184.044 54.1838 183.888 53.8158 183.765C53.6316 183.705 53.4334 183.654 53.2243 183.617C53.0066 183.571 52.8224 183.573 52.7683 183.657C52.7487 183.689 52.7463 183.702 52.7927 183.756C52.8405 183.805 52.9295 183.854 53.0233 183.904C53.2061 184.003 53.3904 184.089 53.5698 184.163C53.9302 184.31 54.2733 184.409 54.5671 184.476C55.1562 184.608 55.5428 184.626 55.5419 184.672Z" fill="#1A2E35"/>
<path fill-rule="evenodd" clip-rule="evenodd" d="M55.414 184.798C55.3791 184.812 55.1748 184.506 55.1269 183.949C55.1044 183.672 55.1312 183.337 55.2475 182.98C55.3068 182.801 55.3891 182.619 55.4982 182.439C55.6145 182.264 55.7567 182.028 56.1433 181.984C56.3457 181.974 56.5166 182.108 56.5759 182.224C56.6463 182.343 56.6616 182.444 56.6879 182.546C56.7295 182.752 56.729 182.954 56.7003 183.141C56.6429 183.518 56.4706 183.833 56.2807 184.06C55.8892 184.523 55.4743 184.632 55.4652 184.603C55.4313 184.561 55.7763 184.389 56.0734 183.945C56.2204 183.726 56.3486 183.439 56.3816 183.11C56.3984 182.946 56.3922 182.774 56.3524 182.6C56.317 182.413 56.2323 182.263 56.1514 182.283C56.0495 182.284 55.8796 182.427 55.7988 182.578C55.6968 182.738 55.616 182.901 55.5542 183.061C55.4322 183.381 55.3824 183.687 55.3729 183.945C55.3547 184.464 55.4681 184.784 55.414 184.798Z" fill="#1A2E35"/>
<path fill-rule="evenodd" clip-rule="evenodd" d="M52.8417 39.9467C51.764 40.2366 48.9526 41.8842 45.8848 46.1067C42.8173 50.3286 42.792 58.6755 44.2051 65.6136C45.3641 71.3048 46.2188 73.3891 45.8848 76.1762C45.7144 77.598 37.418 89.4428 36.1265 96.8263L67.6203 88.5536L72.0932 47.3541L65.8784 41.8061L52.7938 37.2571L52.8417 39.9467Z" fill="#1DA49E"/>
<path fill-rule="evenodd" clip-rule="evenodd" d="M54.1908 43.379C54.1894 43.4296 53.407 43.3045 52.1857 43.5285C50.9813 43.739 49.3179 44.3966 48.0809 45.752C46.8496 47.1132 46.4146 48.7649 46.3778 49.9206C46.3299 51.094 46.5797 51.8044 46.5271 51.8135C46.5137 51.8175 46.4424 51.6455 46.3596 51.3212C46.2753 50.9974 46.1997 50.5159 46.2017 49.9166C46.1935 48.7324 46.6122 47.013 47.8918 45.5993C49.1772 44.1906 50.9133 43.538 52.1546 43.3646C52.782 43.272 53.2979 43.2688 53.6496 43.2982C54.0013 43.3257 54.1927 43.3659 54.1908 43.379Z" fill="#1A2E35"/>
<path fill-rule="evenodd" clip-rule="evenodd" d="M65.1691 44.8634C65.16 44.8774 64.9896 44.8011 64.6896 44.6511C64.3427 44.4768 63.9196 44.2636 63.4224 44.0134C62.352 43.4768 60.8628 42.7538 59.1673 42.0618C57.4709 41.3722 55.8874 40.8605 54.727 40.5357C53.5665 40.2101 52.8358 40.047 52.8439 40.01C52.8473 39.9942 53.0339 40.0181 53.3689 40.076C53.7043 40.1311 54.1848 40.2327 54.7743 40.3758C55.9535 40.6608 57.5589 41.1513 59.2664 41.8459C60.9719 42.5419 62.4563 43.2921 63.5076 43.8675C64.0335 44.1557 64.4537 44.3973 64.7389 44.5721C65.0241 44.7464 65.1777 44.8494 65.1691 44.8634Z" fill="#1A2E35"/>
<path fill-rule="evenodd" clip-rule="evenodd" d="M80.847 37.9324C80.4876 37.333 79.8559 36.857 79.1324 36.7708C78.7371 36.7238 78.3318 36.7906 77.9408 36.7197C77.5226 36.6438 77.1546 36.4162 76.7526 36.2825C76.0865 36.0608 75.3242 36.1118 74.6978 36.4189C73.7929 35.9456 72.4874 36.4361 72.1759 37.3678L75.8018 40.2827C75.998 40.7619 75.942 41.2962 75.8807 41.807C75.8195 42.3178 75.7587 42.8508 75.9472 43.3331C76.1353 43.815 76.6574 44.2238 77.1914 44.124C77.8078 44.0088 78.0906 43.3426 78.2428 42.7672C78.5184 41.7212 78.7089 40.6549 78.8113 39.5813C78.7955 40.0118 78.7821 40.4539 78.9338 40.8599C79.086 41.2664 79.4439 41.6336 79.8975 41.6806C80.3316 41.7257 80.7541 41.4638 80.9833 41.1133C81.213 40.7633 81.28 40.3396 81.2953 39.9277C81.3202 39.2394 81.2068 38.5313 80.847 37.9324Z" fill="#EAB7A7"/>
<path fill-rule="evenodd" clip-rule="evenodd" d="M47.3799 57.7231C47.5259 58.0289 54.5618 80.0325 59.6543 82.0451C59.841 82.1187 60.0233 82.186 60.2018 82.247C63.329 83.3223 66.7677 81.6684 67.7286 78.6609C69.4002 73.4331 72.8442 61.712 72.8442 53.9225L65.8403 51.0749L62.1685 64.2656C62.1685 64.2656 59.461 60.6294 59.3423 56.8289C59.2236 53.0283 56.9736 43.303 51.0517 44.3093C51.0517 44.3093 42.5242 47.5507 47.3799 57.7231Z" fill="#1DA49E"/>
<path fill-rule="evenodd" clip-rule="evenodd" d="M59.7034 72.7176C59.689 72.7226 59.6244 72.6101 59.5402 72.3938C59.455 72.1779 59.3627 71.8531 59.3043 71.443C59.1803 70.6238 59.2727 69.4531 59.7173 68.2621C60.1618 67.0711 60.7901 66.0942 61.2548 65.4068C61.7257 64.7203 62.0434 64.3143 62.0712 64.3305C62.1018 64.3486 61.8357 64.7876 61.4055 65.4931C60.9811 66.1995 60.3858 67.1777 59.9527 68.3393C59.5196 69.5001 59.4038 70.626 59.4799 71.4259C59.5469 72.2294 59.7464 72.7045 59.7034 72.7176Z" fill="#1A2E35"/>
<path fill-rule="evenodd" clip-rule="evenodd" d="M66.2091 51.2662L66.9418 47.7344C66.9418 47.7344 65.1353 44.4022 64.963 43.3715C64.7908 42.3413 64.6759 39.9322 64.6759 39.9322L66.2 38.8176L67.5739 38.4608C67.5739 38.4608 68.2056 36.6714 69.0674 36.9423C69.9293 37.2133 70.2743 37.81 70.2743 37.81C70.2743 37.81 71.3658 36.7238 72.0554 36.9143C72.745 37.1049 72.5492 37.539 72.5492 37.539C72.5492 37.539 73.2048 36.6248 73.7796 36.8918C74.3543 37.1591 74.5835 37.5932 74.5835 37.5932C74.5835 37.5932 75.6181 36.5806 76.2502 36.843C76.8824 37.1049 76.825 42.7275 76.2502 44.3362C75.6755 45.945 73.3197 49.7952 73.3197 49.7952L72.3267 53.7124L66.2091 51.2662Z" fill="#EAB7A7"/>
<path fill-rule="evenodd" clip-rule="evenodd" d="M73.3196 49.7953C73.3134 49.7917 73.3617 49.6986 73.4598 49.5225C73.5685 49.3297 73.713 49.0736 73.8948 48.7511C74.2719 48.0786 74.8328 47.104 75.4682 45.8561C75.6242 45.5435 75.7879 45.2143 75.9401 44.8647C76.0985 44.5142 76.2373 44.1502 76.3105 43.7487C76.4646 42.9457 76.5339 42.0618 76.5722 41.1287C76.6048 40.1947 76.6086 39.2033 76.5129 38.1808C76.4861 37.9256 76.4535 37.6682 76.3976 37.4171C76.3703 37.292 76.3344 37.1673 76.2841 37.0607C76.2621 37.0111 76.2234 36.9546 76.2071 36.9514C76.1755 36.9379 76.1104 36.9139 76.0549 36.9162C75.82 36.9013 75.5577 37.0242 75.3276 37.1642C75.095 37.3073 74.871 37.4844 74.6715 37.6727L74.5562 37.7816L74.4753 37.6443C74.3872 37.4966 74.2485 37.3444 74.0958 37.2247C73.9489 37.1127 73.7431 36.9763 73.5948 36.9636C73.2478 36.9456 72.8923 37.2938 72.6516 37.6045L72.141 38.2639L72.4348 37.493C72.4664 37.4103 72.4506 37.2933 72.3769 37.2161C72.3013 37.1348 72.1793 37.0729 72.0434 37.0345C71.8031 36.9623 71.5088 37.0743 71.2504 37.2161C70.9274 37.4008 70.6279 37.6397 70.3647 37.8909L70.2513 37.9988L70.1651 37.866C70.0082 37.6253 69.7593 37.4085 69.4928 37.2563C69.3578 37.1804 69.2162 37.1136 69.0669 37.0666C68.9295 37.0269 68.8085 37.0183 68.6817 37.0802C68.4333 37.2007 68.2342 37.4473 68.0782 37.698C67.9213 37.9514 67.7902 38.226 67.6882 38.497L67.6667 38.5552L67.6059 38.5706C67.1398 38.6912 66.6819 38.809 66.2316 38.9256L66.2727 38.9062C65.7506 39.2855 65.2415 39.6563 64.7457 40.0172L64.7897 39.9273C64.8299 40.757 64.8783 41.5569 64.9443 42.3174C64.9807 42.6964 65.0113 43.0721 65.0778 43.4212C65.1549 43.7627 65.2888 44.0969 65.4185 44.4158C65.9598 45.6908 66.5292 46.7873 67.0054 47.7037L67.0164 47.7254L67.0116 47.7475C66.7694 48.8455 66.5766 49.7212 66.4392 50.345C66.3718 50.6308 66.3187 50.858 66.2775 51.0324C66.2387 51.1877 66.2158 51.2677 66.2091 51.2663C66.2024 51.265 66.2129 51.1828 66.2392 51.0251C66.2708 50.8494 66.312 50.6196 66.3641 50.3314C66.4861 49.7045 66.657 48.8247 66.8714 47.7213L66.8781 47.7652C66.3833 46.8528 65.7994 45.7644 65.2396 44.4826C65.1046 44.1592 64.9663 43.8282 64.8787 43.4569C64.8055 43.0893 64.773 42.718 64.7333 42.3346C64.661 41.57 64.6069 40.7701 64.5624 39.9368L64.5591 39.8817L64.6065 39.8469C65.1003 39.4843 65.6076 39.1112 66.1277 38.7296L66.1459 38.716L66.1689 38.7101C66.6187 38.5923 67.0767 38.4726 67.5413 38.3511L67.459 38.4247C67.5681 38.1325 67.7002 37.8538 67.8682 37.581C68.0376 37.3146 68.2385 37.0382 68.5764 36.8697C68.7453 36.7816 68.9755 36.7884 69.1492 36.8467C69.3133 36.8986 69.4712 36.9718 69.6215 37.0562C69.9215 37.2315 70.1857 37.451 70.3833 37.7536L70.1843 37.7292C70.4671 37.4595 70.7705 37.2161 71.1236 37.0138C71.4036 36.8652 71.7443 36.7089 72.118 36.8105C72.2769 36.857 72.441 36.9298 72.5678 37.0648C72.6932 37.2066 72.7363 37.4049 72.6631 37.5846L72.4463 37.4731C72.587 37.2875 72.7406 37.1249 72.9267 36.9812C73.1081 36.8448 73.3392 36.708 73.6192 36.7324C73.7618 36.7423 73.8795 36.8096 73.9723 36.8593C74.0724 36.9139 74.1652 36.9785 74.2532 37.0472C74.4289 37.189 74.5758 37.3439 74.6925 37.5417L74.4963 37.5133C74.715 37.3087 74.9433 37.1289 75.1969 36.9731C75.4501 36.8259 75.7305 36.6759 76.0722 36.6922C76.1592 36.6954 76.2358 36.7152 76.3277 36.7586C76.4358 36.8245 76.4602 36.8995 76.4985 36.9668C76.5627 37.1041 76.5981 37.2378 76.6273 37.3715C76.6847 37.6375 76.7167 37.9003 76.7426 38.1605C76.8345 39.2006 76.8235 40.196 76.7837 41.1364C76.7378 42.0767 76.6603 42.9637 76.4937 43.7826C76.4143 44.194 76.2621 44.5806 76.0994 44.9275C75.9401 45.2798 75.7716 45.6086 75.6094 45.9211C74.9524 47.1649 74.3695 48.1287 73.969 48.7899C73.7723 49.1047 73.6154 49.3545 73.4976 49.5424C73.3876 49.7122 73.3263 49.7985 73.3196 49.7953Z" fill="#BF654E"/>
<path fill-rule="evenodd" clip-rule="evenodd" d="M67.2253 40.0649C67.1598 40.073 67.0607 39.6792 67.1507 39.1959C67.2378 38.7122 67.4713 38.3726 67.5302 38.401C67.5948 38.429 67.4761 38.7876 67.3962 39.2361C67.3124 39.6837 67.2961 40.059 67.2253 40.0649Z" fill="#BF654E"/>
<path fill-rule="evenodd" clip-rule="evenodd" d="M70.3148 39.1669C70.2459 39.1696 70.1765 38.8467 70.1593 38.4456C70.1425 38.045 70.1846 37.718 70.2531 37.7153C70.322 37.7126 70.3914 38.0355 70.4086 38.4361C70.4253 38.8372 70.3837 39.1642 70.3148 39.1669Z" fill="#BF654E"/>
<path fill-rule="evenodd" clip-rule="evenodd" d="M72.3467 39.3005C72.2787 39.2802 72.3682 38.8498 72.4328 38.3196C72.5003 37.7889 72.519 37.3512 72.5898 37.3458C72.6563 37.3399 72.7511 37.7907 72.6802 38.3467C72.6123 38.9031 72.4094 39.3209 72.3467 39.3005Z" fill="#BF654E"/>
<path fill-rule="evenodd" clip-rule="evenodd" d="M74.5344 39.0381C74.4664 39.0169 74.5258 38.699 74.5191 38.3119C74.5172 37.9248 74.4506 37.6082 74.5176 37.5857C74.5784 37.5608 74.7646 37.8765 74.7679 38.3096C74.7741 38.7423 74.5956 39.0616 74.5344 39.0381Z" fill="#BF654E"/>
<path fill-rule="evenodd" clip-rule="evenodd" d="M56.9503 46.6572C56.9503 46.6572 57.0092 46.7543 57.1102 46.9498C57.2145 47.1449 57.3643 47.4367 57.5251 47.8328C57.8572 48.62 58.2543 49.8227 58.4989 51.4103C58.774 52.9919 58.8573 54.9539 59.3277 57.1615C59.5718 58.2608 59.9402 59.4179 60.3977 60.613C60.8681 61.7994 61.428 63.0532 62.2458 64.2117L62.0754 64.2424C63.1555 60.3411 64.3892 55.8834 65.7281 51.0471L65.7621 50.9243L65.886 50.9749C68.1232 51.8822 70.4737 52.8361 72.8923 53.8171L72.9664 53.8473L72.9655 53.9223C72.9348 57.5549 72.3156 61.3406 71.5055 65.1759C70.7676 68.6048 69.8851 71.9181 68.9506 75.095C68.7103 75.8876 68.472 76.673 68.2361 77.4507C67.9849 78.2158 67.7939 79.0197 67.3542 79.7248C66.5115 81.1398 65.0318 82.1343 63.4398 82.4775C61.8515 82.8199 60.1398 82.5773 58.8683 81.7102C58.2534 81.2613 57.7524 80.7161 57.3121 80.1538C56.8604 79.5974 56.4732 79.0134 56.1005 78.4367C54.6448 76.1084 53.5709 73.8037 52.6244 71.695C50.7619 67.4613 49.5034 63.9466 48.6449 61.5172C48.219 60.3009 47.9027 59.3524 47.6921 58.7084C47.5897 58.3918 47.5112 58.1484 47.4552 57.9749C47.4036 57.8087 47.3796 57.7229 47.3796 57.7229C47.3796 57.7229 47.4198 57.8042 47.4797 57.9672C47.5414 58.1393 47.6275 58.3805 47.7395 58.6939C47.9706 59.3411 48.3066 60.2815 48.7368 61.4878C49.623 63.9068 50.9064 67.412 52.7866 71.6304C53.7413 73.731 54.8237 76.0281 56.2775 78.3364C56.6498 78.9073 57.0355 79.4854 57.482 80.0323C57.9175 80.586 58.4118 81.1185 59.0004 81.5449C60.1948 82.3606 61.8678 82.6026 63.3871 82.2666C64.9189 81.9333 66.3402 80.974 67.147 79.6141C67.5662 78.9439 67.7514 78.1616 68.0045 77.3871C68.239 76.6093 68.4759 75.8248 68.7151 75.0331C69.6454 71.8598 70.5249 68.5506 71.2609 65.129C72.0697 61.3031 72.6884 57.5273 72.7229 53.9223L72.7961 54.0276C70.379 53.043 68.0299 52.0864 65.7941 51.1754L65.9521 51.1027C64.5992 55.9353 63.3527 60.3899 62.2616 64.2885L62.2066 64.4845L62.0908 64.3192C61.2533 63.1223 60.7044 61.8695 60.234 60.669C59.7794 59.4631 59.4167 58.3028 59.177 57.1909C58.7176 54.9634 58.6506 53.0032 58.3922 51.4256C58.1649 49.8417 57.7863 48.6426 57.4729 47.8522C57.3207 47.4539 57.18 47.1594 57.0848 46.9616C56.9915 46.7624 56.9503 46.6572 56.9503 46.6572Z" fill="#1A2E35"/>
<path d="M43.7075 80.2784C43.7075 80.2784 35.4456 88.5562 33.5807 97.7566C31.3388 108.816 38.0957 143.832 38.0957 143.832C38.0957 143.832 42.3436 145.36 45.6589 146.196C48.89 147.011 55.8613 144.269 60.2868 143.627C64.7128 142.984 66.2996 148.081 66.2996 148.081C66.2996 148.081 68.2597 105.681 67.8582 101.718C67.4567 97.7557 67.8582 85.3585 67.8582 85.3585L43.7075 80.2784Z" fill="#0C395B"/>
<path fill-rule="evenodd" clip-rule="evenodd" d="M67.8583 85.3584C67.8621 85.3597 67.8468 85.4148 67.8123 85.5214C67.7731 85.6393 67.7209 85.7947 67.6544 85.9929C67.5061 86.4188 67.2941 87.024 67.0242 87.7977C66.4696 89.3631 65.6604 91.6263 64.6181 94.4089C63.5898 97.196 62.3044 100.495 60.8358 104.143C59.3394 107.781 57.6392 111.761 55.7112 115.883C53.7635 119.997 51.7666 123.856 49.8233 127.304C49.3194 128.157 48.8284 128.988 48.3513 129.797C48.112 130.2 47.8761 130.597 47.644 130.989C47.398 131.373 47.1564 131.751 46.9186 132.123C46.4419 132.865 45.9811 133.581 45.5375 134.271C45.0872 134.955 44.6192 135.592 44.1914 136.21C43.7564 136.823 43.3539 137.415 42.9515 137.961C42.5356 138.497 42.1432 139.003 41.7762 139.478C41.4092 139.95 41.067 140.39 40.7517 140.796C40.4315 141.197 40.1114 141.543 39.8377 141.865C39.2883 142.494 38.8581 142.986 38.5557 143.331C38.4135 143.49 38.3016 143.615 38.2178 143.709C38.1403 143.793 38.0992 143.835 38.0958 143.832C38.0925 143.83 38.1274 143.782 38.1982 143.693C38.2776 143.596 38.3829 143.466 38.5174 143.301C38.8107 142.949 39.228 142.448 39.7616 141.808C40.0291 141.483 40.3425 141.132 40.6574 140.728C40.967 140.319 41.3029 139.876 41.6633 139.4C42.0251 138.924 42.4117 138.415 42.8213 137.876C43.218 137.327 43.6147 136.734 44.0445 136.118C44.467 135.499 44.9288 134.86 45.3748 134.175C45.8131 133.485 46.2692 132.767 46.741 132.023C46.9765 131.651 47.2162 131.273 47.4593 130.888C47.6895 130.496 47.923 130.099 48.1603 129.694C48.6341 128.886 49.1212 128.055 49.6204 127.201C51.5498 123.754 53.5381 119.897 55.4834 115.787C57.409 111.671 59.1145 107.696 60.6214 104.065C62.101 100.423 63.4026 97.1318 64.4526 94.3529C65.5154 91.5784 66.3495 89.3243 66.9323 87.7683C67.2214 87.0005 67.4482 86.3999 67.6071 85.9776C67.6831 85.7825 67.743 85.6293 67.7884 85.5137C67.8305 85.4099 67.854 85.357 67.8583 85.3584Z" fill="white"/>
<path fill-rule="evenodd" clip-rule="evenodd" d="M67.6515 89.2317C67.6515 89.2398 67.5539 89.2452 67.3678 89.2484C67.1548 89.2488 66.8854 89.2493 66.5547 89.2498C66.2016 89.2507 65.7695 89.2434 65.2689 89.2186C64.7679 89.1978 64.1965 89.1797 63.5672 89.1283C62.3063 89.0533 60.8114 88.8875 59.1571 88.6712C57.5047 88.4409 55.6977 88.1306 53.8137 87.7525C50.0438 86.9915 46.6773 86.1307 44.2397 85.5196C43.0472 85.212 42.0705 84.96 41.3579 84.7762C41.0407 84.6895 40.7823 84.6195 40.5775 84.5635C40.3999 84.5125 40.3076 84.4817 40.3095 84.4736C40.3119 84.4659 40.4081 84.4813 40.5899 84.5174C40.7976 84.5621 41.0598 84.6186 41.3824 84.6877C42.0997 84.8539 43.0831 85.0811 44.2837 85.3588C46.7329 85.9288 50.1046 86.763 53.8654 87.5222C55.7456 87.8993 57.5458 88.2155 59.191 88.4571C60.8382 88.6843 62.3259 88.8663 63.5816 88.9621C64.208 89.0244 64.777 89.0537 65.2761 89.0876C65.7752 89.1246 66.2059 89.1454 66.5576 89.1581C66.8878 89.1752 67.1562 89.1897 67.3687 89.201C67.5539 89.2132 67.6515 89.2236 67.6515 89.2317Z" fill="white"/>
<path fill-rule="evenodd" clip-rule="evenodd" d="M67.5802 87.3484C67.5845 87.3484 67.5908 87.4071 67.5989 87.5218C67.6066 87.6483 67.6161 87.8172 67.629 88.0322C67.6511 88.4811 67.6803 89.1432 67.6965 89.9968C67.7133 90.8504 67.7123 91.8964 67.631 93.1091C67.5467 94.3204 67.3644 95.7011 66.9457 97.1839C66.7203 97.9205 66.4432 98.6829 66.0662 99.443C65.8661 99.8165 65.6666 100.202 65.4268 100.575C65.1885 100.947 64.9292 101.317 64.6593 101.687C63.5912 103.159 62.2814 104.688 61.8196 106.659C61.299 108.592 61.3779 110.784 60.4357 112.855C59.4643 114.919 57.5482 116.434 56.215 118.359C55.5441 119.317 55.0938 120.4 55.0417 121.517C54.9646 122.633 55.1685 123.737 55.3364 124.822C55.5106 125.905 55.6652 126.995 55.5369 128.068C55.4637 128.602 55.314 129.123 55.079 129.605C54.833 130.08 54.51 130.51 54.1377 130.886C53.3778 131.627 52.482 132.163 51.6216 132.665C50.7602 133.167 49.9161 133.641 49.1925 134.208C47.7038 135.327 47.0061 136.93 46.4103 138.327C45.8141 139.736 45.2944 141.06 44.4608 142.014C43.643 142.962 42.6993 143.593 41.8365 143.879C40.9766 144.192 40.2262 144.12 39.7726 144.002C39.5386 143.947 39.3749 143.87 39.2658 143.817C39.1557 143.766 39.1007 143.738 39.1031 143.735C39.105 143.732 39.1639 143.752 39.2768 143.795C39.3878 143.841 39.5534 143.91 39.7855 143.956C40.2358 144.057 40.9665 144.113 41.8025 143.794C42.6409 143.501 43.5597 142.87 44.3517 141.932C45.1561 140.994 45.66 139.682 46.2467 138.265C46.541 137.555 46.8621 136.809 47.298 136.075C47.5148 135.708 47.7713 135.351 48.0598 135.006C48.3532 134.666 48.6929 134.351 49.06 134.058C49.7979 133.475 50.6487 132.993 51.5058 132.488C52.3628 131.986 53.2414 131.453 53.9707 130.737C54.3282 130.375 54.634 129.963 54.8675 129.51C55.089 129.051 55.2312 128.555 55.3006 128.042C55.4221 127.009 55.2709 125.937 55.0948 124.856C54.9263 123.774 54.7167 122.656 54.7943 121.502C54.8464 120.345 55.3197 119.208 56.0059 118.231C57.3721 116.267 59.2734 114.761 60.2127 112.762C61.1315 110.76 61.065 108.577 61.5966 106.607C61.8416 105.613 62.29 104.693 62.8255 103.877C63.3572 103.055 63.9496 102.311 64.4894 101.577C64.7598 101.209 65.0186 100.844 65.2565 100.477C65.4943 100.111 65.6929 99.7325 65.8929 99.3648C66.2686 98.6178 66.5476 97.8663 66.7758 97.1391C67.2012 95.6749 67.395 94.3042 67.4917 93.0996C67.586 91.8937 67.6013 90.85 67.5999 89.9977C67.5908 89.155 67.5836 88.4965 67.5788 88.034C67.5764 87.8186 67.575 87.6496 67.5735 87.5227C67.5735 87.4076 67.5759 87.3484 67.5802 87.3484Z" fill="white"/>
<path fill-rule="evenodd" clip-rule="evenodd" d="M172.671 102.275C156.268 102.275 142.969 114.826 142.969 130.307C142.969 145.788 156.268 158.339 172.671 158.339C189.073 158.339 202.372 145.788 202.372 130.307C202.372 114.826 189.073 102.275 172.671 102.275ZM172.671 148.201C170.349 148.201 168.76 146.512 168.76 144.323C168.76 142.071 170.416 140.445 172.671 140.445C175.054 140.445 176.581 142.071 176.581 144.323C176.581 146.514 175.054 148.201 172.671 148.201ZM171.134 133.393C171.755 135.329 173.619 135.297 174.21 133.393C174.826 131.412 177.505 122.715 177.507 117.176C177.507 109.876 167.876 109.911 167.876 117.176C167.876 122.682 170.418 131.16 171.134 133.393Z" fill="#1DA49E"/>
</svg>
