<svg width="24" height="24" viewBox="0 0 24 24" fill="none" xmlns="http://www.w3.org/2000/svg">
<g clip-path="url(#clip0_198_367)">
<path d="M16.5547 17.8438V19.5625C16.5547 21.458 15.0127 23 13.1172 23H4.48047C2.58498 23 1.04297 21.458 1.04297 19.5625V4.4375C1.04297 2.54201 2.58498 1 4.48047 1H13.1172C15.0127 1 16.5547 2.54201 16.5547 4.4375V6.15625C16.5547 6.63092 16.17 7.01562 15.6953 7.01562C15.2206 7.01562 14.8359 6.63092 14.8359 6.15625V4.4375C14.8359 3.48984 14.0648 2.71875 13.1172 2.71875H4.48047C3.53281 2.71875 2.76172 3.48984 2.76172 4.4375V19.5625C2.76172 20.5102 3.53281 21.2812 4.48047 21.2812H13.1172C14.0648 21.2812 14.8359 20.5102 14.8359 19.5625V17.8438C14.8359 17.3691 15.2206 16.9844 15.6953 16.9844C16.17 16.9844 16.5547 17.3691 16.5547 17.8438ZM22.4137 10.5238L20.4893 8.59943C20.1537 8.26373 19.6095 8.26373 19.274 8.59943C18.9383 8.93495 18.9383 9.47911 19.274 9.81464L20.6428 11.1836H10.3242C9.84955 11.1836 9.46484 11.5683 9.46484 12.043C9.46484 12.5176 9.84955 12.9023 10.3242 12.9023H20.6428L19.274 14.2713C18.9383 14.6068 18.9383 15.151 19.274 15.4865C19.4418 15.6544 19.6617 15.7383 19.8816 15.7383C20.1016 15.7383 20.3215 15.6544 20.4893 15.4865L22.4137 13.5621C23.2514 12.7244 23.2514 11.3615 22.4137 10.5238Z" fill="#FF6F5B"/>
</g>
<defs>
<clipPath id="clip0_198_367">
<rect width="22" height="22" fill="white" transform="translate(1 1)"/>
</clipPath>
</defs>
</svg>
