<svg width="40" height="40" viewBox="0 0 40 40" fill="none" xmlns="http://www.w3.org/2000/svg">
<rect width="40" height="40" rx="10" fill="#E7E5FF"/>
<path d="M29.2188 23.75C29.6503 23.75 30 23.4003 30 22.9688V13.125C30 11.4018 28.5982 10 26.875 10H13.125C11.4018 10 10 11.4018 10 13.125V26.875C10 28.5982 11.4018 30 13.125 30H26.875C28.5982 30 30 28.5982 30 26.875C30 26.4435 29.6503 26.0938 29.2188 26.0938C28.7872 26.0938 28.4375 26.4435 28.4375 26.875C28.4375 27.7365 27.7365 28.4375 26.875 28.4375H23.0469V22.7344H24.855C25.2504 22.7344 25.5835 22.439 25.6308 22.0465L25.7343 21.1871C25.7901 20.722 25.4271 20.3125 24.9585 20.3125H23.0469V17.6953C23.0469 17.048 23.5715 16.5234 24.2188 16.5234H25.1953C25.6268 16.5234 25.9766 16.1737 25.9766 15.7422V14.9519C25.9766 14.5517 25.6743 14.2154 25.276 14.1748C24.8799 14.1345 24.4608 14.1016 24.2188 14.1016C23.3076 14.1016 22.3944 14.4859 21.7133 15.1559C21.0115 15.8463 20.625 16.7505 20.625 17.7022V20.3125H18.8672C18.4357 20.3125 18.0859 20.6622 18.0859 21.0938V21.9531C18.0859 22.3846 18.4357 22.7344 18.8672 22.7344H20.625V28.4375H13.125C12.2635 28.4375 11.5625 27.7365 11.5625 26.875V13.125C11.5625 12.2635 12.2635 11.5625 13.125 11.5625H26.875C27.7365 11.5625 28.4375 12.2635 28.4375 13.125V22.9688C28.4375 23.4003 28.7872 23.75 29.2188 23.75Z" fill="#0C395B"/>
</svg>
