<svg width="24" height="24" viewBox="0 0 24 24" fill="none" xmlns="http://www.w3.org/2000/svg">
<path fill-rule="evenodd" clip-rule="evenodd" d="M4.45817 9.72266H6.15625C6.63088 9.72266 7.01562 10.1074 7.01562 10.582V18.6602C7.01562 19.1348 6.63088 19.5195 6.15625 19.5195H4.4375C2.54206 19.5195 1 17.9775 1 16.082V13.1602C1 11.8901 1.69287 10.7796 2.71991 10.1844C2.74475 7.74154 3.70703 5.44855 5.43717 3.71842C7.19016 1.96542 9.52092 1 12 1C13.9342 1 15.788 1.58927 17.3611 2.7041C18.8988 3.79387 20.0559 5.30053 20.7072 7.06121C20.8719 7.50637 20.6445 8.00068 20.1994 8.16538C19.7542 8.33 19.2599 8.10265 19.0952 7.65754C18.0024 4.70348 15.1511 2.71875 12 2.71875C8.01791 2.71875 4.74503 5.8125 4.45817 9.72266ZM4.4375 17.8008H5.29688V11.4414H4.4375C3.48978 11.4414 2.71875 12.2124 2.71875 13.1602V16.082C2.71875 17.0298 3.48978 17.8008 4.4375 17.8008Z" fill="#0C395B"/>
<path fill-rule="evenodd" clip-rule="evenodd" d="M17.8438 9.72266H19.5625C21.4579 9.72266 23 11.2647 23 13.1602V16.082C23 17.9775 21.4579 19.5195 19.5625 19.5195H18.7031V19.5625C18.7031 20.9841 17.5466 22.1406 16.125 22.1406H13.5039V22.1134C13.2108 22.642 12.6473 23 12 23C11.0508 23 10.2812 22.2305 10.2812 21.2812C10.2812 20.332 11.0508 19.5625 12 19.5625C12.6473 19.5625 13.2108 19.9205 13.5039 20.4491V20.4219H16.125C16.5989 20.4219 16.9844 20.0364 16.9844 19.5625V18.6602V16.4688V10.582C16.9844 10.1074 17.3691 9.72266 17.8438 9.72266ZM19.5625 17.8008C20.5102 17.8008 21.2812 17.0297 21.2812 16.082V13.1602C21.2812 12.2124 20.5102 11.4414 19.5625 11.4414H18.7031V16.4688V17.8008H19.5625Z" fill="#0C395B"/>
</svg>
