<svg width="36" height="36" viewBox="0 0 36 36" fill="none" xmlns="http://www.w3.org/2000/svg">
<rect width="36" height="36" rx="10" fill="#FFE2DE"/>
<path d="M24.9467 11.6766C24.1743 10.9069 23.0871 10.5 21.8027 10.5C20.3991 10.5 19.1863 11.0976 18.2955 12.228C18.1921 12.3592 18.0988 12.4905 18.015 12.6188C17.9345 12.4921 17.8448 12.3626 17.745 12.2332C16.8698 11.0993 15.6431 10.5 14.1973 10.5C12.9129 10.5 11.8257 10.9069 11.0533 11.6766C10.1885 12.5386 9.75 13.7981 9.75 15.42C9.75 16.9944 10.6708 18.8834 12.4871 21.0346C13.8721 22.6751 15.5643 24.1929 16.686 25.0663C17.0729 25.3675 17.5364 25.5181 18 25.5181C18.4635 25.5181 18.9273 25.3675 19.314 25.0663C19.6872 24.7756 20.4529 24.1561 21.3862 23.2719C21.6446 23.0272 21.6556 22.6192 21.4109 22.3608C21.166 22.1023 20.7581 22.0914 20.4997 22.3361C19.6058 23.1829 18.8769 23.7728 18.522 24.0491C18.2146 24.2886 17.7854 24.2886 17.478 24.0491C16.4076 23.2158 14.7931 21.7677 13.472 20.2031C11.8804 18.3178 11.0391 16.664 11.0391 15.42C11.0391 12.419 12.7565 11.7891 14.1973 11.7891C16.6753 11.7891 17.3484 14.1692 17.377 14.2744C17.3778 14.2776 17.379 14.2805 17.3799 14.2836C17.384 14.2983 17.3887 14.3128 17.3939 14.3272C17.396 14.3332 17.3981 14.3392 17.4005 14.3452C17.4059 14.359 17.4119 14.3726 17.4182 14.3861C17.4209 14.3917 17.4236 14.3975 17.4265 14.4031C17.4335 14.4168 17.4409 14.43 17.4489 14.4432C17.4516 14.4476 17.4543 14.4522 17.4571 14.4566C17.4662 14.4712 17.4762 14.4851 17.4866 14.499C17.4883 14.5011 17.4898 14.5034 17.4914 14.5054C17.5715 14.6089 17.6831 14.6893 17.8181 14.729C18.1083 14.8141 18.4096 14.6861 18.5554 14.4363C18.5557 14.4358 18.556 14.4352 18.5564 14.4345C18.5651 14.4194 18.5732 14.4041 18.5807 14.3881C18.5831 14.3832 18.5854 14.3783 18.5876 14.3734C18.5929 14.3615 18.5978 14.3494 18.6024 14.3371C18.6063 14.3272 18.6097 14.3171 18.6129 14.3069C18.6144 14.3022 18.6163 14.2978 18.6177 14.2932C18.6197 14.2866 18.8217 13.6298 19.333 12.9943C19.9765 12.1945 20.8075 11.7891 21.8027 11.7891C23.2435 11.7891 24.9609 12.419 24.9609 15.42C24.9609 16.6222 24.1759 18.1789 22.6278 20.0467C22.4007 20.3208 22.4387 20.727 22.7128 20.9542C22.833 21.0539 22.9788 21.1025 23.1236 21.1025C23.3089 21.1025 23.4929 21.0231 23.6203 20.8693C25.3898 18.7344 26.25 16.9519 26.25 15.42C26.25 13.7981 25.8115 12.5386 24.9467 11.6766Z" fill="#FF6F5B"/>
</svg>
