<svg width="40" height="40" viewBox="0 0 40 40" fill="none" xmlns="http://www.w3.org/2000/svg">
<rect width="40" height="40" rx="10" fill="#E7E5FF"/>
<ellipse cx="20" cy="15.3808" rx="0.716146" ry="0.716146" fill="#0C395B"/>
<path fill-rule="evenodd" clip-rule="evenodd" d="M26.4818 13.5181C24.7504 11.7868 22.4485 10.8333 20 10.8333C17.5515 10.8333 15.2495 11.7868 13.5181 13.5181C11.7868 15.2495 10.8333 17.5515 10.8333 20C10.8333 22.4485 11.7868 24.7504 13.5181 26.4818C15.2495 28.2131 17.5515 29.1666 20 29.1666C21.6762 29.1666 23.3164 28.7098 24.743 27.8456C25.0814 27.6406 25.1895 27.2003 24.9845 26.862C24.7796 26.5237 24.3392 26.4156 24.001 26.6205C22.7981 27.3492 21.4146 27.7344 20 27.7344C15.7352 27.7344 12.2656 24.2647 12.2656 20C12.2656 15.7352 15.7352 12.2656 20 12.2656C24.2647 12.2656 27.7344 15.7352 27.7344 20C27.7344 21.525 27.2809 23.0094 26.4228 24.2927C26.203 24.6215 26.2914 25.0662 26.6202 25.2861C26.949 25.5059 27.3937 25.4176 27.6135 25.0888C28.6296 23.569 29.1666 21.8093 29.1666 20C29.1666 17.5515 28.2131 15.2495 26.4818 13.5181Z" fill="#7065E4"/>
<path fill-rule="evenodd" clip-rule="evenodd" d="M20 17.5293C19.6044 17.5293 19.2838 17.8499 19.2838 18.2454V24.6191C19.2838 25.0147 19.6044 25.3353 20 25.3353C20.3955 25.3353 20.7161 25.0147 20.7161 24.6191V18.2454C20.7161 17.8499 20.3955 17.5293 20 17.5293Z" fill="#0C395B"/>
</svg>
