<svg width="40" height="40" viewBox="0 0 40 40" fill="none" xmlns="http://www.w3.org/2000/svg">
<rect width="40" height="40" rx="10" fill="#D4FAFF"/>
<path fill-rule="evenodd" clip-rule="evenodd" d="M19.9977 29.9996C20.0644 29.9999 20.1306 29.9999 20.1968 29.9999C21.6916 29.9999 23.0774 29.96 24.4264 29.8779C25.7179 29.7993 26.8968 29.3531 27.8358 28.5873C28.4937 28.0509 29.0047 27.369 29.3549 26.5605C29.5262 26.1645 29.3443 25.7046 28.9484 25.5331C28.5524 25.3616 28.0925 25.5436 27.921 25.9394C27.6712 26.5162 27.3103 26.9996 26.8484 27.3763C26.1548 27.942 25.3081 28.2589 24.3315 28.3183C22.9559 28.4019 21.5401 28.4408 19.9979 28.4371C18.4598 28.441 17.0433 28.4019 15.6677 28.3183C14.6912 28.2589 13.8445 27.942 13.1508 27.3763C12.5096 26.8534 12.068 26.132 11.8384 25.232C11.6107 24.3398 11.5976 23.3819 11.5849 22.4555C11.575 21.7297 11.5646 20.8702 11.5625 20.0018C11.5646 19.1297 11.575 18.2702 11.5849 17.5443C11.5976 16.618 11.6107 15.66 11.8384 14.7679C12.068 13.8677 12.5096 13.1463 13.1508 12.6234C13.8445 12.0579 14.6912 11.741 15.6677 11.6816C17.0433 11.598 18.4595 11.5589 20.0015 11.5626C21.5399 11.5594 22.9559 11.598 24.3315 11.6816C25.3081 11.741 26.1549 12.0579 26.8484 12.6235C27.4896 13.1465 27.9312 13.8679 28.1609 14.7679C28.3885 15.66 28.4016 16.618 28.4143 17.5443C28.4242 18.2702 28.4348 19.1297 28.4367 19.9981C28.4348 20.8702 28.4242 21.7297 28.4143 22.4555C28.4085 22.8869 28.7534 23.2415 29.1849 23.2475C29.6144 23.2533 29.9709 22.9084 29.9767 22.4769C29.9867 21.7468 29.9973 20.8816 29.9992 19.9981C29.9973 19.1183 29.9867 18.2531 29.9767 17.523C29.9628 16.5055 29.9483 15.4533 29.6748 14.3815C29.3607 13.1504 28.7421 12.1514 27.8358 11.4126C26.8968 10.6469 25.7179 10.2006 24.4264 10.122C23.0177 10.0364 21.5697 9.99689 20.0015 10.0002C18.4305 9.99643 16.9817 10.0364 15.573 10.122C14.2813 10.2006 13.1024 10.6469 12.1634 11.4126C11.2573 12.1514 10.6386 13.1504 10.3244 14.3815C10.051 15.4534 10.0365 16.5055 10.0226 17.523C10.0125 18.2531 10.0021 19.1183 10 20.0018C10.0021 20.8816 10.0125 21.7468 10.0226 22.4769C10.0365 23.4945 10.051 24.5466 10.3244 25.6184C10.6386 26.8495 11.2573 27.8485 12.1634 28.5873C13.1024 29.353 14.2813 29.7993 15.5728 29.8779C16.9815 29.9636 18.43 30.0035 19.9977 29.9996ZM19.9605 15.1171C22.6529 15.1171 24.8433 17.3075 24.8433 19.9999C24.8433 22.6924 22.6529 24.8828 19.9605 24.8828C17.2682 24.8828 15.0777 22.6924 15.0777 19.9999C15.0777 17.3075 17.2682 15.1171 19.9605 15.1171ZM23.2808 19.9999C23.2808 21.8307 21.7914 23.3203 19.9605 23.3203C18.1297 23.3203 16.6402 21.8307 16.6402 19.9999C16.6402 18.1692 18.1297 16.6796 19.9605 16.6796C21.7914 16.6796 23.2808 18.1692 23.2808 19.9999ZM24.2183 14.7265C24.2183 14.0792 24.743 13.5546 25.3902 13.5546C26.0374 13.5546 26.562 14.0792 26.562 14.7265C26.562 15.3738 26.0374 15.8984 25.3902 15.8984C24.743 15.8984 24.2183 15.3738 24.2183 14.7265Z" fill="#1DA49E"/>
</svg>
