<svg width="24" height="24" viewBox="0 0 24 24" fill="none" xmlns="http://www.w3.org/2000/svg">
<path d="M7.85286 22C6.08282 22 4.64282 20.56 4.64282 18.79V7.81864C4.64282 6.04864 6.08282 4.60864 7.85286 4.60864H16.1472C17.9172 4.60864 19.3572 6.04864 19.3572 7.81864V18.79C19.3572 20.56 17.9172 22 16.1472 22H7.85286Z" fill="#8379EE"/>
<path d="M7.85282 4.60864C7.57204 4.60864 7.29965 4.64513 7.03989 4.71317C6.9502 5.09118 6.90247 5.48521 6.90247 5.89024C6.90247 8.70103 9.18918 10.9877 12 10.9877C14.8107 10.9877 17.0975 8.70103 17.0975 5.89024C17.0975 5.48521 17.0497 5.09118 16.96 4.71317C16.7003 4.64513 16.4279 4.60864 16.1471 4.60864L7.85282 4.60864Z" fill="#5546F1"/>
<path d="M14.0631 20.3426H7.85291C6.99541 20.3426 6.30029 19.6475 6.30029 18.79V7.81867C6.30029 6.96117 6.99541 6.26605 7.85291 6.26605H16.1472C17.0047 6.26605 17.6999 6.96117 17.6999 7.81867V16.7059C17.6998 17.5634 14.9206 20.3426 14.0631 20.3426Z" fill="#FFF1C2"/>
<path d="M17.0536 6.55855C16.7985 6.37472 16.4856 6.26605 16.1471 6.26605H7.85281C7.51434 6.26605 7.20141 6.37469 6.94629 6.55855C7.27461 9.05465 9.4157 10.9878 12 10.9878C14.5842 10.9878 16.7253 9.05465 17.0536 6.55855Z" fill="#FCD6A4"/>
<circle cx="12" cy="5.89027" r="3.89027" fill="#FA8B7C"/>
<path d="M12 9.78051C13.1395 9.78051 14.1645 9.29054 14.876 8.50988C10.3149 8.9109 9.3281 3.9414 10.4992 2.30023C9.09576 2.88761 8.10974 4.27371 8.10974 5.89023C8.10974 8.03879 9.85146 9.78051 12 9.78051Z" fill="#F76956"/>
<path d="M12.7683 4.91814V3.78912C12.7683 3.67658 12.677 3.58533 12.5645 3.58533H11.4355C11.3229 3.58533 11.2317 3.67658 11.2317 3.78912V4.91814C11.2317 5.03068 11.1404 5.12193 11.0279 5.12193H9.89886C9.78632 5.12193 9.69507 5.21318 9.69507 5.32572V6.45474C9.69507 6.56728 9.78632 6.65853 9.89886 6.65853H11.0279C11.1404 6.65853 11.2317 6.74978 11.2317 6.86232V7.99134C11.2317 8.10388 11.3229 8.19513 11.4355 8.19513H12.5645C12.677 8.19513 12.7683 8.10388 12.7683 7.99134V6.86232C12.7683 6.74978 12.8595 6.65853 12.9721 6.65853H14.1011C14.2136 6.65853 14.3049 6.56728 14.3049 6.45474V5.32572C14.3049 5.21318 14.2136 5.12193 14.1011 5.12193H12.9721C12.8595 5.12193 12.7683 5.03068 12.7683 4.91814Z" fill="white"/>
<path d="M15.9697 17.0599C15.1122 17.0599 14.4171 17.755 14.4171 18.6125V19.0061C14.4171 19.7443 13.8187 20.3426 13.0806 20.3426H14.0631C16.0715 20.3426 17.6998 18.7144 17.6998 16.7059V15.7234C17.6998 16.4616 17.1014 17.0599 16.3633 17.0599H15.9697V17.0599Z" fill="#FCD6A4"/>
<path d="M14.909 15.1552H9.09106C8.92923 15.1552 8.7981 15.024 8.7981 14.8622C8.7981 14.7004 8.92923 14.5693 9.09106 14.5693H14.909C15.0708 14.5693 15.2019 14.7004 15.2019 14.8622C15.2019 15.024 15.0708 15.1552 14.909 15.1552Z" fill="#4E5660"/>
<path d="M13.3893 16.6115H10.6108C10.449 16.6115 10.3179 16.4803 10.3179 16.3185C10.3179 16.1567 10.449 16.0256 10.6108 16.0256H13.3893C13.5511 16.0256 13.6823 16.1567 13.6823 16.3185C13.6823 16.4803 13.5511 16.6115 13.3893 16.6115Z" fill="#4E5660"/>
<path d="M11.4355 8.19514H12.5645C12.5748 8.19514 12.5847 8.19358 12.5946 8.19209C12.0468 7.9585 11.5949 7.61838 11.2317 7.2149V7.99135C11.2317 8.10393 11.3229 8.19514 11.4355 8.19514Z" fill="#FCF2D0"/>
<path d="M9.89886 6.65855H10.809C10.503 6.17968 10.2941 5.65023 10.1735 5.12195H9.89886C9.78632 5.12195 9.69507 5.2132 9.69507 5.32574V6.45476C9.69511 6.5673 9.78632 6.65855 9.89886 6.65855Z" fill="#FCF2D0"/>
<ellipse cx="8.63718" cy="12.9862" rx="1.24082" ry="0.988125" fill="#8EEDF8"/>
<ellipse cx="15.3628" cy="12.9862" rx="1.24082" ry="0.988125" fill="#8EEDF8"/>
<path d="M9.36035 12.3158C9.19852 12.3158 9.06738 12.1847 9.06738 12.0229V11.54C9.06738 11.3782 9.19852 11.247 9.36035 11.247C9.52219 11.247 9.65332 11.3782 9.65332 11.54V12.0229C9.65332 12.1847 9.52215 12.3158 9.36035 12.3158Z" fill="#4E5660"/>
<path d="M12 12.63C11.6486 12.63 11.3144 12.4777 11.0832 12.2124C10.9769 12.0904 10.9896 11.9053 11.1117 11.7991C11.2336 11.6927 11.4187 11.7055 11.525 11.8275C11.6449 11.9651 11.818 12.0441 12 12.0441C12.182 12.0441 12.3551 11.9651 12.475 11.8275C12.5814 11.7054 12.7664 11.6927 12.8884 11.7991C13.0104 11.9053 13.0231 12.0904 12.9169 12.2124C12.6856 12.4777 12.3515 12.63 12 12.63Z" fill="#4E5660"/>
<path d="M15.2925 12.3023C15.1307 12.3023 14.9996 12.1712 14.9996 12.0094C14.9996 11.8623 14.8799 11.7427 14.7329 11.7427C14.5859 11.7427 14.4663 11.8623 14.4663 12.0094C14.4663 12.1712 14.3352 12.3023 14.1733 12.3023C14.0115 12.3023 13.8804 12.1712 13.8804 12.0094C13.8804 11.5393 14.2628 11.1568 14.7329 11.1568C15.203 11.1568 15.5855 11.5393 15.5855 12.0094C15.5855 12.1712 15.4544 12.3023 15.2925 12.3023Z" fill="#4E5660"/>
<circle cx="8.71663" cy="17.9262" r="0.806836" fill="#8EEDF8"/>
</svg>
