<svg width="20" height="20" viewBox="0 0 20 20" fill="none" xmlns="http://www.w3.org/2000/svg">
<path fill-rule="evenodd" clip-rule="evenodd" d="M7.5 10C7.5 8.62141 8.62141 7.5 10 7.5C11.3786 7.5 12.5 8.62141 12.5 10C12.5 11.3786 11.3786 12.5 10 12.5C8.62141 12.5 7.5 11.3786 7.5 10ZM8.33332 10C8.33332 10.9192 9.08121 11.6667 10 11.6667C10.9188 11.6667 11.6667 10.9192 11.6667 10C11.6667 9.08078 10.9188 8.33332 10 8.33332C9.08121 8.33332 8.33332 9.08078 8.33332 10Z" fill="#747F9E"/>
<path fill-rule="evenodd" clip-rule="evenodd" d="M7.5 17.5C7.5 16.1214 8.62141 15 10 15C11.3786 15 12.5 16.1214 12.5 17.5C12.5 18.8786 11.3786 20 10 20C8.62141 20 7.5 18.8786 7.5 17.5ZM8.33332 17.5C8.33332 18.4192 9.08121 19.1667 10 19.1667C10.9188 19.1667 11.6667 18.4192 11.6667 17.5C11.6667 16.5808 10.9188 15.8333 10 15.8333C9.08121 15.8333 8.33332 16.5808 8.33332 17.5Z" fill="#747F9E"/>
<path fill-rule="evenodd" clip-rule="evenodd" d="M12.5 2.5C12.5 3.87859 11.3786 5 10 5C8.62141 5 7.5 3.87859 7.5 2.5C7.5 1.12141 8.62141 0 10 0C11.3786 0 12.5 1.12141 12.5 2.5ZM11.6667 2.5C11.6667 1.58078 10.9188 0.83332 10 0.83332C9.08121 0.83332 8.33332 1.58082 8.33332 2.5C8.33332 3.41918 9.08121 4.16668 10 4.16668C10.9188 4.16668 11.6667 3.41922 11.6667 2.5Z" fill="#747F9E"/>
</svg>
