<svg width="40" height="40" viewBox="0 0 40 40" fill="none" xmlns="http://www.w3.org/2000/svg">
<rect width="40" height="40" rx="10" fill="#FFE2DE"/>
<path fill-rule="evenodd" clip-rule="evenodd" d="M13.9021 29.7839C14.1489 29.9396 14.4299 30.0186 14.7131 30.0186C14.9207 30.0186 15.1291 29.9762 15.3258 29.89L17.1408 29.0892C18.0551 29.3398 19.017 29.4669 20 29.4669C22.0416 29.4669 23.9836 28.9153 25.6161 27.8716C25.9796 27.6392 26.086 27.1561 25.8536 26.7926C25.6212 26.429 25.1381 26.3226 24.7745 26.555C23.3939 27.4377 21.7427 27.9042 20 27.9042C19.151 27.9042 18.3229 27.7945 17.5365 27.5775C17.2018 27.4863 16.8425 27.5133 16.5239 27.6535L14.7543 28.4343L14.7061 26.8588C14.7061 26.8578 14.7061 26.8569 14.7061 26.8559C14.7061 26.8552 14.706 26.8546 14.706 26.8539C14.6909 26.4401 14.511 26.0577 14.1975 25.7755C12.4983 24.2554 11.5625 22.113 11.5625 19.7432C11.5625 15.0905 15.1898 11.582 20 11.582C24.8102 11.582 28.4375 15.0905 28.4375 19.7432C28.4375 21.3498 28.0006 22.8799 27.1741 24.1679C26.9409 24.5309 27.0465 25.0143 27.4095 25.2473C27.7727 25.4805 28.2559 25.3749 28.4891 25.0117C29.4775 23.4715 30 21.6496 30 19.7432C30 17.0551 28.9696 14.583 27.0988 12.7823C25.2477 11.0007 22.7266 10.0195 20 10.0195C17.2734 10.0195 14.7523 11.0007 12.9012 12.7823C11.0304 14.583 10 17.0551 10 19.7432C10 22.5597 11.1176 25.1123 13.1451 26.9304L13.1944 28.5472C13.2106 29.0521 13.4752 29.5143 13.9021 29.7839ZM18.0032 20.6836L15.0835 22.9347C14.6945 23.2291 14.1847 22.7643 14.447 22.3532L17.164 18.0464C17.5957 17.3651 18.5225 17.1948 19.1701 17.6781L21.3306 19.3182C21.5297 19.4664 21.8013 19.4646 21.9986 19.3164L24.917 17.1049C25.3059 16.8106 25.8157 17.2752 25.5534 17.6863L22.8378 21.9926C22.4062 22.6739 21.4793 22.8444 20.8318 22.3611L18.6713 20.6818C18.4721 20.5336 18.2005 20.5356 18.0032 20.6836Z" fill="#FF6F5B"/>
</svg>
