<svg width="22" height="22" viewBox="0 0 22 22" fill="none" xmlns="http://www.w3.org/2000/svg">
<g opacity="0.5">
<path d="M9.16665 6.41668C9.16665 9.96051 12.0395 12.8333 15.5833 12.8333C17.3785 12.8333 19.0016 12.0961 20.1662 10.9079C20.1666 10.9386 20.1666 10.9693 20.1666 11C20.1666 16.0626 16.0625 20.1667 11 20.1667C5.93737 20.1667 1.83331 16.0626 1.83331 11C1.83331 5.9374 5.93737 1.83334 11 1.83334C11.0307 1.83334 11.0614 1.83334 11.0921 1.83379C9.90392 2.99841 9.16665 4.62145 9.16665 6.41668ZM3.66665 11C3.66665 15.0501 6.94989 18.3333 11 18.3333C13.8034 18.3333 16.2395 16.7603 17.4735 14.4486C16.8616 14.5922 16.2282 14.6667 15.5833 14.6667C11.0269 14.6667 7.33331 10.9731 7.33331 6.41668C7.33331 5.77178 7.40787 5.13836 7.55139 4.52651C5.23975 5.76055 3.66665 8.19657 3.66665 11Z" fill="#AFAFAF"/>
</g>
</svg>
