<svg width="48" height="48" viewBox="0 0 48 48" fill="none" xmlns="http://www.w3.org/2000/svg">
<path fill-rule="evenodd" clip-rule="evenodd" d="M41.875 4C41.8877 4 41.9388 4.00086 41.9521 4.00141C43.1004 4.04219 44 4.99117 44 6.16172V40.4531C44 42.4088 42.3564 44 40.3363 44H40.3361H40.3359H7.66406C5.64367 44 4 42.4089 4 40.4531V31.068C4 30.7444 4.26234 30.482 4.58594 30.482C4.90953 30.482 5.17188 30.7444 5.17188 31.068V40.4531C5.17188 41.7627 6.28984 42.8281 7.66406 42.8281H37.6174C37.0305 42.1989 36.6727 41.3657 36.6727 40.4531V11.057C36.6727 10.5099 36.2272 10.0648 35.6797 10.0648H6.16406C5.61695 10.0648 5.17188 10.5099 5.17188 11.057V28.3336C5.17188 28.6572 4.90953 28.9195 4.58594 28.9195C4.26234 28.9195 4 28.6572 4 28.3336V11.057C4 9.86375 4.97078 8.89297 6.16406 8.89297H7.23594V6.125C7.23594 4.95328 8.18883 4 9.36016 4H28.343C28.6666 4 28.9289 4.26234 28.9289 4.58594C28.9289 4.90953 28.6666 5.17188 28.343 5.17188H9.36016C8.835 5.17188 8.40781 5.59945 8.40781 6.125V8.89297H35.6797C36.8734 8.89297 37.8445 9.86375 37.8445 11.057V34.857H38.7578C39.3049 34.857 39.75 34.412 39.75 33.8648V22.1641C39.75 21.8405 40.0123 21.5781 40.3359 21.5781C40.6595 21.5781 40.9219 21.8405 40.9219 22.1641V33.8648C40.9219 35.0581 39.9511 36.0289 38.7578 36.0289H37.8445V40.4531C37.8445 41.7627 38.9622 42.8281 40.3359 42.8281H40.3361H40.3363C41.7102 42.8281 42.8281 41.7627 42.8281 40.4531V6.16172C42.8277 5.62938 42.3866 5.17727 41.8929 5.17094C41.3629 5.16469 40.9179 5.60984 40.9219 6.125V19.4297C40.9219 19.7533 40.6595 20.0156 40.3359 20.0156C40.0123 20.0156 39.75 19.7533 39.75 19.4297V6.125C39.75 5.7825 39.8315 5.45867 39.976 5.17188H31.0773C30.7537 5.17188 30.4914 4.90953 30.4914 4.58594C30.4914 4.26234 30.7537 4 31.0773 4H41.875ZM21.1271 20.0059C21.1327 20.0338 21.1402 20.0613 21.1498 20.0882C21.2504 20.3715 21.5191 20.561 21.8194 20.561H21.8241C22.1264 20.559 22.3948 20.3654 22.4922 20.0792L22.4972 20.0638L23.6183 16.4418L24.7344 20.0647C24.7368 20.0727 24.7395 20.0806 24.7423 20.0884C24.843 20.3716 25.1116 20.561 25.4119 20.561H25.4167C25.7189 20.559 25.9873 20.3653 26.0846 20.0792C26.0929 20.0549 26.0995 20.0301 26.1045 20.0049L27.1852 14.5753C27.2483 14.258 27.0422 13.9495 26.7248 13.8862C26.4076 13.8233 26.099 14.0291 26.0358 14.3466L25.3149 17.9688L24.178 14.2783L24.1746 14.2793C24.1175 14.1048 23.98 13.9596 23.7913 13.9012C23.4821 13.8056 23.154 13.9785 23.0583 14.2877L21.9188 17.9691L21.2003 14.3371C21.1375 14.0196 20.8289 13.8131 20.5119 13.876C20.1945 13.9388 19.988 14.2471 20.0508 14.5645L21.1271 20.0059ZM10.0098 19.9752C10.0098 20.2987 9.74742 20.5611 9.42383 20.5611C9.10023 20.5611 8.83789 20.2987 8.83781 19.9751V14.461C8.83781 14.2046 9.00453 13.978 9.24937 13.9016C9.49422 13.8253 9.76016 13.917 9.90586 14.128L12.6932 18.1643L12.6573 14.4564C12.6542 14.1328 12.914 13.868 13.2376 13.8648H13.2434C13.5643 13.8648 13.826 14.1234 13.8291 14.4452L13.8808 19.7833C13.8809 20.1145 13.698 20.3819 13.4152 20.4702C13.139 20.5566 12.8464 20.4478 12.6701 20.193L10.0098 16.3407V19.9752ZM21.3167 25.0713H34.733C35.0566 25.0713 35.3189 25.3337 35.3189 25.6573C35.3189 25.9809 35.0566 26.2432 34.733 26.2432H21.3167C20.9931 26.2432 20.7308 25.9809 20.7308 25.6573C20.7308 25.3337 20.9931 25.0713 21.3167 25.0713ZM21.3167 30.1222H34.733C35.0566 30.1222 35.3189 30.3845 35.3189 30.7081C35.3189 31.0317 35.0566 31.2941 34.733 31.2941H21.3167C20.9931 31.2941 20.7308 31.0317 20.7308 30.7081C20.7308 30.3845 20.9931 30.1222 21.3167 30.1222ZM34.733 35.173H21.3167C20.9931 35.173 20.7308 35.4353 20.7308 35.7589C20.7308 36.0825 20.9931 36.3448 21.3167 36.3448H34.733C35.0566 36.3448 35.3189 36.0825 35.3189 35.7589C35.3189 35.4353 35.0566 35.173 34.733 35.173ZM34.733 41.3957H7.11133C6.78773 41.3957 6.52539 41.1334 6.52539 40.8098C6.52539 40.4862 6.78773 40.2238 7.11133 40.2238H34.733C35.0566 40.2238 35.3189 40.4862 35.3189 40.8098C35.3189 41.1334 35.0566 41.3957 34.733 41.3957ZM7.11133 38.8702C6.78773 38.8702 6.52539 38.6079 6.52539 38.2843V25.6573C6.52539 25.3337 6.78773 25.0713 7.11133 25.0713H18.16C18.4836 25.0713 18.7459 25.3337 18.7459 25.6573V38.2843C18.7459 38.6079 18.4836 38.8702 18.16 38.8702H7.11133ZM17.5741 26.2432H7.69727V37.6984H17.5741V26.2432ZM15.7724 20.5611H18.1002C18.4238 20.5611 18.6861 20.2987 18.6861 19.9752C18.6861 19.6516 18.4238 19.3892 18.1002 19.3892H16.3584V17.7989H17.9285C18.2521 17.7989 18.5145 17.5366 18.5145 17.213C18.5145 16.8894 18.2521 16.627 17.9285 16.627H16.3584V15.0368H18.1002C18.4238 15.0368 18.6861 14.7745 18.6861 14.4509C18.6861 14.1273 18.4238 13.8649 18.1002 13.8649H15.7724C15.4488 13.8649 15.1865 14.1273 15.1865 14.4509V19.9752C15.1865 20.2987 15.4488 20.5611 15.7724 20.5611ZM32.9798 18.8809C32.806 19.8545 31.8716 20.5611 30.7582 20.5611C29.8548 20.5611 28.9729 20.183 28.3988 19.5497C28.1816 19.3098 28.1998 18.9394 28.4395 18.722C28.6794 18.5047 29.0498 18.523 29.2672 18.7627C29.6227 19.155 30.1801 19.3892 30.7581 19.3892C31.3468 19.3892 31.7634 19.026 31.8261 18.6748C31.8876 18.3309 31.5992 18.0144 31.0351 17.8063C30.1815 17.4914 29.4238 17.1541 29.392 17.1399C29.3638 17.1274 29.3366 17.1126 29.3107 17.0957C28.7627 16.7384 28.4803 16.1117 28.5738 15.4601C28.6739 14.7629 29.1853 14.1945 29.9086 13.9766C31.3642 13.5382 32.5645 14.5279 32.6148 14.5702C32.8626 14.7785 32.8946 15.1481 32.6864 15.3958C32.4789 15.6427 32.1111 15.6754 31.8634 15.4694C31.8448 15.4543 31.082 14.8473 30.2466 15.0987C29.8345 15.2229 29.7508 15.5092 29.7339 15.6266C29.7074 15.8115 29.7762 15.9825 29.919 16.0916C30.0992 16.1706 30.7453 16.4503 31.4407 16.7068C32.7739 17.1986 33.1099 18.1523 32.9798 18.8809Z" fill="#2A76E7"/>
</svg>
