<svg width="44" height="44" viewBox="0 0 44 44" fill="none" xmlns="http://www.w3.org/2000/svg">
<rect width="44" height="44" rx="10" fill="#FFE2DE"/>
<path fill-rule="evenodd" clip-rule="evenodd" d="M22 12C18.3728 12 15.4324 15.0099 15.4324 18.7228V21.2128C15.4324 22.0571 15.1788 22.6384 14.5743 23.3742L14.333 23.6564L13.9923 24.0427L13.8193 24.2465C13.7931 24.2784 13.7678 24.3097 13.7427 24.3412C13.2571 24.9519 13 25.5102 13 26.1926C13 27.8121 14.9117 28.8673 17.9835 29.3286L18.4651 29.3949L18.9645 29.4517C19.0491 29.4604 19.1345 29.4687 19.2206 29.4767L19.7453 29.5194L20.2863 29.5527C20.6521 29.5717 21.0284 29.5844 21.4142 29.5908L22 29.5956L22.5858 29.5908C22.9716 29.5844 23.3479 29.5717 23.7137 29.5527L24.2547 29.5194L24.7794 29.4767C24.8655 29.4687 24.9509 29.4604 25.0355 29.4517L25.5349 29.3949L26.0165 29.3286C29.0883 28.8673 31 27.8121 31 26.1926C31 25.5102 30.7429 24.9519 30.2573 24.3412L30.0987 24.1486L29.5607 23.5344C28.8587 22.7201 28.5676 22.1174 28.5676 21.2128V18.7228C28.5676 15.0099 25.6272 12 22 12ZM22 13.826C24.642 13.826 26.7838 16.0184 26.7838 18.7228V21.2128C26.7838 22.5551 27.2059 23.508 28.0583 24.5466L28.8441 25.4574L28.8739 25.494C29.1248 25.8094 29.2162 26.008 29.2162 26.1926C29.2162 26.4212 28.8648 26.6816 28.2251 26.924L27.9717 27.0139L27.6921 27.1016L27.387 27.1864L27.057 27.2678L26.7029 27.3452C26.5809 27.3702 26.4551 27.3945 26.3255 27.418L25.9255 27.4855L25.5036 27.5474L25.0605 27.6028L24.5971 27.6514C24.5182 27.6588 24.4385 27.666 24.358 27.6728L23.8654 27.7099L23.3542 27.7385L22.8252 27.7582L22.2792 27.7683C22.1868 27.7692 22.0937 27.7696 22 27.7696L21.7208 27.7683L21.1748 27.7582L20.6458 27.7385L20.1346 27.7099L19.642 27.6728L19.1687 27.628C19.0914 27.6199 19.015 27.6115 18.9395 27.6028L18.4964 27.5474L18.0745 27.4855L17.6745 27.418C17.6097 27.4062 17.5458 27.3943 17.4829 27.3822L17.1171 27.307C17.0581 27.2941 17.0001 27.2811 16.943 27.2678L16.613 27.1864L16.3079 27.1016L16.0283 27.0139L15.7749 26.924C15.1352 26.6816 14.7838 26.4212 14.7838 26.1926C14.7838 26.008 14.8752 25.8094 15.1261 25.494L15.2383 25.3597L15.7769 24.7425C16.7396 23.6256 17.2162 22.639 17.2162 21.2128V18.7228C17.2162 16.0184 19.358 13.826 22 13.826ZM19.6851 30.2595C20.41 30.3143 21.1803 30.3425 22 30.3425C22.8197 30.3425 23.59 30.3143 24.3149 30.2595C23.9977 31.2952 23.0603 32 22 32C20.9397 32 20.0023 31.2952 19.6851 30.2595Z" fill="#FF6F5B"/>
</svg>
