<svg width="10" height="12" viewBox="0 0 10 12" fill="none" xmlns="http://www.w3.org/2000/svg">
<path d="M4.9043 2.21875C3.42349 2.21875 2.21875 3.42349 2.21875 4.9043C2.21875 6.38511 3.42349 7.58984 4.9043 7.58984C5.1544 7.58984 5.4022 7.5554 5.64082 7.48747C5.86907 7.42252 6.00142 7.18482 5.93647 6.95657C5.87148 6.72834 5.63382 6.59596 5.40555 6.66095C5.24347 6.70707 5.07482 6.73047 4.9043 6.73047C3.89735 6.73047 3.07812 5.91125 3.07812 4.9043C3.07812 3.89735 3.89735 3.07812 4.9043 3.07812C5.91125 3.07812 6.73047 3.89735 6.73047 4.9043C6.73047 5.08346 6.70469 5.26029 6.65383 5.42987C6.58566 5.65717 6.71468 5.8967 6.94198 5.96487C7.16931 6.033 7.40879 5.90405 7.47699 5.67672C7.55186 5.42701 7.58984 5.16714 7.58984 4.9043C7.58984 3.42349 6.38511 2.21875 4.9043 2.21875Z" fill="#1DA49E"/>
<path fill-rule="evenodd" clip-rule="evenodd" d="M4.90429 0.5C6.07981 0.5 7.18523 0.957531 8.01689 1.78829C8.84846 2.619 9.30719 3.72377 9.30853 4.89912C9.30769 5.75628 9.06988 6.55965 8.58147 7.35603C8.15855 8.04564 7.60913 8.64733 7.02747 9.28432C6.45712 9.90889 5.8674 10.5548 5.39641 11.2999C5.31767 11.4245 5.18056 11.5 5.0332 11.5H4.77539C4.62803 11.5 4.49091 11.4245 4.41217 11.2999C3.94119 10.5548 3.35147 9.90891 2.78112 9.28434L2.78109 9.28431C2.19944 8.64731 1.65003 8.04562 1.22711 7.35605C0.738731 6.55967 0.500899 5.75632 0.500061 4.90006C0.501415 3.72379 0.960127 2.61903 1.7917 1.78831C2.62336 0.957531 3.72875 0.5 4.90429 0.5ZM4.90429 10.4889C5.36395 9.83165 5.88574 9.26021 6.39286 8.70486L6.39296 8.70475C7.49548 7.49733 8.44765 6.45456 8.44915 4.89921C8.44692 2.94776 6.85669 1.35938 4.90429 1.35938C2.9519 1.35938 1.36167 2.94776 1.35944 4.90013C1.36094 6.4546 2.31316 7.49741 3.41571 8.70484L3.41573 8.70486L3.41575 8.70489C3.92286 9.26023 4.44466 9.83166 4.90429 10.4889Z" fill="#1DA49E"/>
</svg>
