<svg width="41" height="41" viewBox="0 0 41 41" fill="none" xmlns="http://www.w3.org/2000/svg">
<path d="M20.1731 7.58081C15.1136 7.58081 10.9974 11.697 10.9974 16.7564C10.9974 21.8159 15.1136 25.932 20.1731 25.932C21.0276 25.932 21.8742 25.8144 22.6895 25.5823C23.4694 25.3604 23.9216 24.5482 23.6996 23.7684C23.4776 22.9886 22.6656 22.5363 21.8857 22.7583C21.3319 22.9159 20.7557 22.9959 20.1731 22.9959C16.7326 22.9959 13.9336 20.1968 13.9336 16.7564C13.9336 13.316 16.7326 10.517 20.1731 10.517C23.6135 10.517 26.4125 13.316 26.4125 16.7564C26.4125 17.3686 26.3244 17.9727 26.1506 18.5521C25.9177 19.3288 26.3585 20.1472 27.1351 20.3801C27.9118 20.6128 28.7301 20.1723 28.9631 19.3956C29.2189 18.5424 29.3487 17.6545 29.3487 16.7564C29.3487 11.697 25.2325 7.58081 20.1731 7.58081Z" fill="#0C395B"/>
<path fill-rule="evenodd" clip-rule="evenodd" d="M20.173 1.70837C24.1894 1.70837 27.9662 3.27161 30.8077 6.11003C33.6489 8.9483 35.2163 12.7229 35.2208 16.7387C35.218 19.6673 34.4055 22.4122 32.7367 25.1331C31.2918 27.4893 29.4146 29.5451 27.4272 31.7215C25.4785 33.8554 23.4636 36.0621 21.8545 38.6079C21.5854 39.0336 21.117 39.2917 20.6135 39.2917H19.7326C19.2291 39.2917 18.7607 39.0336 18.4916 38.608C16.8824 36.0622 14.8675 33.8555 12.9189 31.7215L12.9188 31.7214C10.9314 29.545 9.05429 27.4893 7.60934 25.1332C5.9407 22.4122 5.12811 19.6675 5.12524 16.7419C5.12987 12.723 6.69714 8.94838 9.53835 6.1101C12.3799 3.27161 16.1566 1.70837 20.173 1.70837ZM20.173 35.837C21.7435 33.5915 23.5263 31.6391 25.259 29.7416L25.2593 29.7413C29.0262 25.6159 32.2795 22.0531 32.2846 16.739C32.277 10.0715 26.8437 4.64457 20.173 4.64457C13.5024 4.64457 8.06908 10.0715 8.06144 16.7421C8.06658 22.0533 11.32 25.6162 15.087 29.7416L15.0871 29.7416L15.0871 29.7417C16.8198 31.6391 18.6026 33.5915 20.173 35.837Z" fill="#0C395B"/>
</svg>
