<svg width="40" height="40" viewBox="0 0 40 40" fill="none" xmlns="http://www.w3.org/2000/svg">
<rect width="40" height="40" rx="10" fill="#E7E5FF"/>
<path fill-rule="evenodd" clip-rule="evenodd" d="M23.1709 21.7089L28.0682 26.7034L28.0686 26.7031C28.426 27.0806 28.4209 27.6805 28.0571 28.0516C27.6932 28.4226 27.1049 28.4278 26.7348 28.0633L21.8743 23.1078L21.8922 23.0886C19.3121 25.1973 15.5718 24.9094 13.3313 22.4297C11.0908 19.9501 11.1148 16.1249 13.3863 13.6748C15.6578 11.2246 19.4015 10.9857 21.9548 13.128C24.5081 15.2702 24.9996 19.0625 23.0797 21.8076L23.1709 21.7089ZM13.2527 18.085C13.2527 20.7413 15.3642 22.8946 17.9689 22.8946C20.5724 22.8916 22.6822 20.74 22.6851 18.085C22.6851 15.4288 20.5736 13.2755 17.9689 13.2755C15.3642 13.2755 13.2527 15.4288 13.2527 18.085Z" fill="#7065E4"/>
</svg>
