<svg width="20" height="20" viewBox="0 0 20 20" fill="none" xmlns="http://www.w3.org/2000/svg">
<path fill-rule="evenodd" clip-rule="evenodd" d="M13.1709 11.7089L18.0683 16.7034L18.0686 16.7031C18.426 17.0806 18.4209 17.6805 18.0571 18.0516C17.6932 18.4226 17.1049 18.4278 16.7348 18.0633L11.8743 13.1078L11.8922 13.0886C9.31216 15.1973 5.57178 14.9094 3.33129 12.4297C1.09079 9.95009 1.11485 6.12492 3.38634 3.67477C5.65783 1.22462 9.40153 0.985711 11.9548 3.12796C14.5081 5.2702 14.9996 9.06247 13.0797 11.8076L13.1709 11.7089ZM3.25269 8.08502C3.25269 10.7413 5.36421 12.8946 7.96892 12.8946C10.5724 12.8916 12.6822 10.74 12.6852 8.08502C12.6852 5.42877 10.5736 3.27546 7.96892 3.27546C5.36421 3.27546 3.25269 5.42877 3.25269 8.08502Z" fill="#1DA49E"/>
</svg>
