<svg width="20" height="20" viewBox="0 0 20 20" fill="none" xmlns="http://www.w3.org/2000/svg">
<path fill-rule="evenodd" clip-rule="evenodd" d="M8.30429 11.6705L1.21165 7.19081C0.958861 7.03084 0.822701 6.73787 0.863995 6.44193C0.905104 6.14561 1.11567 5.901 1.40269 5.816L18.1646 0.863616C18.2072 0.851153 18.2505 0.842225 18.2937 0.837388C18.2963 0.837202 18.2989 0.837202 18.3016 0.837202C18.3042 0.837202 18.3068 0.837202 18.3093 0.837016C18.3508 0.832738 18.3923 0.832366 18.4334 0.834598C18.4407 0.835307 18.448 0.836403 18.4552 0.837494C18.4613 0.838406 18.4674 0.839315 18.4734 0.839992C18.5078 0.844643 18.5416 0.850595 18.5751 0.859524C18.5783 0.860382 18.5815 0.860844 18.5848 0.861313C18.5887 0.861859 18.5926 0.862414 18.5965 0.863616C18.601 0.864864 18.6051 0.866753 18.6092 0.86863C18.6124 0.87011 18.6157 0.871583 18.619 0.87273C18.6503 0.883519 18.6808 0.895982 18.7107 0.910491C18.7131 0.91159 18.7155 0.912679 18.7179 0.913766C18.7296 0.919117 18.7413 0.924428 18.7524 0.930766C18.7831 0.947879 18.8121 0.967969 18.8404 0.98936C18.8443 0.992323 18.8483 0.994976 18.8523 0.997616C18.8575 1.00111 18.8627 1.00457 18.8677 1.00871C18.9023 1.03772 18.9345 1.06972 18.9641 1.10525C18.9694 1.11154 18.974 1.11826 18.9785 1.12501C18.9814 1.12923 18.9842 1.13346 18.9873 1.13761C18.9898 1.14086 18.9923 1.1441 18.9948 1.14734C19.0091 1.16596 19.0233 1.18451 19.0357 1.20495C19.0367 1.20658 19.0373 1.20826 19.0378 1.20991C19.0382 1.21147 19.0387 1.21299 19.0396 1.21443C19.0764 1.27879 19.1025 1.34855 19.1196 1.42128C19.1229 1.43504 19.1261 1.44844 19.1283 1.4622C19.141 1.53289 19.1451 1.60506 19.1367 1.67853C19.1359 1.68483 19.1345 1.69084 19.1332 1.69688C19.1321 1.70173 19.131 1.70659 19.1302 1.71164C19.1292 1.718 19.1282 1.72438 19.1272 1.73076C19.1232 1.75723 19.1192 1.78385 19.1116 1.81023L14.1592 18.5721C14.0742 18.8591 13.8292 19.0697 13.5333 19.1108C13.4983 19.1158 13.4628 19.1181 13.4282 19.1181C13.1691 19.1181 12.9248 18.986 12.784 18.763L8.30429 11.6705ZM12.5085 6.38891L15.7234 3.1737L3.44752 6.80074L8.74848 10.1486L10.2228 8.67463C10.5199 8.37719 11.0029 8.37719 11.3002 8.67463C11.5976 8.97225 11.5976 9.45458 11.3002 9.75201L9.82586 11.2263L13.1741 16.5273L16.8011 4.25108L13.5859 7.46629C13.2887 7.76391 12.8056 7.76391 12.5085 7.46629C12.2109 7.16886 12.2109 6.68653 12.5085 6.38891Z" fill="#B0B3C7"/>
</svg>
