<svg width="40" height="40" viewBox="0 0 40 40" fill="none" xmlns="http://www.w3.org/2000/svg">
<rect width="40" height="40" rx="10" fill="white"/>
<path fill-rule="evenodd" clip-rule="evenodd" d="M23.7178 24.1225C24.283 23.4419 25.1354 23.0078 26.0873 23.0078C27.7852 23.0078 29.1667 24.3892 29.1667 26.0872C29.1667 27.7853 27.7852 29.1667 26.0873 29.1667C24.3893 29.1667 23.0078 27.7853 23.0078 26.0872C23.0078 25.8535 23.034 25.6258 23.0836 25.4067L20.6838 24.2132C20.3296 24.0371 20.1853 23.6072 20.3615 23.2531C20.5376 22.8989 20.9675 22.7547 21.3216 22.9308L23.7178 24.1225ZM24.4401 26.0872C24.4401 26.9955 25.1791 27.7344 26.0873 27.7344C26.9955 27.7344 27.7344 26.9955 27.7344 26.0872C27.7344 25.179 26.9955 24.4401 26.0873 24.4401C25.4741 24.4401 24.9381 24.777 24.6546 25.2753C24.644 25.307 24.6312 25.3383 24.6159 25.369C24.6015 25.398 24.5854 25.4255 24.5678 25.4515C24.4856 25.6472 24.4401 25.862 24.4401 26.0872Z" fill="#0C395B"/>
<path fill-rule="evenodd" clip-rule="evenodd" d="M26.0873 10.8334C24.3893 10.8334 23.0079 12.2148 23.0079 13.9128C23.0079 14.1501 23.0349 14.3812 23.0859 14.6032L16.2704 18.021C15.705 17.3487 14.858 16.9206 13.9128 16.9206C12.2148 16.9206 10.8334 18.302 10.8334 20C10.8334 21.6981 12.2148 23.0795 13.9128 23.0795C14.8539 23.0795 15.6977 22.6551 16.263 21.9878L17.4193 22.5763C17.5234 22.6292 17.6343 22.6543 17.7436 22.6543C18.0045 22.6543 18.256 22.5113 18.3824 22.2628C18.5618 21.9103 18.4215 21.4792 18.069 21.2998L16.9097 20.7098C16.9637 20.4819 16.9922 20.2442 16.9922 20C16.9922 19.7598 16.9646 19.5259 16.9123 19.3014L23.7243 15.8854C24.2896 16.5615 25.1391 16.9922 26.0873 16.9922C27.7853 16.9922 29.1667 15.6108 29.1667 13.9128C29.1667 12.2148 27.7853 10.8334 26.0873 10.8334ZM13.9128 21.6472C13.0046 21.6472 12.2657 20.9083 12.2657 20C12.2657 19.0918 13.0046 18.3529 13.9128 18.3529C14.821 18.3529 15.5599 19.0918 15.5599 20C15.5599 20.9083 14.821 21.6472 13.9128 21.6472ZM24.4401 13.9128C24.4401 14.821 25.1791 15.5599 26.0873 15.5599C26.9955 15.5599 27.7344 14.821 27.7344 13.9128C27.7344 13.0046 26.9955 12.2657 26.0873 12.2657C25.1791 12.2657 24.4401 13.0046 24.4401 13.9128Z" fill="#0C395B"/>
</svg>
