<svg width="40" height="40" viewBox="0 0 40 40" fill="none" xmlns="http://www.w3.org/2000/svg">
<rect width="40" height="40" rx="10" fill="#E7E5FF"/>
<path fill-rule="evenodd" clip-rule="evenodd" d="M23.7177 24.1226C24.283 23.442 25.1353 23.0079 26.0872 23.0079C27.7852 23.0079 29.1666 24.3893 29.1666 26.0873C29.1666 27.7853 27.7852 29.1667 26.0872 29.1667C24.3892 29.1667 23.0078 27.7853 23.0078 26.0873C23.0078 25.8536 23.034 25.6258 23.0836 25.4068L20.6837 24.2132C20.3296 24.0371 20.1853 23.6073 20.3614 23.2531C20.5375 22.899 20.9674 22.7548 21.3215 22.9308L23.7177 24.1226ZM24.4401 26.0873C24.4401 26.9955 25.179 27.7344 26.0872 27.7344C26.9954 27.7344 27.7343 26.9955 27.7343 26.0873C27.7343 25.1791 26.9954 24.4402 26.0872 24.4402C25.474 24.4402 24.938 24.777 24.6545 25.2753C24.644 25.307 24.6311 25.3384 24.6158 25.3691C24.6014 25.398 24.5853 25.4255 24.5677 25.4516C24.4855 25.6473 24.4401 25.8621 24.4401 26.0873Z" fill="#0C395B"/>
<path fill-rule="evenodd" clip-rule="evenodd" d="M26.0872 10.8334C24.3892 10.8334 23.0078 12.2148 23.0078 13.9128C23.0078 14.1501 23.0348 14.3812 23.0858 14.6032L16.2703 18.021C15.705 17.3487 14.8579 16.9206 13.9127 16.9206C12.2148 16.9206 10.8333 18.302 10.8333 20C10.8333 21.6981 12.2148 23.0795 13.9127 23.0795C14.8538 23.0795 15.6977 22.6551 16.263 21.9878L17.4193 22.5763C17.5233 22.6292 17.6342 22.6543 17.7435 22.6543C18.0044 22.6543 18.2559 22.5113 18.3823 22.2628C18.5617 21.9103 18.4215 21.4792 18.0689 21.2998L16.9096 20.7098C16.9636 20.4819 16.9922 20.2442 16.9922 20C16.9922 19.7598 16.9645 19.5259 16.9122 19.3014L23.7242 15.8854C24.2895 16.5615 25.139 16.9922 26.0872 16.9922C27.7852 16.9922 29.1666 15.6108 29.1666 13.9128C29.1666 12.2148 27.7852 10.8334 26.0872 10.8334ZM13.9127 21.6472C13.0045 21.6472 12.2656 20.9083 12.2656 20C12.2656 19.0918 13.0045 18.3529 13.9127 18.3529C14.821 18.3529 15.5599 19.0918 15.5599 20C15.5599 20.9083 14.821 21.6472 13.9127 21.6472ZM24.4401 13.9128C24.4401 14.821 25.179 15.5599 26.0872 15.5599C26.9954 15.5599 27.7344 14.821 27.7344 13.9128C27.7344 13.0046 26.9954 12.2657 26.0872 12.2657C25.179 12.2657 24.4401 13.0046 24.4401 13.9128Z" fill="#0C395B"/>
</svg>
