<svg width="36" height="36" viewBox="0 0 36 36" fill="none" xmlns="http://www.w3.org/2000/svg">
<rect width="36" height="36" rx="10" fill="#E7E5FF"/>
<path d="M22.3379 25.7329C22.075 25.7329 21.8121 25.6527 21.5812 25.4918L18.1243 23.0839C18.0495 23.0317 17.949 23.0317 17.8741 23.0839L14.4173 25.4918C13.9482 25.8186 13.346 25.8127 12.8834 25.4768C12.4203 25.1406 12.2281 24.5693 12.3937 24.0213L13.6152 19.9797C13.6412 19.8934 13.6109 19.7986 13.5395 19.7436L10.2666 17.2178C9.81119 16.8663 9.63734 16.2857 9.82378 15.7389C10.0098 15.1935 10.5005 14.841 11.0742 14.841H15.1593C15.2563 14.841 15.3375 14.7864 15.3664 14.7019L16.7461 10.6474C16.9319 10.1021 17.4237 9.75 17.9993 9.75C18.5748 9.75 19.0665 10.1021 19.2523 10.6472L20.6321 14.7019C20.6608 14.7865 20.7422 14.841 20.8392 14.841H24.9262C25.4997 14.841 25.9903 15.1934 26.1762 15.7386C26.3627 16.2854 26.1888 16.8658 25.7334 17.2171L22.459 19.7436C22.3876 19.7988 22.3573 19.8936 22.3833 19.9797L22.4906 20.3348C22.5936 20.6754 22.4008 21.0351 22.0601 21.1381C21.7195 21.2409 21.3598 21.0483 21.2568 20.7077L21.1495 20.3527C20.9698 19.7577 21.1795 19.1029 21.6716 18.7232L24.9461 16.1967C24.9607 16.1854 24.9606 16.1826 24.9599 16.1719C24.9586 16.1514 24.947 16.1345 24.9423 16.1317C24.9423 16.1317 24.9379 16.13 24.9262 16.13H20.8392C20.1917 16.13 19.6181 15.723 19.4119 15.1172L18.0322 11.0626C18.0264 11.0459 18.0241 11.0388 17.9993 11.0388C17.9743 11.0388 17.9719 11.0459 17.9661 11.0629L16.5866 15.1171C16.3804 15.723 15.8068 16.13 15.1593 16.13H11.0742C11.0624 16.13 11.058 16.1317 11.058 16.1317C11.0533 16.1344 11.0417 16.1511 11.0402 16.1718C11.0395 16.183 11.0392 16.1859 11.0541 16.1975L14.3269 18.7232C14.819 19.103 15.0287 19.7577 14.849 20.3525L13.6274 24.3942C13.6224 24.4111 13.62 24.4188 13.6406 24.4337C13.6605 24.4482 13.6664 24.4441 13.6806 24.4341L17.1374 22.0263C17.6529 21.6673 18.3456 21.6673 18.8609 22.0263L22.3177 24.4342C22.332 24.4441 22.3379 24.4483 22.3578 24.4337C22.3784 24.4188 22.376 24.4111 22.371 24.3942L22.1916 23.8009C22.0886 23.4601 22.2814 23.1005 22.6221 22.9975C22.9627 22.8947 23.3224 23.0873 23.4254 23.428L23.6047 24.0213C23.7703 24.5693 23.5781 25.1406 23.115 25.4768C22.8801 25.6474 22.609 25.7329 22.3379 25.7329Z" fill="#0C395B"/>
</svg>
