<svg width="14" height="14" viewBox="0 0 14 14" fill="none" xmlns="http://www.w3.org/2000/svg">
<path d="M13.6319 5.37182C13.5446 5.09009 13.3051 4.89 13.0218 4.86335L9.17346 4.49872L7.65172 0.782018C7.53952 0.509631 7.28398 0.333313 7.00005 0.333313C6.71613 0.333313 6.46059 0.509632 6.34839 0.782655L4.82664 4.49872L0.977674 4.86335C0.694871 4.89063 0.456015 5.09009 0.368224 5.37182C0.280433 5.65355 0.36151 5.96256 0.575443 6.15734L3.48435 8.81943L2.62658 12.7622C2.56381 13.0521 2.67164 13.3518 2.90216 13.5257C3.02606 13.6191 3.17102 13.6666 3.31721 13.6666C3.44325 13.6666 3.56827 13.6312 3.68048 13.5611L7.00005 11.4908L10.3184 13.5611C10.5612 13.7136 10.8673 13.6997 11.0973 13.5257C11.328 13.3513 11.4357 13.0515 11.3729 12.7622L10.5152 8.81943L13.4241 6.15788C13.638 5.96256 13.7197 5.65408 13.6319 5.37182Z" fill="#FFC107"/>
</svg>
