<svg width="33" height="33" viewBox="0 0 33 33" fill="none" xmlns="http://www.w3.org/2000/svg">
<g opacity="0.5">
<path d="M16.5 24.75C11.9436 24.75 8.25 21.0563 8.25 16.5C8.25 11.9436 11.9436 8.25 16.5 8.25C21.0563 8.25 24.75 11.9436 24.75 16.5C24.75 21.0563 21.0563 24.75 16.5 24.75ZM16.5 22C19.5375 22 22 19.5375 22 16.5C22 13.4624 19.5375 11 16.5 11C13.4624 11 11 13.4624 11 16.5C11 19.5375 13.4624 22 16.5 22ZM15.125 1.375H17.875V5.5H15.125V1.375ZM15.125 27.5H17.875V31.625H15.125V27.5ZM4.83274 6.77728L6.77728 4.83274L9.69409 7.74956L7.74956 9.69409L4.83274 6.77728ZM23.3058 25.2505L25.2505 23.3058L28.1673 26.2228L26.2228 28.1673L23.3058 25.2505ZM26.2228 4.83274L28.1673 6.77728L25.2505 9.69409L23.3058 7.74956L26.2228 4.83274ZM7.74956 23.3058L9.69409 25.2505L6.77728 28.1673L4.83274 26.2228L7.74956 23.3058ZM31.625 15.125V17.875H27.5V15.125H31.625ZM5.5 15.125V17.875H1.375V15.125H5.5Z" fill="#AFAFAF"/>
</g>
</svg>
