<svg width="12" height="12" viewBox="0 0 12 12" fill="none" xmlns="http://www.w3.org/2000/svg">
<path d="M9.8891 2.1109C8.85027 1.07211 7.4691 0.5 6 0.5C4.5309 0.5 3.14973 1.07211 2.1109 2.1109C1.07211 3.14973 0.5 4.5309 0.5 6C0.5 7.4691 1.07211 8.85027 2.1109 9.8891C3.14973 10.9279 4.5309 11.5 6 11.5C7.00575 11.5 7.98982 11.2259 8.84584 10.7074C9.04883 10.5844 9.11371 10.3202 8.99075 10.1172C8.86782 9.91424 8.60356 9.84938 8.40062 9.97233C7.67885 10.4095 6.84874 10.6406 6 10.6406C3.44115 10.6406 1.35938 8.55885 1.35938 6C1.35938 3.44115 3.44115 1.35938 6 1.35938C8.55885 1.35938 10.6406 3.44115 10.6406 6C10.6406 6.915 10.3685 7.80563 9.85372 8.57565C9.72182 8.77292 9.77483 9.03978 9.97212 9.17167C10.1694 9.30357 10.4362 9.25054 10.5681 9.05327C11.1778 8.14143 11.5 7.08563 11.5 6C11.5 4.5309 10.9279 3.14973 9.8891 2.1109Z" fill="#1DA49E"/>
<path d="M6 2.13281C5.76269 2.13281 5.57032 2.32518 5.57032 2.5625V5.82202L3.9947 7.39764C3.82688 7.56544 3.82688 7.83749 3.9947 8.00531C4.07859 8.08921 4.18855 8.13116 4.29853 8.13116C4.40851 8.13116 4.51846 8.08921 4.60236 8.00531L6.30384 6.30383C6.38442 6.22327 6.42969 6.11395 6.42969 6V2.5625C6.42969 2.32518 6.23732 2.13281 6 2.13281Z" fill="#1DA49E"/>
</svg>
