<svg width="40" height="40" viewBox="0 0 40 40" fill="none" xmlns="http://www.w3.org/2000/svg">
<rect width="40" height="40" rx="10" fill="#FFE2DE"/>
<path d="M27.6271 14.4347L27.6172 14.3962C28.4645 13.8883 29.1487 13.0509 29.4531 12.0916C28.6593 12.5638 27.7307 12.9219 26.7968 13.1072C26.0479 12.3093 25.0488 11.8181 23.8672 11.8181C21.6026 11.8181 19.7265 13.6516 19.7265 15.9197C19.7265 16.2673 19.7552 16.6039 19.7935 16.8987C17.7995 16.7438 15.9257 16.0968 14.2122 14.9695C12.7159 13.9853 11.9093 12.9834 11.9024 12.9749C11.6827 12.6964 11.3029 12.6007 10.9778 12.7422C10.6524 12.8836 10.4632 13.2263 10.5168 13.5768C10.5354 13.6978 10.9169 16.0895 12.3584 18.1734C12.0224 18.1211 11.8219 18.0277 11.7834 18.0086C11.5045 17.8434 11.1625 17.8737 10.9088 18.076C10.6535 18.2796 10.5623 18.6264 10.664 18.9366C10.697 19.0374 11.3826 21.0364 13.8858 22.0958C13.3494 22.2505 12.8737 22.248 12.8676 22.248C12.8622 22.248 12.8569 22.2478 12.8515 22.2478C12.5209 22.2478 12.2253 22.4564 12.115 22.7692C12.0027 23.087 12.1072 23.441 12.3739 23.6472C12.4342 23.6937 13.5548 24.5452 15.376 24.9755C14.7389 25.3261 13.9869 25.5371 13.1257 25.606C11.9339 25.7012 10.9753 25.4753 10.9675 25.4734C10.5713 25.3763 10.1671 25.6003 10.0393 25.9877C9.91163 26.3752 10.1037 26.7957 10.4802 26.953C10.5929 27 13.2725 28.107 15.9376 28.107C17.7876 28.107 19.1733 27.9386 20.4301 27.5608C21.9986 27.0891 23.3302 26.2848 24.5007 25.102C24.8042 24.7953 24.8016 24.3006 24.4949 23.9971C24.1881 23.6936 23.6935 23.6962 23.39 24.003C21.3028 26.1124 18.9012 26.5447 15.9376 26.5447C15.8682 26.5447 15.7988 26.5438 15.7292 26.5419C16.5559 26.1624 17.2648 25.6212 17.8309 24.9305C18.0197 24.7 18.0612 24.3825 17.9376 24.1114C17.8142 23.8404 17.5473 23.6632 17.2496 23.6544C16.4338 23.6304 15.7133 23.4742 15.1198 23.2802C15.5604 23.0564 15.9897 22.7384 16.3283 22.2869C16.4909 22.07 16.5295 21.7844 16.4303 21.5322C16.3312 21.2799 16.1082 21.0971 15.8415 21.0492C14.5299 20.8135 13.6587 20.2855 13.0937 19.7658C13.4108 19.7493 13.7591 19.7013 14.135 19.6074C14.4105 19.5385 14.627 19.3254 14.7003 19.0509C14.7735 18.7766 14.6922 18.4839 14.4876 18.2869C13.7794 17.6046 13.2647 16.7589 12.8966 15.9612C13.025 16.0532 13.159 16.1458 13.2982 16.2384C14.8491 17.2692 17.3994 18.4978 20.7423 18.4978C20.9854 18.4978 21.2146 18.3841 21.3623 18.1911C21.5101 17.9982 21.5596 17.7468 21.4964 17.5121C21.4943 17.5045 21.2892 16.7343 21.2892 15.9197C21.2892 15.2469 21.5576 14.6115 22.0451 14.1307C22.5354 13.647 23.1825 13.3806 23.8673 13.3806C24.5596 13.3806 25.162 13.6484 25.6578 14.1765C26.0158 14.5134 26.4064 15.4119 26.4064 15.9542V16.4275C26.4064 16.444 26.4081 16.4664 26.412 16.493C26.4087 16.5229 26.4064 16.5531 26.4064 16.5837C26.4064 18.3597 26.0777 19.9408 25.4294 21.283C25.2417 21.6716 25.4046 22.1387 25.7931 22.3264C25.9027 22.3792 26.0183 22.4042 26.1323 22.4042C26.4229 22.4042 26.7016 22.2415 26.8364 21.9626C27.5879 20.4067 27.9689 18.597 27.9689 16.5837C27.9689 16.554 27.9667 16.5247 27.9635 16.4958C27.9672 16.469 27.9689 16.4458 27.9689 16.4275V15.8806C28.7715 15.3009 29.4511 14.518 30.0001 13.6931C30 13.6931 28.5598 14.3755 27.6271 14.4347Z" fill="#FF6F5B"/>
</svg>
