<svg xmlns="http://www.w3.org/2000/svg" viewBox="0 0 11 11.05"><defs><style>.cls-1{fill:#0066b2;}.cls-2{fill:#f9a533;}.cls-3{fill:#f16522;}.cls-4{fill:#e41b24;}.cls-5{fill:#f89e1c;}</style></defs><g id="Layer_2" data-name="Layer 2"><g id="Layer_1-2" data-name="Layer 1"><polygon class="cls-1" points="4.77 3.51 3.87 3.51 4.43 0.06 5.33 0.06 4.77 3.51"/><path class="cls-1" d="M3.12.06,2.26,2.43l-.1-.51h0L1.86.37A.39.39,0,0,0,1.43.06H0L0,.12A3.46,3.46,0,0,1,.94.51l.78,3h.93L4.08.06Z"/><path class="cls-1" d="M10.18,3.51H11L10.28.06H9.56a.41.41,0,0,0-.41.26L7.81,3.51h.93L8.93,3h1.14Zm-1-1.22L9.66,1l.27,1.29Z"/><path class="cls-1" d="M7.88.89,8,.15A2.64,2.64,0,0,0,7.2,0C6.75,0,5.69.19,5.69,1.14S6.94,2,6.94,2.51s-1.12.38-1.48.09l-.14.77a2.45,2.45,0,0,0,1,.2c.62,0,1.54-.32,1.54-1.18S6.62,1.41,6.62,1,7.49.68,7.88.89Z"/><path class="cls-2" d="M2.16,1.92,1.86.37A.39.39,0,0,0,1.43.06H0L0,.12A3.44,3.44,0,0,1,1.33.79,2.62,2.62,0,0,1,2.16,1.92Z"/><rect class="cls-3" x="4.01" y="4.98" width="2.97" height="5.35"/><path class="cls-4" d="M4.2,7.65A3.38,3.38,0,0,1,5.5,5a3.4,3.4,0,1,0,0,5.34A3.39,3.39,0,0,1,4.2,7.65"/><path class="cls-5" d="M11,7.65a3.4,3.4,0,0,1-5.5,2.67A3.39,3.39,0,0,0,5.5,5,3.4,3.4,0,0,1,11,7.65m-.32,2.11V9.65h0v0h-.11v0h0v.11Zm.21,0V9.62h0l0,.09,0-.09h0v.14h0v-.1l0,.08h0l0-.08v.1Z"/></g></g></svg>