<svg xmlns="http://www.w3.org/2000/svg" width="18.7" height="11.787" viewBox="0 0 18.7 11.787"><g transform="translate(-15.65 -282.65)"><path d="M16.5,11.087H1.5A1.5,1.5,0,0,1,0,9.588V8.093c.067.006.138.01.212.01a2.345,2.345,0,0,0,0-4.691c-.071,0-.142,0-.212.01V1.5A1.5,1.5,0,0,1,1.5,0h15A1.5,1.5,0,0,1,18,1.5V3.412A2.345,2.345,0,1,0,18,8.1V9.588A1.5,1.5,0,0,1,16.5,11.087Z" transform="translate(16 283)" fill="#fff"/><path d="M16.5,11.437H1.5A1.851,1.851,0,0,1-.35,9.588V8.093a.35.35,0,0,1,.114-.258.35.35,0,0,1,.267-.09c.061.005.122.008.181.008a2,2,0,0,0,0-3.991c-.06,0-.121,0-.181.008a.35.35,0,0,1-.267-.09A.35.35,0,0,1-.35,3.421V1.5A1.852,1.852,0,0,1,1.5-.35h15A1.852,1.852,0,0,1,18.35,1.5V3.412a.35.35,0,0,1-.35.35,2,2,0,1,0,0,3.991.35.35,0,0,1,.35.35V9.588A1.852,1.852,0,0,1,16.5,11.437ZM.35,8.449V9.588A1.151,1.151,0,0,0,1.5,10.737h15a1.151,1.151,0,0,0,1.15-1.149V8.43a2.7,2.7,0,0,1,0-5.345V1.5A1.152,1.152,0,0,0,16.5.35H1.5A1.151,1.151,0,0,0,.35,1.5V3.065a2.7,2.7,0,0,1,0,5.384Z" transform="translate(16 283)" fill="#da291c"/><text transform="translate(23.699 291.043)" fill="#da291c" font-size="6" font-weight="700"><tspan x="0" y="0">%</tspan></text><path d="M.35,10.5h-.7V9.8h.7Zm0-1.4h-.7V8.4h.7Zm0-1.4h-.7V7h.7Zm0-1.4h-.7V5.6h.7Zm0-1.4h-.7V4.2h.7Zm0-1.4h-.7V2.8h.7Zm0-1.4h-.7V1.4h.7ZM.35.7h-.7V0h.7Z" transform="translate(20.904 283.214)" fill="#da291c"/></g></svg>