<svg width="40" height="40" viewBox="0 0 40 40" fill="none" xmlns="http://www.w3.org/2000/svg">
<rect width="40" height="40" rx="10" fill="#E7E5FF"/>
<path fill-rule="evenodd" clip-rule="evenodd" d="M19.9959 29.8418H19.9997C21.805 29.8418 23.5779 29.3535 25.1268 28.43C25.4974 28.2089 25.6186 27.7295 25.3976 27.3589C25.1767 26.9882 24.6971 26.8669 24.3266 27.088C23.0196 27.8673 21.5233 28.2793 19.9997 28.2793H19.9962C18.5951 28.2787 17.207 27.9268 15.9819 27.2617C15.815 27.1712 15.6209 27.1445 15.4358 27.1864L12.0827 27.9492L12.8079 24.6526C12.85 24.4617 12.8189 24.2619 12.7208 24.0927C11.9626 22.7852 11.562 21.3414 11.5627 19.9174L11.5625 19.9026C11.5723 15.3024 15.3542 11.5625 19.9994 11.5625C22.2456 11.5634 24.3561 12.4341 25.9419 14.0141C27.552 15.6183 28.4383 17.7171 28.4375 19.924C28.4367 21.5921 27.9362 23.2047 26.9901 24.5874C26.7464 24.9435 26.8376 25.4297 27.1936 25.6734C27.5497 25.9171 28.0359 25.826 28.2796 25.4698C29.4043 23.8263 29.9992 21.9087 30 19.9246C30.0009 17.2992 28.9514 14.807 27.0447 12.9073C25.164 11.0336 22.6624 10.0011 19.9997 10C17.343 10 14.8373 11.0316 12.9442 12.9048C11.0468 14.7823 10.0011 17.2725 10 19.9167C10 19.922 10 19.9275 10.0002 19.933C10.0024 21.5286 10.4225 23.1378 11.2181 24.6071L10.2921 28.8164C10.2347 29.0776 10.3148 29.3501 10.5046 29.5386C10.6944 29.727 10.9676 29.8053 11.2283 29.7461L15.502 28.774C16.8884 29.4728 18.4355 29.8412 19.9959 29.8418ZM17.2787 15.5469C17.4417 15.5534 17.6221 15.5664 17.7934 15.946H17.7933C17.9114 16.2079 18.1091 16.698 18.2653 17.0852C18.378 17.3647 18.4691 17.5905 18.493 17.6382C18.5501 17.7524 18.5883 17.8854 18.512 18.0376C18.4965 18.0685 18.4828 18.0971 18.4698 18.1241C18.4192 18.2299 18.38 18.3118 18.289 18.4178C18.1746 18.5509 18.0356 18.6905 17.9329 18.7926C17.8181 18.9062 17.699 19.0298 17.8325 19.2578C17.966 19.4861 18.4378 20.2567 19.1179 20.8611C19.8523 21.5137 20.4846 21.7908 20.8034 21.9305C20.864 21.9571 20.9132 21.9787 20.9497 21.9969C21.1784 22.1109 21.3119 22.092 21.4453 21.9395C21.5788 21.7876 22.028 21.2604 22.1806 21.0324C22.3332 20.8041 22.4857 20.8421 22.6953 20.9181C22.8909 20.989 23.8797 21.4821 24.1974 21.6405C24.2202 21.6519 24.2396 21.6615 24.2549 21.6692C24.2995 21.6914 24.3412 21.7114 24.3798 21.73C24.5395 21.8068 24.6474 21.8587 24.6933 21.9351C24.7505 22.0305 24.7505 22.4867 24.5598 23.0189C24.3694 23.5513 23.4354 24.0648 23.0159 24.1026C22.9756 24.1063 22.9356 24.111 22.8944 24.1158C22.5068 24.1614 22.0178 24.2189 20.2711 23.5324C18.123 22.688 16.7063 20.5958 16.4131 20.1628C16.389 20.1272 16.3725 20.1028 16.3638 20.0912L16.3614 20.0879C16.2382 19.9239 15.4298 18.8472 15.4298 17.7333C15.4298 16.6835 15.9475 16.1332 16.1857 15.8799C16.202 15.8626 16.217 15.8467 16.2305 15.8321C16.44 15.6039 16.6878 15.5469 16.8404 15.5469H17.2787Z" fill="#0C395B"/>
</svg>
