<svg width="20" height="24" viewBox="0 0 20 24" fill="none" xmlns="http://www.w3.org/2000/svg">
<path d="M9.84054 4.99768C7.37252 4.99768 5.36462 7.22867 5.36462 9.97092C5.36462 12.7132 7.37252 14.9441 9.84054 14.9441C10.2574 14.9441 10.6704 14.8804 11.0681 14.7546C11.4485 14.6343 11.6691 14.1941 11.5608 13.7714C11.4525 13.3488 11.0564 13.1036 10.676 13.224C10.4058 13.3094 10.1247 13.3527 9.84054 13.3527C8.16228 13.3527 6.79692 11.8356 6.79692 9.97092C6.79692 8.10619 8.16228 6.58912 9.84054 6.58912C11.5188 6.58912 12.8842 8.10619 12.8842 9.97092C12.8842 10.3027 12.8412 10.6302 12.7564 10.9442C12.6428 11.3651 12.8578 11.8087 13.2367 11.9349C13.6156 12.0611 14.0147 11.8223 14.1284 11.4013C14.2531 10.9389 14.3164 10.4577 14.3164 9.97092C14.3164 7.22867 12.3086 4.99768 9.84054 4.99768Z" fill="white"/>
<path fill-rule="evenodd" clip-rule="evenodd" d="M9.84051 1.81482C11.7997 1.81482 13.6421 2.6621 15.0282 4.20054C16.4141 5.7389 17.1787 7.78477 17.1809 9.96134C17.1795 11.5487 16.7831 13.0364 15.9691 14.5112C15.2643 15.7882 14.3486 16.9025 13.3791 18.0821C12.4286 19.2387 11.4457 20.4347 10.6607 21.8146C10.5295 22.0453 10.301 22.1852 10.0554 22.1852H9.62567C9.38006 22.1852 9.15154 22.0453 9.02031 21.8146C8.23534 20.4348 7.25247 19.2387 6.30189 18.0821L6.30183 18.082C5.33241 16.9024 4.41673 15.7882 3.71188 14.5112C2.89791 13.0364 2.50152 11.5488 2.50012 9.96309C2.50238 7.78481 3.2669 5.73894 4.65286 4.20058C6.03896 2.6621 7.88128 1.81482 9.84051 1.81482ZM9.84051 20.3127C10.6066 19.0957 11.4763 18.0374 12.3215 17.009L12.3216 17.0088C14.1591 14.7728 15.7461 12.8418 15.7486 9.96149C15.7449 6.3477 13.0945 3.40625 9.84051 3.40625C6.58652 3.40625 3.93614 6.3477 3.93241 9.96321C3.93492 12.8419 5.52195 14.773 7.35954 17.009L7.35957 17.009L7.3596 17.009C8.20478 18.0375 9.07446 19.0957 9.84051 20.3127Z" fill="white"/>
</svg>
