<svg width="327" height="255" viewBox="0 0 327 255" fill="none" xmlns="http://www.w3.org/2000/svg">
<path d="M327 225.024H0V225.187H327V225.024Z" fill="#E0E0E0"/>
<path d="M112.704 228.974H105.85V229.137H112.704V228.974Z" fill="#E0E0E0"/>
<path d="M304.888 233.264H280.076V233.428H304.888V233.264Z" fill="#E0E0E0"/>
<path d="M227.592 229.052H207.54V229.216H227.592V229.052Z" fill="#E0E0E0"/>
<path d="M158.575 232.78H123.678V232.944H158.575V232.78Z" fill="#E0E0E0"/>
<path d="M91.3442 231.747H79.3498V231.91H91.3442V231.747Z" fill="#E0E0E0"/>
<path d="M276.917 233.264H266.937V233.428H276.917V233.264Z" fill="#E0E0E0"/>
<path d="M75.537 231.668H42.4642V231.832H75.537V231.668Z" fill="#E0E0E0"/>
<path d="M154.998 195.855H28.7171C27.7279 195.854 26.7797 195.459 26.0808 194.759C25.3819 194.059 24.9893 193.11 24.9893 192.121V14.6058C24.9979 13.6222 25.3943 12.6817 26.0923 11.9886C26.7902 11.2956 27.7335 10.9059 28.7171 10.9042H154.998C155.988 10.9042 156.938 11.2976 157.639 11.9979C158.339 12.6983 158.732 13.6481 158.732 14.6385V192.121C158.732 193.111 158.339 194.061 157.639 194.762C156.938 195.462 155.988 195.855 154.998 195.855ZM28.7171 11.035C27.7712 11.0367 26.8646 11.4137 26.1964 12.0832C25.5281 12.7526 25.1528 13.6599 25.1528 14.6058V192.121C25.1528 193.067 25.5281 193.974 26.1964 194.644C26.8646 195.313 27.7712 195.69 28.7171 195.692H154.998C155.945 195.69 156.852 195.313 157.521 194.644C158.19 193.975 158.567 193.068 158.569 192.121V14.6058C158.567 13.6593 158.19 12.752 157.521 12.0828C156.852 11.4135 155.945 11.0367 154.998 11.035H28.7171Z" fill="#E0E0E0"/>
<path d="M296.465 195.855H170.177C169.187 195.854 168.239 195.46 167.539 194.76C166.839 194.06 166.445 193.111 166.443 192.121V14.6058C166.453 13.6216 166.851 12.6811 167.55 11.9882C168.249 11.2953 169.193 10.9058 170.177 10.9042H296.465C297.447 10.9076 298.389 11.298 299.085 11.9909C299.782 12.6838 300.177 13.6233 300.186 14.6058V192.121C300.186 193.109 299.794 194.057 299.097 194.757C298.399 195.457 297.453 195.852 296.465 195.855ZM170.177 11.035C169.231 11.0367 168.324 11.4135 167.654 12.0828C166.985 12.752 166.608 13.6593 166.607 14.6058V192.121C166.608 193.068 166.985 193.975 167.654 194.644C168.324 195.313 169.231 195.69 170.177 195.692H296.465C297.411 195.69 298.319 195.313 298.988 194.644C299.657 193.975 300.034 193.068 300.036 192.121V14.6058C300.034 13.6593 299.657 12.752 298.988 12.0828C298.319 11.4135 297.411 11.0367 296.465 11.035H170.177Z" fill="#E0E0E0"/>
<path d="M126.66 52.1781H48.4679V225.102H126.66V52.1781Z" fill="#E6E6E6"/>
<path d="M126.66 52.1781H52.1761V225.102H126.66V52.1781Z" fill="#F5F5F5"/>
<path d="M122.736 221.185L122.736 56.1086L56.1001 56.1086L56.1001 221.185H122.736Z" fill="#F0F0F0"/>
<path d="M122.736 221.178L122.736 56.1021H121.716L121.716 221.178H122.736Z" fill="#E6E6E6"/>
<path d="M113.835 134.837C115.681 134.837 117.177 133.341 117.177 131.495C117.177 129.65 115.681 128.153 113.835 128.153C111.99 128.153 110.493 129.65 110.493 131.495C110.493 133.341 111.99 134.837 113.835 134.837Z" fill="#E6E6E6"/>
<path d="M115.143 134.144C116.989 134.144 118.485 132.648 118.485 130.802C118.485 128.956 116.989 127.46 115.143 127.46C113.298 127.46 111.801 128.956 111.801 130.802C111.801 132.648 113.298 134.144 115.143 134.144Z" fill="#FAFAFA"/>
<path d="M291.194 33.7549H238.265V133.176H291.194V33.7549Z" fill="#E0E0E0"/>
<path d="M293.456 33.7549H240.528V133.176H293.456V33.7549Z" fill="#F5F5F5"/>
<path d="M289.395 128.801V38.1302H244.583V128.801H289.395Z" fill="#FAFAFA"/>
<path d="M289.402 128.801V38.1302H287.695V128.801H289.402Z" fill="#E0E0E0"/>
<path d="M291.782 102.543H242.209V108.416H291.782V102.543Z" fill="#F5F5F5"/>
<path d="M225.931 33.7549H173.003V133.176H225.931V33.7549Z" fill="#E0E0E0"/>
<path d="M228.187 33.7549H175.259V133.176H228.187V33.7549Z" fill="#F5F5F5"/>
<path d="M224.132 128.794V38.1237H179.32V128.794H224.132Z" fill="#FAFAFA"/>
<path d="M224.132 128.801V38.1301H222.425V128.801H224.132Z" fill="#E0E0E0"/>
<path d="M226.513 102.543H176.94V108.416H226.513V102.543Z" fill="#F5F5F5"/>
<path d="M104.313 44.572L103.718 45.1672H74.5168V33.7549L104.313 44.572Z" fill="#E0E0E0"/>
<path d="M75.6482 44.572H104.313L103.188 33.7549H74.5168L75.6482 44.572Z" fill="#F5F5F5"/>
<path d="M134.26 137.676H146.62V125.315H134.26V137.676Z" fill="#EBEBEB"/>
<path d="M134.266 125.315H133.848V137.676H134.266V125.315Z" fill="#E0E0E0"/>
<path d="M145.469 135.321L145.025 135.766H135.829V127.29L145.469 135.321Z" fill="#E0E0E0"/>
<path d="M136.666 135.321H145.469L144.639 127.29H135.829L136.666 135.321Z" fill="#FAFAFA"/>
<path d="M151.918 153.875L158.131 148.264L164.337 153.875V225.187H151.918V153.875Z" fill="#F0F0F0"/>
<path d="M173.441 153.875L179.647 148.264L185.86 153.875V225.187H173.441V153.875Z" fill="#F0F0F0"/>
<path d="M194.957 153.875L201.17 148.264L207.377 153.875V225.187H194.957V153.875Z" fill="#F0F0F0"/>
<path d="M216.481 153.875L222.687 148.264L228.893 153.875V225.187H216.481V153.875Z" fill="#F0F0F0"/>
<path d="M237.997 153.875L244.21 148.264L250.417 153.875V225.187H237.997V153.875Z" fill="#F0F0F0"/>
<path d="M259.52 153.875L265.727 148.264L271.933 153.875V225.187H259.52V153.875Z" fill="#F0F0F0"/>
<path d="M281.037 153.875L287.25 148.264L293.456 153.875V225.187H281.037V153.875Z" fill="#F0F0F0"/>
<path d="M158.124 167.413L287.243 167.413V164.247L158.124 164.247V167.413Z" fill="#F0F0F0"/>
<path d="M158.124 204.874L287.243 204.874V201.709L158.124 201.709V204.874Z" fill="#F0F0F0"/>
<path d="M163.5 254.559C233.532 254.559 290.304 251.244 290.304 247.155C290.304 243.066 233.532 239.752 163.5 239.752C93.4681 239.752 36.6959 243.066 36.6959 247.155C36.6959 251.244 93.4681 254.559 163.5 254.559Z" fill="#F5F5F5"/>
<path d="M230.169 99.0568L230.515 99.3511L230.927 99.6781C231.202 99.9004 231.496 100.123 231.784 100.332C232.373 100.757 232.974 101.176 233.602 101.555C234.847 102.342 236.142 103.046 237.48 103.661C238.826 104.265 240.203 104.793 241.607 105.244C242.32 105.433 243.02 105.669 243.746 105.813L244.831 106.048H244.962C244.962 106.048 244.962 106.048 244.93 106.048C244.864 106.12 244.897 106.048 244.93 106.048C245.063 105.905 245.169 105.739 245.243 105.558C245.496 104.981 245.674 104.374 245.773 103.752C246.006 102.292 246.126 100.817 246.133 99.338C246.133 97.8142 246.133 96.2642 246.041 94.7142C245.95 93.1642 245.852 91.5881 245.721 90.0512L248.01 89.6392C248.802 92.7863 249.335 95.9928 249.606 99.2268C249.759 100.911 249.759 102.605 249.606 104.289C249.515 105.241 249.309 106.179 248.991 107.081C248.787 107.643 248.498 108.17 248.134 108.644C247.661 109.27 247.015 109.745 246.277 110.011C245.711 110.212 245.109 110.288 244.511 110.234L244.243 110.201H244.086L242.837 109.998C242 109.874 241.182 109.652 240.352 109.475C238.713 109.058 237.108 108.518 235.551 107.86C233.992 107.197 232.484 106.421 231.039 105.538C230.313 105.1 229.613 104.616 228.92 104.112C228.573 103.857 228.233 103.596 227.893 103.321C227.723 103.183 227.559 103.04 227.389 102.889C227.219 102.739 227.069 102.608 226.846 102.399L230.169 99.0568Z" fill="#9F5B53"/>
<path d="M223.609 96.31C230.234 95.4075 235.584 100.764 235.584 100.764L230.64 109.174C230.64 109.174 223.014 105.963 221.863 103.118C220.673 100.175 220.208 96.7678 223.609 96.31Z" fill="#407BFF"/>
<path opacity="0.3" d="M223.609 96.31C230.234 95.4075 235.584 100.764 235.584 100.764L230.64 109.174C230.64 109.174 223.014 105.963 221.863 103.118C220.673 100.175 220.208 96.7678 223.609 96.31Z" fill="black"/>
<path d="M246.342 91.2873L242.712 87.9388L248.095 85.8395C248.095 85.8395 249.802 88.7171 248.422 91.5947L246.342 91.2873Z" fill="#9F5B53"/>
<path d="M241.98 83.1384L246.264 82.3209L248.095 85.8394L242.712 87.9388L241.98 83.1384Z" fill="#9F5B53"/>
<path d="M200.124 242.139L205.461 242.662L211.02 229.955L205.683 229.432L200.124 242.139Z" fill="#9F5B53"/>
<path d="M165.743 223.356L169.752 227.123L178.405 217.607L174.396 213.847L165.743 223.356Z" fill="#9F5B53"/>
<path d="M171.603 225.318L168.588 219.89C168.538 219.796 168.455 219.723 168.355 219.686C168.255 219.649 168.145 219.649 168.045 219.687L163.408 221.453C163.293 221.501 163.189 221.572 163.103 221.663C163.018 221.754 162.952 221.862 162.912 221.98C162.871 222.098 162.855 222.224 162.867 222.348C162.878 222.473 162.915 222.593 162.977 222.702C164.062 224.579 164.677 225.429 165.998 227.816C166.816 229.281 168.405 232.649 169.53 234.677C170.655 236.704 172.721 235.704 172.434 234.755C171.126 230.517 171.387 228.156 171.78 226.286C171.835 225.953 171.773 225.61 171.603 225.318Z" fill="#263238"/>
<path d="M206.173 241.014H199.633C199.516 241.016 199.402 241.055 199.308 241.127C199.215 241.199 199.148 241.299 199.117 241.413L197.691 246.599C197.656 246.722 197.65 246.851 197.675 246.976C197.699 247.102 197.753 247.219 197.831 247.32C197.909 247.421 198.01 247.502 198.126 247.556C198.241 247.61 198.368 247.636 198.496 247.633C200.804 247.633 201.896 247.633 204.78 247.633H213.59C215.99 247.633 216.487 245.213 215.5 245.017C211.052 244.036 208.489 242.675 207.122 241.387C206.867 241.143 206.526 241.009 206.173 241.014Z" fill="#263238"/>
<path d="M211.013 229.961L208.155 236.508H202.583L205.676 229.438L211.013 229.961Z" fill="#8A4743"/>
<path d="M174.389 213.847L178.405 217.614L173.938 222.512L169.929 218.745L174.389 213.847Z" fill="#8A4743"/>
<path d="M229.279 96.9248C229.279 96.9248 231.673 97.9843 223.629 129.834L201.269 127.872C202.433 118.801 202.93 113.19 200.189 94.1388C203.377 93.7666 206.588 93.6245 209.797 93.7136C213.197 93.7718 216.589 94.0734 219.947 94.6162C223.094 95.229 226.209 95.9995 229.279 96.9248Z" fill="#407BFF"/>
<path opacity="0.3" d="M229.279 96.9248C229.279 96.9248 231.673 97.9843 223.629 129.834L201.269 127.872C202.433 118.801 202.93 113.19 200.189 94.1388C203.377 93.7666 206.588 93.6245 209.797 93.7136C213.197 93.7718 216.589 94.0734 219.947 94.6162C223.094 95.229 226.209 95.9995 229.279 96.9248Z" fill="black"/>
<path d="M209.797 93.7398C209.797 93.7398 208.528 93.6024 207.03 93.6024C206.128 94.9954 208.868 100.286 213.708 104.263C214.792 102.433 216.168 100.794 217.782 99.4099L209.797 93.7398Z" fill="#FAFAFA"/>
<path d="M219.947 94.6161C220.594 94.6567 221.236 94.7596 221.863 94.9235C222.765 96.3165 224.512 101.241 221.863 104.263C220.779 102.433 219.402 100.794 217.789 99.4099L219.947 94.6161Z" fill="#FAFAFA"/>
<path d="M218.508 102.955C218.508 103.354 218.397 103.681 218.207 103.694C218.017 103.707 217.854 103.386 217.828 102.994C217.802 102.601 217.939 102.261 218.129 102.255C218.318 102.248 218.488 102.556 218.508 102.955Z" fill="#FAFAFA"/>
<path d="M218.436 105.983C218.436 106.375 218.266 106.696 218.076 106.696C217.887 106.696 217.749 106.362 217.756 105.963C217.762 105.564 217.926 105.25 218.116 105.25C218.305 105.25 218.469 105.584 218.436 105.983Z" fill="#FAFAFA"/>
<path d="M211.791 82.3928C212.151 85.7151 212.269 91.7581 209.829 93.7397C212.223 95.9664 214.897 97.8725 217.782 99.4099C221.667 96.7285 219.947 94.6161 219.947 94.6161C216.382 93.4323 216.709 90.7379 217.56 88.2527L211.791 82.3928Z" fill="#9F5B53"/>
<path d="M214.146 84.8062L217.56 88.2724C217.353 88.8489 217.196 89.4418 217.089 90.0447C215.715 89.7242 213.727 88.2985 213.708 86.827C213.73 86.1324 213.879 85.4477 214.146 84.8062Z" fill="#8A4743"/>
<path d="M218.318 72.5502C218.318 72.5502 221.941 76.108 222.739 77.8411C224.937 78.6586 224.342 72.8707 222.674 69.5222C219.744 72.1317 218.318 72.5502 218.318 72.5502Z" fill="#263238"/>
<path d="M208.868 77.2001C210.254 82.5106 210.725 84.7865 213.982 87.0101C218.874 90.352 225.1 87.4875 225.316 81.8762C225.525 76.8208 223.223 68.9924 217.547 67.8937C216.296 67.6429 215.002 67.7163 213.788 68.1069C212.574 68.4974 211.48 69.1921 210.61 70.1249C209.74 71.0576 209.123 72.1974 208.819 73.4359C208.514 74.6743 208.531 75.9701 208.868 77.2001Z" fill="#9F5B53"/>
<path d="M220.908 70.4181C223.341 70.7778 225.767 68.5019 221.83 66.0625C223.092 65.9317 224.446 61.4845 219.868 61.7265C219.646 59.6141 215.114 57.7305 212.674 61.0725C209.856 59.2151 205.853 61.1117 206.749 63.9959C203.512 64.1986 201.824 68.6196 204.499 69.339C201.282 71.301 200.719 74.4729 203.845 75.0485C204.277 78.7174 211.464 77.0759 210.908 73.662C212.216 74.3618 216.324 72.8576 215.486 71.046C216.814 72.7529 220.908 71.9747 220.908 70.4181Z" fill="#263238"/>
<path d="M206.01 75.0878C206.01 75.0878 208.678 79.4042 209.031 81.2811C210.993 82.5891 211.785 76.8405 210.993 73.1912C207.481 74.9962 206.01 75.0878 206.01 75.0878Z" fill="#263238"/>
<path d="M208.43 81.994C208.926 82.9322 209.772 83.6371 210.784 83.956C212.131 84.3549 212.831 83.1581 212.485 81.8763C212.164 80.7187 211.085 79.1164 209.725 79.2603C209.427 79.3007 209.144 79.4148 208.902 79.5922C208.659 79.7696 208.465 80.0047 208.336 80.2762C208.208 80.5477 208.149 80.847 208.165 81.1469C208.182 81.4469 208.272 81.738 208.43 81.994Z" fill="#9F5B53"/>
<path d="M223.629 129.834C223.629 129.834 231.196 163.299 226.14 186.889C222.759 202.69 210.562 234.631 210.562 234.631L201.027 234.382C201.027 234.382 210.261 200.885 212.145 187.713C215.415 165.176 207.226 128.434 207.226 128.434L223.629 129.834Z" fill="#407BFF"/>
<path opacity="0.6" d="M223.629 129.834C223.629 129.834 231.196 163.299 226.14 186.889C222.759 202.69 210.562 234.631 210.562 234.631L201.027 234.382C201.027 234.382 210.261 200.885 212.145 187.713C215.415 165.176 207.226 128.434 207.226 128.434L223.629 129.834Z" fill="#FAFAFA"/>
<path d="M214.904 136.59L210.137 144.111C211.572 153.029 212.483 162.024 212.864 171.049C219.567 159.042 216.396 142.947 214.904 136.59Z" fill="#407BFF"/>
<path opacity="0.4" d="M214.904 136.59L210.137 144.111C211.572 153.029 212.483 162.024 212.864 171.049C219.567 159.042 216.396 142.947 214.904 136.59Z" fill="#FAFAFA"/>
<path d="M211.909 235.102L200.124 234.808L200.811 231.184L213.668 231.793L211.909 235.102Z" fill="#407BFF"/>
<path opacity="0.3" d="M211.909 235.102L200.124 234.808L200.811 231.184L213.668 231.793L211.909 235.102Z" fill="black"/>
<path d="M218.737 129.474C218.737 129.474 214.303 164.967 204.682 184.338C196.913 199.989 176.175 222.27 176.175 222.27L170.877 216.81C170.877 216.81 184.879 192.612 190.654 182.2C204.813 156.694 193.27 137.257 201.269 127.918L218.737 129.474Z" fill="#407BFF"/>
<path opacity="0.6" d="M218.737 129.474C218.737 129.474 214.303 164.967 204.682 184.338C196.913 199.989 176.175 222.27 176.175 222.27L170.877 216.81C170.877 216.81 184.879 192.612 190.654 182.2C204.813 156.694 193.27 137.257 201.269 127.918L218.737 129.474Z" fill="#FAFAFA"/>
<path d="M176.711 222.996L169.87 216.332L172.139 213.239L179.595 220.949L176.711 222.996Z" fill="#407BFF"/>
<path opacity="0.3" d="M176.711 222.996L169.87 216.332L172.139 213.239L179.595 220.949L176.711 222.996Z" fill="black"/>
<path d="M201.046 126.558L199.862 128.467C199.771 128.618 199.947 128.794 200.202 128.814L223.648 130.841C223.851 130.841 224.028 130.776 224.054 130.652L224.427 128.69C224.427 128.552 224.289 128.415 224.067 128.395L201.425 126.433C201.357 126.42 201.286 126.425 201.22 126.446C201.153 126.468 201.094 126.506 201.046 126.558Z" fill="#263238"/>
<path d="M203.871 129.35L203.263 129.298C203.139 129.298 203.054 129.219 203.067 129.141L203.577 126.564C203.577 126.492 203.708 126.44 203.826 126.446L204.434 126.499C204.552 126.499 204.637 126.584 204.624 126.656L204.113 129.232C204.1 129.311 203.989 129.363 203.871 129.35Z" fill="#407BFF"/>
<path opacity="0.6" d="M203.871 129.35L203.263 129.298C203.139 129.298 203.054 129.219 203.067 129.141L203.577 126.564C203.577 126.492 203.708 126.44 203.826 126.446L204.434 126.499C204.552 126.499 204.637 126.584 204.624 126.656L204.113 129.232C204.1 129.311 203.989 129.363 203.871 129.35Z" fill="#FAFAFA"/>
<path d="M221.928 130.913L221.32 130.861C221.202 130.861 221.117 130.782 221.13 130.704L221.641 128.127C221.641 128.055 221.765 128.003 221.883 128.009L222.491 128.062C222.615 128.062 222.7 128.147 222.687 128.219L222.177 130.795C222.154 130.839 222.117 130.874 222.072 130.896C222.027 130.917 221.977 130.923 221.928 130.913Z" fill="#407BFF"/>
<path opacity="0.6" d="M221.928 130.913L221.32 130.861C221.202 130.861 221.117 130.782 221.13 130.704L221.641 128.127C221.641 128.055 221.765 128.003 221.883 128.009L222.491 128.062C222.615 128.062 222.7 128.147 222.687 128.219L222.177 130.795C222.154 130.839 222.117 130.874 222.072 130.896C222.027 130.917 221.977 130.923 221.928 130.913Z" fill="#FAFAFA"/>
<path d="M212.897 130.135L212.295 130.083C212.171 130.083 212.086 129.998 212.099 129.926L212.609 127.349C212.609 127.27 212.733 127.218 212.857 127.231L213.459 127.283C213.583 127.283 213.668 127.362 213.655 127.44L213.145 130.011C213.132 130.089 213.021 130.141 212.897 130.135Z" fill="#407BFF"/>
<path opacity="0.6" d="M212.897 130.135L212.295 130.083C212.171 130.083 212.086 129.998 212.099 129.926L212.609 127.349C212.609 127.27 212.733 127.218 212.857 127.231L213.459 127.283C213.583 127.283 213.668 127.362 213.655 127.44L213.145 130.011C213.132 130.089 213.021 130.141 212.897 130.135Z" fill="#FAFAFA"/>
<path d="M217.311 77.102C217.396 77.5402 217.697 77.8475 217.965 77.7887C218.233 77.7298 218.41 77.3374 218.325 76.8992C218.24 76.4611 217.939 76.1537 217.671 76.206C217.403 76.2583 217.226 76.6638 217.311 77.102Z" fill="#263238"/>
<path d="M222.255 76.1276C222.34 76.5657 222.641 76.8731 222.909 76.8208C223.177 76.7685 223.354 76.363 223.269 75.9248C223.184 75.4866 222.883 75.1793 222.615 75.2708C222.347 75.3624 222.164 75.6894 222.255 76.1276Z" fill="#263238"/>
<path d="M222.491 75.2839L223.485 74.7738C223.485 74.7738 223.106 75.7025 222.491 75.2839Z" fill="#263238"/>
<path d="M221.091 77.1412C221.679 78.0596 222.39 78.8935 223.204 79.6199C223.012 79.8236 222.778 79.983 222.518 80.0869C222.258 80.1908 221.979 80.2368 221.699 80.2216L221.091 77.1412Z" fill="#892B29"/>
<path d="M219.679 82.3079C218.758 82.3199 217.867 81.9809 217.187 81.3596C217.168 81.338 217.157 81.31 217.157 81.2811C217.157 81.2521 217.168 81.2242 217.187 81.2026C217.208 81.1818 217.236 81.1702 217.265 81.1702C217.295 81.1702 217.323 81.1818 217.344 81.2026C217.763 81.5698 218.262 81.8337 218.802 81.9734C219.341 82.1131 219.906 82.1246 220.45 82.007C220.479 82.0012 220.509 82.0068 220.533 82.0227C220.558 82.0386 220.575 82.0635 220.581 82.092C220.584 82.1058 220.584 82.12 220.581 82.1338C220.578 82.1475 220.573 82.1606 220.565 82.1722C220.557 82.1838 220.547 82.1937 220.535 82.2013C220.523 82.2088 220.51 82.2139 220.496 82.2163C220.227 82.2742 219.953 82.3049 219.679 82.3079Z" fill="#263238"/>
<path d="M214.878 74.3421C214.842 74.3505 214.804 74.3505 214.767 74.3421C214.718 74.3111 214.684 74.2624 214.67 74.2063C214.657 74.1501 214.666 74.091 214.695 74.0413C214.896 73.6869 215.179 73.386 215.52 73.164C215.862 72.942 216.252 72.8055 216.657 72.766C216.714 72.7659 216.769 72.7875 216.81 72.8264C216.851 72.8653 216.876 72.9186 216.879 72.9753C216.88 73.0036 216.876 73.0319 216.866 73.0584C216.856 73.0849 216.84 73.1092 216.821 73.1298C216.801 73.1505 216.778 73.1671 216.752 73.1787C216.726 73.1904 216.699 73.1968 216.67 73.1976C216.336 73.2358 216.016 73.3522 215.735 73.5374C215.454 73.7227 215.221 73.9715 215.055 74.2637C215.034 74.29 215.007 74.3108 214.976 74.3245C214.945 74.3382 214.912 74.3442 214.878 74.3421Z" fill="#263238"/>
<path d="M224.165 73.5704C224.131 73.5793 224.095 73.5793 224.06 73.5704C223.768 73.3928 223.436 73.2886 223.095 73.267C222.753 73.2454 222.411 73.3068 222.098 73.4462C222.047 73.4719 221.988 73.4767 221.933 73.4597C221.878 73.4426 221.832 73.4049 221.804 73.3546C221.778 73.3032 221.774 73.2439 221.791 73.189C221.808 73.1342 221.845 73.088 221.896 73.0603C222.268 72.8922 222.675 72.8163 223.082 72.839C223.49 72.8618 223.886 72.9826 224.237 73.1911C224.262 73.2048 224.284 73.2232 224.302 73.2455C224.32 73.2677 224.333 73.2932 224.341 73.3206C224.349 73.3479 224.351 73.3766 224.348 73.4049C224.345 73.4332 224.336 73.4605 224.322 73.4854C224.304 73.5103 224.28 73.5308 224.253 73.5455C224.226 73.5602 224.196 73.5687 224.165 73.5704Z" fill="#263238"/>
<path d="M201.89 102.17C200.981 103.984 199.972 105.746 198.868 107.448C197.77 109.135 196.605 110.77 195.356 112.359C194.092 113.945 192.733 115.454 191.288 116.878C190.549 117.585 189.81 118.291 189.013 118.945L188.424 119.449C188.148 119.675 187.855 119.881 187.548 120.063C186.794 120.508 185.931 120.734 185.056 120.717C184.166 120.68 183.307 120.377 182.59 119.847C182.036 119.445 181.546 118.959 181.138 118.409C180.471 117.495 179.915 116.505 179.484 115.459C178.704 113.569 178.089 111.615 177.646 109.619C176.776 105.757 176.201 101.835 175.926 97.8862L178.235 97.5984C178.607 99.4557 179.006 101.352 179.471 103.21C179.935 105.067 180.406 106.918 180.975 108.71C181.505 110.472 182.16 112.195 182.937 113.863C183.291 114.599 183.73 115.29 184.245 115.923C184.433 116.145 184.654 116.337 184.899 116.492C185.082 116.597 185.141 116.577 185.147 116.564C185.241 116.536 185.33 116.492 185.409 116.434C185.494 116.375 185.599 116.29 185.71 116.198L186.207 115.727C186.861 115.119 187.515 114.452 188.169 113.765C189.425 112.411 190.589 110.96 191.727 109.488C192.865 108.017 193.904 106.447 194.899 104.858C195.402 104.073 195.886 103.269 196.363 102.458C196.841 101.647 197.292 100.81 197.671 100.051L201.89 102.17Z" fill="#9F5B53"/>
<path d="M179.261 98.4028L178.679 93.5044L173.827 96.6305C173.827 96.6305 175.416 99.2465 177.613 99.9528L179.261 98.4028Z" fill="#9F5B53"/>
<path d="M176.881 91.5162L173.709 94.5116L173.827 96.6305L178.679 93.5044L176.881 91.5162Z" fill="#9F5B53"/>
<path d="M200.189 94.1649C197.449 94.6554 193.61 102.516 193.61 102.516L200.523 108.762C200.523 108.762 206.017 102.772 205.722 99.2007C205.474 96.1661 203.682 93.5501 200.189 94.1649Z" fill="#407BFF"/>
<path opacity="0.3" d="M200.189 94.1649C197.449 94.6554 193.61 102.516 193.61 102.516L200.523 108.762C200.523 108.762 206.017 102.772 205.722 99.2007C205.474 96.1661 203.682 93.5501 200.189 94.1649Z" fill="black"/>
<path d="M172.656 228.235C172.584 228.235 172.513 228.222 172.447 228.196C171.793 227.98 171.361 226.763 171.139 226.057C171.135 226.037 171.137 226.016 171.143 225.996C171.15 225.977 171.162 225.959 171.178 225.946C171.196 225.935 171.216 225.929 171.237 225.929C171.258 225.929 171.278 225.935 171.296 225.946C171.498 226.05 173.258 226.986 173.303 227.679C173.31 227.754 173.297 227.829 173.265 227.897C173.233 227.965 173.183 228.023 173.12 228.065C172.988 228.17 172.825 228.23 172.656 228.235ZM171.446 226.273C171.747 227.241 172.139 227.888 172.512 228.012C172.598 228.037 172.688 228.039 172.775 228.02C172.861 228 172.942 227.96 173.009 227.901C173.042 227.881 173.069 227.852 173.086 227.817C173.103 227.782 173.111 227.744 173.107 227.705C173.075 227.26 172.048 226.593 171.446 226.253V226.273Z" fill="#407BFF"/>
<path d="M172.931 226.528C172.334 226.525 171.746 226.387 171.211 226.122C171.195 226.113 171.181 226.1 171.172 226.084C171.163 226.068 171.158 226.049 171.158 226.031C171.158 226.011 171.163 225.992 171.172 225.975C171.181 225.958 171.195 225.944 171.211 225.933C171.27 225.9 172.656 225.141 173.402 225.403C173.495 225.433 173.581 225.484 173.652 225.552C173.724 225.62 173.779 225.703 173.814 225.795C173.859 225.883 173.874 225.983 173.856 226.08C173.839 226.177 173.789 226.266 173.715 226.332C173.481 226.478 173.206 226.547 172.931 226.528ZM171.505 226.031C172.1 226.286 173.251 226.443 173.572 226.162C173.624 226.116 173.683 226.044 173.611 225.874C173.587 225.812 173.55 225.755 173.501 225.71C173.452 225.665 173.394 225.631 173.33 225.612C172.826 225.416 171.897 225.835 171.505 226.031Z" fill="#407BFF"/>
<path d="M209.084 242.073C208.48 242.059 207.88 241.982 207.292 241.845C207.27 241.84 207.249 241.829 207.234 241.813C207.219 241.796 207.209 241.775 207.207 241.753C207.204 241.731 207.209 241.708 207.219 241.688C207.23 241.668 207.246 241.652 207.266 241.642C207.54 241.511 209.921 240.419 210.536 240.818C210.59 240.856 210.632 240.907 210.66 240.967C210.688 241.026 210.699 241.092 210.693 241.158C210.688 241.278 210.656 241.396 210.599 241.502C210.542 241.609 210.463 241.701 210.366 241.773C209.98 242.004 209.532 242.109 209.084 242.073ZM207.665 241.701C208.371 241.831 209.679 242.002 210.215 241.596C210.288 241.545 210.347 241.477 210.388 241.399C210.429 241.32 210.45 241.233 210.451 241.145C210.451 241.053 210.451 241.021 210.392 241.001C210.058 240.772 208.626 241.262 207.665 241.701Z" fill="#407BFF"/>
<path d="M207.318 241.851C207.294 241.858 207.27 241.858 207.246 241.851C207.23 241.838 207.218 241.82 207.212 241.801C207.205 241.781 207.203 241.76 207.207 241.74C207.207 241.642 207.789 239.288 209.064 239.445C209.385 239.484 209.476 239.647 209.489 239.772C209.574 240.373 208.07 241.577 207.357 241.864L207.318 241.851ZM208.946 239.628C208.122 239.628 207.638 240.994 207.482 241.544C208.253 241.138 209.326 240.157 209.273 239.778C209.273 239.778 209.273 239.66 209.038 239.634L208.946 239.628Z" fill="#407BFF"/>
<path d="M217.553 76.2584L218.541 75.7483C218.541 75.7483 218.161 76.677 217.553 76.2584Z" fill="#263238"/>
<path d="M80.7886 77.6122C86.5866 71.7977 93.4766 67.1866 101.063 64.044C108.649 60.9013 116.781 59.2892 124.992 59.3002H133.841C133.841 59.3002 175.586 70.2286 175.586 114.949C175.586 158.662 146.686 197.353 133.848 210.211H125.006L80.7886 165.994C69.0752 154.27 62.4955 138.376 62.4955 121.803C62.4955 105.23 69.0752 89.3359 80.7886 77.6122ZM124.999 150.86C130.74 150.86 136.352 149.158 141.125 145.968C145.898 142.779 149.618 138.245 151.815 132.941C154.011 127.637 154.586 121.801 153.465 116.171C152.345 110.541 149.58 105.369 145.52 101.31C141.46 97.2511 136.288 94.4873 130.657 93.3681C125.027 92.2489 119.191 92.8246 113.887 95.0224C108.584 97.2202 104.051 100.941 100.863 105.715C97.6744 110.489 95.9732 116.101 95.9745 121.842C95.9901 129.53 99.0549 136.897 104.496 142.328C109.938 147.758 117.311 150.808 124.999 150.808V150.86Z" fill="#263238"/>
<path d="M179.196 76.4285C176.608 73.8427 173.807 71.4778 170.825 69.3588L171.198 68.8225C174.214 70.9641 177.045 73.3552 179.66 75.9707L179.196 76.4285ZM166.914 66.8016C165.377 65.873 163.781 64.9966 162.179 64.1856L162.467 63.597C164.089 64.4015 165.697 65.2844 167.254 66.213L166.914 66.8016Z" fill="#0C395B"/>
<path opacity="0.2" d="M179.196 76.4285C176.608 73.8427 173.807 71.4778 170.825 69.3588L171.198 68.8225C174.214 70.9641 177.045 73.3552 179.66 75.9707L179.196 76.4285ZM166.914 66.8016C165.377 65.873 163.781 64.9966 162.179 64.1856L162.467 63.597C164.089 64.4015 165.697 65.2844 167.254 66.213L166.914 66.8016Z" fill="black"/>
<path d="M89.6307 77.6123C101.426 66.2561 117.205 59.9806 133.578 60.1346C149.951 60.2886 165.61 66.8597 177.189 78.4358C188.768 90.0118 195.344 105.669 195.503 122.041C195.662 138.414 189.391 154.195 178.038 165.994L133.848 210.191L89.6307 165.974C77.92 154.253 71.3419 138.362 71.3419 121.793C71.3419 105.224 77.92 89.3334 89.6307 77.6123ZM133.841 150.86C139.582 150.86 145.194 149.158 149.967 145.968C154.74 142.779 158.46 138.245 160.657 132.941C162.853 127.638 163.428 121.801 162.307 116.171C161.187 110.541 158.422 105.369 154.362 101.31C150.302 97.2511 145.13 94.4873 139.499 93.3681C133.869 92.2489 128.033 92.8247 122.729 95.0225C117.426 97.2203 112.893 100.941 109.705 105.715C106.516 110.489 104.815 116.101 104.817 121.842C104.832 129.53 107.897 136.897 113.338 142.328C118.78 147.758 126.154 150.808 133.841 150.808V150.86Z" fill="#0C395B"/>
<path opacity="0.2" d="M89.6307 77.6123C101.426 66.2561 117.205 59.9806 133.578 60.1346C149.951 60.2886 165.61 66.8597 177.189 78.4358C188.768 90.0118 195.344 105.669 195.503 122.041C195.662 138.414 189.391 154.195 178.038 165.994L133.848 210.191L89.6307 165.974C77.92 154.253 71.3419 138.362 71.3419 121.793C71.3419 105.224 77.92 89.3334 89.6307 77.6123ZM133.841 150.86C139.582 150.86 145.194 149.158 149.967 145.968C154.74 142.779 158.46 138.245 160.657 132.941C162.853 127.638 163.428 121.801 162.307 116.171C161.187 110.541 158.422 105.369 154.362 101.31C150.302 97.2511 145.13 94.4873 139.499 93.3681C133.869 92.2489 128.033 92.8247 122.729 95.0225C117.426 97.2203 112.893 100.941 109.705 105.715C106.516 110.489 104.815 116.101 104.817 121.842C104.832 129.53 107.897 136.897 113.338 142.328C118.78 147.758 126.154 150.808 133.841 150.808V150.86Z" fill="black"/>
<g style="mix-blend-mode:color-dodge" opacity="0.4">
<path d="M133.848 206.653C133.826 206.653 133.804 206.648 133.783 206.639C133.763 206.63 133.745 206.617 133.73 206.601L91.3638 164.241C82.9681 155.842 77.2513 145.142 74.9363 133.494C72.6213 121.846 73.8119 109.773 78.3577 98.802C82.9035 87.8307 90.6003 78.4535 100.475 71.8562C110.35 65.2589 121.959 61.7377 133.835 61.7377C145.71 61.7377 157.319 65.2589 167.194 71.8562C177.069 78.4535 184.766 87.8307 189.311 98.802C193.857 109.773 195.048 121.846 192.733 133.494C190.418 145.142 184.701 155.842 176.305 164.241L133.959 206.581C133.947 206.601 133.931 206.617 133.912 206.63C133.892 206.642 133.87 206.65 133.848 206.653ZM133.848 62.0602C122.037 62.0622 110.491 65.5663 100.672 72.1293C90.852 78.6923 83.1987 88.0196 78.6795 98.9319C74.1603 109.844 72.9782 121.851 75.2825 133.435C77.5868 145.019 83.2741 155.66 91.6254 164.012L133.874 206.254L176.103 164.032C184.453 155.675 190.138 145.03 192.44 133.443C194.742 121.856 193.557 109.846 189.034 98.9326C184.512 88.0189 176.855 78.6909 167.032 72.1278C157.209 65.5648 145.661 62.0612 133.848 62.0602ZM133.848 153.62C127.557 153.62 121.408 151.755 116.178 148.26C110.947 144.765 106.871 139.797 104.464 133.985C102.057 128.174 101.428 121.779 102.655 115.609C103.883 109.44 106.913 103.773 111.361 99.325C115.81 94.8774 121.477 91.8488 127.647 90.6224C133.817 89.396 140.212 90.0268 146.023 92.4349C151.834 94.8431 156.801 98.9205 160.295 104.152C163.789 109.383 165.653 115.532 165.652 121.823C165.633 130.249 162.274 138.325 156.311 144.279C150.348 150.233 142.268 153.581 133.841 153.587L133.848 153.62ZM133.848 90.3457C127.622 90.3457 121.536 92.1918 116.36 95.6505C111.184 99.1092 107.149 104.025 104.767 109.777C102.384 115.529 101.761 121.858 102.975 127.964C104.19 134.069 107.188 139.678 111.59 144.08C115.992 148.482 121.601 151.48 127.707 152.695C133.813 153.909 140.142 153.286 145.893 150.904C151.645 148.521 156.561 144.487 160.02 139.31C163.479 134.134 165.325 128.048 165.325 121.823C165.325 113.47 162.008 105.46 156.105 99.5512C150.201 93.6427 142.193 90.3199 133.841 90.313L133.848 90.3457Z" fill="#FAFAFA"/>
</g>
</svg>
