<svg width="327" height="304" viewBox="0 0 327 304" fill="none" xmlns="http://www.w3.org/2000/svg">
<path d="M47.8863 280.866C111.739 311.296 215.261 311.305 279.114 280.866C342.967 250.427 342.957 201.094 279.114 170.664C215.27 140.234 111.739 140.234 47.8863 170.664C-15.9667 201.094 -15.9575 250.436 47.8863 280.866Z" fill="#F5F5F5"/>
<path d="M278.891 258.377C290.651 258.377 300.185 253.834 300.185 248.231C300.185 242.627 290.651 238.084 278.891 238.084C267.131 238.084 257.598 242.627 257.598 248.231C257.598 253.834 267.131 258.377 278.891 258.377Z" fill="#EBEBEB"/>
<path d="M43.0401 249.686L50.5735 245.34C54.7796 241.907 57.9809 237.403 59.8396 232.302C62.1654 225.89 61.8411 221.016 60.1732 218.57C58.1254 215.558 52.8159 216.087 52.6028 222.425C52.158 234.915 48.5164 243.579 43.0401 249.686Z" fill="#0C395B"/>
<path opacity="0.2" d="M43.0401 249.686L50.5735 245.34C54.7796 241.907 57.9809 237.403 59.8396 232.302C62.1654 225.89 61.8411 221.016 60.1732 218.57C58.1254 215.558 52.8159 216.087 52.6028 222.425C52.158 234.915 48.5164 243.579 43.0401 249.686Z" fill="black"/>
<path d="M43.0401 250.149C42.942 250.148 42.8468 250.115 42.7682 250.057C42.6897 249.998 42.6318 249.916 42.6029 249.822C42.5741 249.728 42.5758 249.628 42.6077 249.535C42.6396 249.442 42.7002 249.362 42.7806 249.306C60.201 237.26 56.8281 220.46 56.791 220.293C56.7783 220.233 56.7776 220.17 56.7891 220.109C56.8006 220.048 56.824 219.989 56.858 219.937C56.8919 219.885 56.9358 219.84 56.9872 219.805C57.0385 219.77 57.0962 219.746 57.1571 219.733C57.2179 219.72 57.2807 219.719 57.3418 219.731C57.4029 219.742 57.4611 219.766 57.5132 219.8C57.5652 219.834 57.6101 219.878 57.6452 219.929C57.6803 219.98 57.7049 220.038 57.7177 220.099C57.7177 220.275 61.2759 237.649 43.3366 250.065C43.2496 250.125 43.1454 250.154 43.0401 250.149Z" fill="white"/>
<path d="M27.9455 258.405C27.9455 258.405 25.3232 256.274 25.9533 253.383C26.5834 250.492 28.2791 248.416 25.3788 244.691C22.4785 240.966 21.6724 236 25.1379 233.312C27.7787 231.227 31.9022 234.174 33.3848 228.679C34.4782 224.658 34.1075 215.753 39.2317 212.788C44.3559 209.823 47.5712 214.289 46.7651 220.33C46.0608 225.733 45.0601 230.931 45.8385 232.376C47.3396 235.156 49.9063 234.776 49.7858 239.854C49.6839 244.58 45.2084 248.49 45.2084 248.49L27.9455 258.405Z" fill="#0C395B"/>
<path d="M36.5538 253.874C36.4405 253.873 36.3314 253.831 36.2464 253.756C36.1613 253.681 36.106 253.578 36.0905 253.466C34.7654 242.486 37.9437 223.527 40.5382 217.893C40.5601 217.831 40.595 217.774 40.6408 217.726C40.6866 217.678 40.742 217.641 40.8035 217.616C40.865 217.592 40.931 217.58 40.9971 217.584C41.0632 217.587 41.1279 217.604 41.1868 217.634C41.2422 217.659 41.2919 217.695 41.3332 217.739C41.3745 217.784 41.4064 217.836 41.4271 217.893C41.4479 217.95 41.457 218.01 41.4539 218.071C41.4508 218.132 41.4356 218.191 41.4092 218.246C38.8425 223.805 35.7754 242.819 37.0449 253.318C37.0579 253.439 37.0224 253.561 36.946 253.657C36.8696 253.752 36.7586 253.814 36.6372 253.828L36.5538 253.874Z" fill="white"/>
<path d="M36.3036 245.321C36.2327 245.325 36.1622 245.309 36.0998 245.275C32.8844 243.709 30.8458 238.121 30.7624 237.862C30.7397 237.804 30.7288 237.743 30.7303 237.681C30.7318 237.619 30.7458 237.558 30.7713 237.502C30.7968 237.445 30.8333 237.394 30.8788 237.352C30.9242 237.31 30.9777 237.278 31.0359 237.257C31.0942 237.235 31.156 237.226 31.2179 237.23C31.2798 237.233 31.3403 237.248 31.3961 237.276C31.4518 237.303 31.5015 237.341 31.5423 237.387C31.583 237.434 31.6141 237.488 31.6335 237.547C31.6335 237.603 33.6257 243.014 36.5075 244.413C36.602 244.459 36.6782 244.536 36.7235 244.63C36.7688 244.725 36.7806 244.832 36.7569 244.935C36.7332 245.037 36.6754 245.128 36.5931 245.193C36.5107 245.259 36.4086 245.294 36.3036 245.293V245.321Z" fill="white"/>
<path d="M36.248 249.028C36.1552 249.028 36.0645 248.999 35.9883 248.946C35.9121 248.893 35.854 248.818 35.8218 248.731C35.7756 248.618 35.7761 248.491 35.8229 248.379C35.8698 248.266 35.9593 248.176 36.0719 248.129C41.4834 245.961 44.8562 239.521 44.8933 239.447C44.9498 239.337 45.0475 239.255 45.1648 239.217C45.2821 239.18 45.4094 239.191 45.5188 239.247C45.6281 239.304 45.7106 239.402 45.7479 239.519C45.7853 239.636 45.7745 239.763 45.718 239.873C45.5697 240.151 42.1505 246.693 36.4519 248.991C36.3884 249.021 36.318 249.034 36.248 249.028Z" fill="white"/>
<path d="M225.398 199.176C225.398 199.176 221.349 192.615 220.95 185.49C220.552 178.364 222.118 175.399 224.267 174.546C226.417 173.694 226.584 176.316 227.687 177.864C228.789 179.411 231.041 178.531 231.875 173.703C232.709 168.876 235.748 160.731 242.068 159.146C249.017 157.423 245.292 165.577 243.541 168.755C241.79 171.933 240.437 176.27 241.586 177.447C242.735 178.624 244.523 176.446 246.219 178.466C248.285 180.903 241.864 189.678 238.176 191.8L225.398 199.176Z" fill="#0C395B"/>
<path d="M230.948 196.424C230.887 196.421 230.828 196.407 230.772 196.382C230.717 196.356 230.667 196.32 230.626 196.275C230.585 196.23 230.553 196.178 230.532 196.121C230.511 196.064 230.501 196.003 230.503 195.942C231.131 184.479 234.706 173.373 240.882 163.696C240.917 163.645 240.961 163.603 241.013 163.57C241.065 163.537 241.123 163.516 241.184 163.506C241.245 163.497 241.307 163.499 241.366 163.515C241.426 163.53 241.481 163.557 241.53 163.594C241.627 163.666 241.692 163.773 241.711 163.893C241.73 164.012 241.702 164.134 241.632 164.233C235.567 173.768 232.056 184.704 231.439 195.988C231.436 196.049 231.42 196.109 231.394 196.164C231.367 196.218 231.33 196.268 231.284 196.308C231.239 196.348 231.185 196.38 231.128 196.399C231.07 196.419 231.009 196.428 230.948 196.424Z" fill="white"/>
<path d="M231.476 190.947C231.399 190.947 231.323 190.928 231.254 190.892C228.66 189.456 227.223 185.193 227.168 185.017C227.147 184.959 227.138 184.898 227.142 184.837C227.145 184.776 227.161 184.716 227.188 184.661C227.214 184.606 227.252 184.556 227.298 184.516C227.343 184.475 227.397 184.444 227.455 184.424C227.572 184.386 227.699 184.396 227.808 184.452C227.918 184.507 228.001 184.604 228.039 184.721C228.039 184.721 229.429 188.826 231.745 190.076C231.85 190.139 231.927 190.239 231.96 190.356C231.993 190.474 231.979 190.599 231.921 190.707C231.879 190.786 231.815 190.852 231.736 190.895C231.656 190.938 231.566 190.956 231.476 190.947Z" fill="white"/>
<path d="M231.931 188.14C231.828 188.139 231.728 188.104 231.648 188.04C231.567 187.976 231.51 187.887 231.486 187.788C231.471 187.729 231.467 187.668 231.476 187.609C231.484 187.549 231.505 187.491 231.536 187.44C231.567 187.388 231.608 187.343 231.657 187.307C231.705 187.271 231.761 187.246 231.819 187.232C238.509 185.536 240.826 182.033 240.845 181.996C240.877 181.945 240.92 181.9 240.97 181.865C241.02 181.83 241.077 181.805 241.137 181.791C241.197 181.778 241.258 181.776 241.319 181.787C241.379 181.798 241.437 181.82 241.489 181.853C241.54 181.886 241.585 181.928 241.62 181.979C241.655 182.029 241.68 182.085 241.694 182.145C241.707 182.205 241.708 182.267 241.698 182.327C241.687 182.387 241.665 182.445 241.632 182.497C241.53 182.654 239.121 186.333 232.051 188.131L231.931 188.14Z" fill="white"/>
<path d="M124.582 184.776C124.582 184.776 115.696 182.608 115.233 165.966C114.742 148.008 117.41 127.048 106.893 125.352C96.376 123.657 90.5383 136.472 90.6681 151.437C90.7885 164.539 96.0702 192.986 124.545 198.564L124.582 184.776Z" fill="#0C395B"/>
<path opacity="0.2" d="M124.582 184.776C124.582 184.776 115.696 182.608 115.233 165.966C114.742 148.008 117.41 127.048 106.893 125.352C96.376 123.657 90.5383 136.472 90.6681 151.437C90.7885 164.539 96.0702 192.986 124.545 198.564L124.582 184.776Z" fill="black"/>
<path d="M124.582 196.859H124.499C118.096 195.692 112.879 192.161 108.996 186.379C97.4879 169.209 101.111 137.148 102.306 131.552C102.333 131.432 102.405 131.328 102.507 131.261C102.609 131.193 102.733 131.168 102.853 131.19C102.973 131.219 103.077 131.293 103.145 131.396C103.212 131.5 103.237 131.625 103.214 131.746C102.038 137.306 98.4331 168.959 109.766 185.86C111.415 188.481 113.591 190.731 116.156 192.467C118.721 194.202 121.619 195.386 124.666 195.942C124.726 195.953 124.784 195.976 124.835 196.01C124.887 196.043 124.931 196.087 124.965 196.138C125 196.189 125.024 196.246 125.036 196.306C125.048 196.366 125.048 196.428 125.036 196.489C125.017 196.594 124.96 196.689 124.877 196.757C124.794 196.825 124.689 196.861 124.582 196.859Z" fill="white"/>
<path d="M124.582 239.567C115.399 240.809 100.49 240.79 91.882 234.007C83.2737 227.224 85.0713 221.387 88.3793 218.95C91.6873 216.513 94.5599 213.733 88.8705 208.322C83.181 202.91 74.0446 194.218 71.0794 181.181C68.1143 168.143 69.5783 159.989 75.3975 157.274C81.0405 154.643 82.5324 158.831 85.9887 167.467C89.445 176.103 97.2192 168.699 103.872 171.396C110.525 174.092 110.257 179.43 110.674 184.016C111.091 188.603 113.287 189.873 117.058 189.873C120.829 189.873 124.582 192.041 124.582 196.359V239.567Z" fill="#0C395B"/>
<path d="M124.582 224.426C124.542 224.435 124.501 224.435 124.462 224.426C124.063 224.315 114.565 221.554 100.731 208.85C85.9979 195.321 79.0483 175.028 78.9742 174.824C78.9387 174.708 78.9497 174.582 79.005 174.473C79.0602 174.364 79.1555 174.281 79.2707 174.241C79.3862 174.202 79.5122 174.211 79.6215 174.265C79.7307 174.318 79.8144 174.413 79.8545 174.528C79.9193 174.732 86.8041 194.802 101.361 208.164C115.001 220.701 124.61 223.509 124.712 223.536C124.77 223.554 124.825 223.582 124.872 223.62C124.92 223.658 124.959 223.705 124.988 223.759C125.018 223.812 125.036 223.87 125.043 223.931C125.049 223.991 125.044 224.053 125.027 224.111C124.997 224.205 124.937 224.286 124.857 224.343C124.777 224.4 124.68 224.429 124.582 224.426Z" fill="white"/>
<path d="M104.595 212.074C104.502 212.076 104.411 212.048 104.334 211.995C104.258 211.942 104.2 211.866 104.169 211.778C101.194 204.143 100.518 187.806 100.462 187.111C100.46 186.989 100.505 186.871 100.588 186.781C100.671 186.691 100.785 186.637 100.907 186.63C101.028 186.631 101.144 186.678 101.233 186.76C101.322 186.842 101.378 186.954 101.389 187.074C101.389 187.241 102.084 203.948 105.003 211.444C105.025 211.501 105.036 211.562 105.034 211.624C105.033 211.685 105.019 211.746 104.994 211.802C104.969 211.858 104.933 211.908 104.889 211.95C104.844 211.992 104.792 212.025 104.734 212.047C104.689 212.063 104.643 212.072 104.595 212.074Z" fill="white"/>
<path d="M104.521 223.055C103.667 223.061 102.813 223.018 101.964 222.925C101.903 222.918 101.844 222.899 101.79 222.869C101.737 222.838 101.69 222.798 101.652 222.75C101.614 222.702 101.586 222.647 101.57 222.588C101.553 222.529 101.549 222.467 101.556 222.406C101.563 222.345 101.582 222.286 101.612 222.233C101.642 222.18 101.683 222.133 101.731 222.095C101.779 222.057 101.834 222.029 101.893 222.012C101.952 221.996 102.014 221.991 102.075 221.998C102.158 221.998 110.785 222.981 114.742 218.95C114.783 218.901 114.834 218.861 114.891 218.833C114.948 218.805 115.011 218.789 115.074 218.786C115.138 218.783 115.202 218.793 115.261 218.816C115.321 218.839 115.375 218.874 115.421 218.919C115.466 218.964 115.502 219.017 115.526 219.077C115.549 219.136 115.561 219.2 115.559 219.263C115.557 219.327 115.541 219.39 115.514 219.448C115.487 219.505 115.448 219.557 115.399 219.598C112.536 222.554 107.542 223.055 104.521 223.055Z" fill="white"/>
<path d="M97.8493 47.5909L96.8486 41.8181L91.6966 45.2095C91.2258 44.2829 90.5586 43.4702 89.7414 42.8281L92.2062 36.1565L87.5732 35.1279L84.1817 41.6142C82.9548 41.8212 81.7651 42.2084 80.6513 42.7632L79.178 37.8707L73.6739 42.198L74.0353 47.943C72.9145 49.1986 71.898 50.5435 70.996 51.9645L66.4556 51.7329L63.2681 58.8771L67.1691 60.545C66.7618 62.0227 66.5042 63.5376 66.4 65.0669L61.4426 69.6258L62.4341 75.4079L67.5953 72.0165C68.0634 72.9422 68.7312 73.7524 69.5505 74.3886L67.132 81.0695L71.7651 82.0888L76.6206 77.363C77.7418 77.187 77.4638 75.0743 78.6869 74.472L80.1602 79.346L85.6551 75.028L85.5161 72.767C86.628 71.5254 90.8348 68.7918 91.7429 67.3649L92.8827 65.5116L96.0702 58.3674L94.5876 55.6802L92.9383 52.1776L97.8493 47.5909ZM81.0313 66.5958C76.8059 69.913 75.4716 70.6451 74.7581 66.2066C74.0446 61.7681 76.4631 55.0223 80.6884 51.6958C84.9138 48.3693 86.5261 48.1376 87.2859 52.5668C88.0457 56.996 85.2659 63.3155 81.0313 66.5958Z" fill="#E0E0E0"/>
<path d="M87.6103 35.1279L93.624 38.5935L90.2326 45.0612L84.2188 41.5957L87.6103 35.1279Z" fill="#F5F5F5"/>
<path d="M102.862 45.2837L97.7103 48.6751L91.6966 45.2095L96.8486 41.8181L102.862 45.2837Z" fill="#F5F5F5"/>
<path d="M102.038 61.8052L98.1366 60.1466L92.1229 56.681L96.0239 58.3397L102.038 61.8052Z" fill="#E0E0E0"/>
<path d="M67.1228 81.0696L73.1365 84.5258L75.6013 77.8542L69.5876 74.3887L67.1228 81.0696Z" fill="#E0E0E0"/>
<path d="M86.1184 82.8116L80.1139 79.346L78.6406 74.472L84.6544 77.9376L86.1184 82.8116Z" fill="#E0E0E0"/>
<path d="M103.854 51.0565L102.862 45.2837L97.7103 48.6751C97.2362 47.7481 96.5658 46.9355 95.7459 46.2937L98.2107 39.622L93.624 38.5935L90.2233 45.0798C88.9963 45.2868 87.8067 45.674 86.6929 46.2288L85.2288 41.3548L79.7247 45.6821L80.0861 51.4271C78.964 52.6915 77.9475 54.0458 77.0468 55.4764L72.4972 55.2448L69.3096 62.389L73.2106 64.0569C72.8071 65.5385 72.5495 67.0562 72.4416 68.588L67.4934 73.0821L68.4849 78.8642L73.6369 75.4728C74.1112 76.3971 74.7816 77.2066 75.6013 77.8449L73.1365 84.5165L77.7696 85.5451L81.161 79.0588C82.3927 78.8541 83.5862 78.4635 84.7007 77.9005L86.1647 82.7745L91.6688 78.4565L91.3074 72.7115C92.4283 71.4559 93.4448 70.1109 94.3467 68.6899L98.8964 68.9123L102.084 61.7681L98.1273 60.1095C98.5375 58.6289 98.7983 57.111 98.9057 55.5784L103.854 51.0565ZM87.0543 70.0984C82.8382 73.4157 78.7981 72.5169 78.029 68.0877C77.26 63.6584 80.0676 57.3667 84.293 54.0494C88.5183 50.7322 92.5491 51.6402 93.3182 56.0695C94.0873 60.4987 91.2796 66.7811 87.0543 70.0984Z" fill="#EBEBEB"/>
<path d="M85.2288 41.3363L79.2151 37.8707L73.711 42.198L79.7247 45.6636L85.2288 41.3363Z" fill="#F5F5F5"/>
<path d="M73.711 42.198L74.0724 47.943L80.0861 51.4086L79.7247 45.6635L73.711 42.198Z" fill="#E0E0E0"/>
<path d="M77.0468 55.4301L71.0331 51.9646L66.4927 51.7422L72.4972 55.2077L77.0468 55.4301Z" fill="#F5F5F5"/>
<path d="M66.4927 51.7422L63.3051 58.8771L69.3096 62.3427L72.4972 55.2077L66.4927 51.7422Z" fill="#E0E0E0"/>
<path d="M72.4416 68.5324L66.4371 65.0669L61.4797 69.6258L67.4842 73.0914L72.4416 68.5324Z" fill="#F5F5F5"/>
<path d="M68.4849 78.8735L62.4712 75.4079L61.4797 69.6259L67.4842 73.0914L68.4849 78.8735Z" fill="#E0E0E0"/>
<path d="M93.624 38.5935L87.6102 35.1279L92.2062 36.1565L98.2107 39.622L93.624 38.5935Z" fill="#F5F5F5"/>
<path d="M70.9219 21.3863V12.7595L64.0557 15.8544C63.692 14.3907 63.064 13.0059 62.2025 11.768L66.5298 3.04856L61.2481 0L55.8552 8.10788C54.3523 7.97658 52.8381 8.12423 51.3889 8.54339L50.6291 1.04708L43.1605 5.3651L42.41 13.7046C40.7846 15.1449 39.29 16.7263 37.9437 18.4304L32.5508 16.5771L27.2691 25.7321L31.5871 29.4386C30.7892 31.4563 30.1691 33.5398 29.7339 35.6654L22.8677 40.4931V49.1291L29.7339 46.0342C30.0976 47.4979 30.7256 48.8827 31.5871 50.1206L27.2876 58.8493L32.5693 61.8979L37.9622 53.79C39.4651 53.9208 40.9792 53.7732 42.4285 53.3545L43.1791 60.8508L50.6476 56.5328L51.4074 48.1932C53.7385 47.3427 55.8034 45.8915 57.3933 43.9864L61.2666 45.3485L66.5483 36.2028L63.3051 33.423C64.0092 31.1049 64.2701 28.675 64.0742 26.2603L70.9219 21.3863ZM46.8948 42.9393C41.1683 46.2473 37.6286 43.8659 37.6286 37.2777C37.6286 30.6895 42.3636 22.5445 48.0994 19.2365C53.8351 15.9285 57.3007 18.3099 57.3007 24.9537C57.3007 31.5976 52.6305 39.622 46.8948 42.9393Z" fill="#E0E0E0"/>
<path d="M67.2525 3.45628L61.2481 0L55.8552 8.10788L61.8596 11.5734L67.2525 3.45628Z" fill="#F5F5F5"/>
<path d="M76.9356 16.2251L70.9219 12.7595L64.0557 15.8544L70.0694 19.32L76.9356 16.2251Z" fill="#F5F5F5"/>
<path d="M49.165 64.3163L43.1605 60.8508L42.41 53.3545L48.4144 56.82L49.165 64.3163Z" fill="#E0E0E0"/>
<path d="M27.2598 58.8493L33.2736 62.3149L37.6008 53.5954L31.5871 50.1299L27.2598 58.8493Z" fill="#E0E0E0"/>
<path d="M76.9356 24.8982V16.2714L70.0694 19.3385C69.7096 17.8735 69.0812 16.488 68.2162 15.2521L72.5435 6.53268L67.2618 3.47485L61.8689 11.592C60.366 11.4561 58.8509 11.6039 57.4026 12.0275L56.6428 4.51266L49.1743 8.83069L48.4144 17.1702C46.7914 18.6129 45.297 20.1941 43.9482 21.896L38.5553 20.0427L33.2736 29.1977L37.6008 32.9041C36.7988 34.9204 36.1786 37.0043 35.7476 39.131L28.8814 43.9587V52.5947L35.7476 49.4998C36.1073 50.9648 36.7357 52.3504 37.6008 53.5862L33.2736 62.3056L38.5553 65.3542L43.9482 57.2463C45.451 57.3776 46.9652 57.23 48.4144 56.8108L49.1743 64.3071L56.6428 59.9891L57.3933 51.6496C59.0187 50.2093 60.5133 48.6279 61.8596 46.9238L67.2525 48.7771L72.5342 39.6314L68.2069 35.9249C69.0088 33.9086 69.629 31.8247 70.0602 29.6981L76.9356 24.8982ZM52.9085 46.4512C47.1728 49.7593 42.5212 47.0721 42.5212 40.456C42.5212 33.84 47.1542 25.7877 52.9085 22.4705C58.6628 19.1532 63.2866 21.8496 63.2866 28.4657C63.2866 35.0817 58.635 43.0876 52.9085 46.4049V46.4512Z" fill="#EBEBEB"/>
<path d="M37.9437 18.4489L43.9482 21.9144L38.5553 20.0334L32.5508 16.5586L37.9437 18.4489Z" fill="#F0F0F0"/>
<path d="M32.5502 16.568L27.267 25.7261L33.2788 29.1941L38.5619 20.0361L32.5502 16.568Z" fill="#F5F5F5"/>
<path d="M27.2598 25.7135L33.2736 29.179L37.6008 32.904L31.5871 29.4478L27.2598 25.7135Z" fill="#E0E0E0"/>
<path d="M29.7339 35.6747L35.7476 39.1402L28.8814 43.9679L22.8677 40.5023L29.7339 35.6747Z" fill="#F5F5F5"/>
<path d="M22.8677 40.5023L28.8814 43.9679V52.6039L22.8677 49.1384V40.5023Z" fill="#E0E0E0"/>
<path d="M56.6428 4.51266L50.629 1.04712L43.1605 5.36514L49.165 8.83068L56.6428 4.51266Z" fill="#F5F5F5"/>
<path d="M133.737 251.965L220.839 201.668C221.031 201.601 221.197 201.476 221.315 201.31C221.432 201.144 221.495 200.945 221.495 200.742C221.495 200.538 221.432 200.34 221.315 200.174C221.197 200.008 221.031 199.883 220.839 199.815L212.787 195.182C212.288 194.931 211.737 194.8 211.179 194.8C210.621 194.8 210.07 194.931 209.571 195.182L122.442 245.432C122.25 245.5 122.084 245.625 121.966 245.791C121.848 245.957 121.785 246.156 121.785 246.359C121.785 246.562 121.848 246.761 121.966 246.927C122.084 247.093 122.25 247.218 122.442 247.286L130.522 251.919C131.017 252.177 131.566 252.316 132.124 252.324C132.682 252.332 133.235 252.209 133.737 251.965Z" fill="#E0E0E0"/>
<path d="M218.448 7.47777L139.908 52.8263C138.741 53.5882 137.769 54.6145 137.072 55.8218C136.375 57.0292 135.972 58.3838 135.896 59.7759V246.09C135.896 248.648 137.694 249.686 139.908 248.407L218.448 203.058C219.617 202.298 220.59 201.272 221.287 200.064C221.985 198.857 222.387 197.501 222.46 196.109V9.7943C222.46 7.23685 220.672 6.19904 218.448 7.47777Z" fill="#455A64"/>
<path d="M139.908 52.8263L218.448 7.47776C220.431 6.32876 222.071 7.04226 222.405 9.03448C222.22 7.78192 221.771 6.58279 221.089 5.51594C220.407 4.44909 219.507 3.53871 218.448 2.84469L215.187 0.991461C213.943 0.360623 212.569 0.0318604 211.174 0.0318604C209.78 0.0318604 208.405 0.360623 207.162 0.991461L128.613 46.3029C127.43 47.0447 126.454 48.0745 125.777 49.2959L137.073 55.7822C137.75 54.5705 138.726 53.5527 139.908 52.8263Z" fill="#37474F"/>
<path d="M124.582 239.567C124.658 240.959 125.061 242.314 125.758 243.521C126.455 244.728 127.427 245.755 128.594 246.517L131.865 248.37C132.997 248.936 134.236 249.257 135.501 249.311C136.766 249.366 138.028 249.152 139.204 248.685C137.351 249.408 135.878 248.342 135.878 246.053V59.776C135.924 58.378 136.329 57.0154 137.054 55.8193L125.759 49.333C125.044 50.5201 124.639 51.868 124.582 53.2526V239.567Z" fill="#263238"/>
<path d="M142.067 77.6502L216.317 34.7943C217.651 34.0345 218.726 34.6553 218.726 36.1842V174.083C218.682 174.919 218.44 175.732 218.022 176.457C217.603 177.181 217.019 177.797 216.317 178.253L142.095 221.109C140.761 221.878 139.686 221.257 139.686 219.719V81.82C139.728 80.9869 139.966 80.1754 140.379 79.4511C140.793 78.7267 141.371 78.1099 142.067 77.6502Z" fill="white"/>
<path d="M179.178 37.2128C178.768 37.4819 178.428 37.8434 178.183 38.2683C177.938 38.6932 177.797 39.1695 177.77 39.6591C177.77 40.5857 178.4 40.9285 179.178 40.4745C179.59 40.2071 179.932 39.846 180.177 39.4207C180.422 38.9955 180.562 38.5183 180.587 38.0282C180.587 37.1294 179.957 36.768 179.178 37.2128Z" fill="#37474F"/>
<path d="M179.178 206.274C177.558 207.333 176.211 208.76 175.245 210.437C174.279 212.115 173.722 213.996 173.619 215.929C173.619 219.478 176.111 220.923 179.178 219.144C180.798 218.084 182.145 216.658 183.111 214.98C184.076 213.303 184.634 211.422 184.738 209.489C184.757 205.94 182.255 204.495 179.178 206.274Z" fill="#37474F"/>
<path d="M165.844 51.5568C165.03 52.0974 164.354 52.8218 163.871 53.6717C163.388 54.5215 163.112 55.473 163.064 56.4493C163.064 58.2469 164.325 58.979 165.844 58.0801C166.667 57.5447 167.352 56.8225 167.843 55.9723C168.334 55.1221 168.618 54.168 168.671 53.1876C168.671 51.39 167.41 50.658 165.844 51.5568Z" fill="#37474F"/>
<path d="M172.766 50.9453C172.766 52.1499 173.693 52.6039 174.777 51.9646L193.309 41.2436C193.883 40.8851 194.365 40.3961 194.714 39.8165C195.063 39.2368 195.271 38.5829 195.32 37.9078C195.32 36.7125 194.393 36.2584 193.309 36.8978L174.777 47.6187C174.204 47.9763 173.723 48.4639 173.374 49.0418C173.025 49.6197 172.817 50.2718 172.766 50.9453Z" fill="#37474F"/>
<path d="M130.846 83.6176C131.504 84.046 132.051 84.6232 132.444 85.3026C132.837 85.982 133.064 86.7444 133.107 87.528C133.107 88.9735 132.097 89.5572 130.846 88.8345C130.191 88.4046 129.646 87.8268 129.254 87.1475C128.863 86.4683 128.637 85.7068 128.594 84.9242C128.594 83.4879 129.604 82.9041 130.846 83.6176Z" fill="#37474F"/>
<path d="M130.846 101.019C131.504 101.448 132.051 102.025 132.444 102.704C132.837 103.384 133.064 104.146 133.107 104.93C133.107 106.366 132.097 106.95 130.846 106.236C130.191 105.806 129.646 105.229 129.254 104.549C128.863 103.87 128.637 103.109 128.594 102.326C128.594 100.88 129.604 100.297 130.846 101.019Z" fill="#37474F"/>
<path d="M130.142 83.9698C130.799 84.3981 131.347 84.9754 131.74 85.6548C132.132 86.3342 132.36 87.0965 132.403 87.8801C132.403 89.3164 131.393 89.9002 130.142 89.1867C129.484 88.7583 128.937 88.1811 128.544 87.5017C128.151 86.8223 127.924 86.0599 127.881 85.2763C127.89 83.8308 128.9 83.2749 130.142 83.9698Z" fill="#455A64"/>
<path d="M130.142 101.362C130.801 101.792 131.349 102.37 131.742 103.051C132.135 103.733 132.361 104.497 132.403 105.282C132.403 106.718 131.393 107.302 130.142 106.579C129.483 106.153 128.934 105.576 128.541 104.896C128.148 104.216 127.922 103.453 127.881 102.669C127.89 101.233 128.9 100.649 130.142 101.362Z" fill="#455A64"/>
<path d="M233.756 40.5486C233.756 39.0104 232.681 38.3896 231.347 39.1587L222.461 44.2829L157.125 82.0146C156.423 82.4706 155.839 83.086 155.42 83.8107C155.002 84.5353 154.76 85.3487 154.716 86.1844V224.046C154.716 225.584 155.791 226.205 157.125 225.436L222.488 187.695L231.347 182.58C232.049 182.124 232.633 181.509 233.051 180.784C233.47 180.059 233.711 179.246 233.756 178.41V40.5486Z" fill="white"/>
<path d="M234.683 40.5487C234.741 40.084 234.661 39.6124 234.453 39.193C234.244 38.7735 233.917 38.4248 233.511 38.1904C233.106 37.956 232.64 37.8464 232.173 37.8753C231.706 37.9041 231.257 38.0701 230.883 38.3526L222.405 43.2544L156.662 81.2456C155.815 81.7799 155.111 82.512 154.611 83.3789C154.111 84.2457 153.828 85.2213 153.789 86.2215V224.046C153.752 224.509 153.841 224.973 154.046 225.389C154.252 225.805 154.567 226.158 154.957 226.409C155.288 226.602 155.666 226.701 156.05 226.696C156.593 226.679 157.123 226.523 157.588 226.242L223.378 188.251L231.838 183.368C232.679 182.828 233.379 182.095 233.879 181.229C234.379 180.363 234.664 179.39 234.71 178.392L234.683 40.5487ZM222.423 186.667L221.664 187.111L156.699 224.621C156.589 224.705 156.463 224.763 156.328 224.792C156.194 224.821 156.054 224.819 155.92 224.787C155.8 224.713 155.679 224.454 155.679 224.028V86.1844C155.727 85.5116 155.927 84.8585 156.264 84.2743C156.602 83.69 157.067 83.1899 157.625 82.8116L222.525 45.2837L231.792 39.9186C231.901 39.8347 232.027 39.7762 232.162 39.7473C232.297 39.7185 232.436 39.72 232.57 39.7518C232.69 39.8259 232.811 40.0854 232.811 40.5116V178.41C232.763 179.083 232.563 179.736 232.226 180.321C231.889 180.905 231.423 181.405 230.865 181.783L222.405 186.667H222.423Z" fill="#0C395B"/>
<path d="M194.236 72.5817C202.575 67.7818 209.293 71.6551 209.293 81.2826C209.293 90.9101 202.548 102.595 194.236 107.358C185.924 112.12 179.178 108.284 179.178 98.6659C179.178 89.0476 185.924 77.3908 194.236 72.5817Z" fill="#0C395B"/>
<path d="M194.236 80.1429C196.932 78.5862 199.119 79.8464 199.119 82.9228C199.027 84.6175 198.538 86.2668 197.689 87.7367C196.841 89.2066 195.658 90.4558 194.236 91.3828C191.539 92.9395 189.353 91.6793 189.353 88.6029C189.444 86.9082 189.934 85.2589 190.783 83.789C191.631 82.3191 192.814 81.0699 194.236 80.1429Z" fill="#0C395B"/>
<path d="M203.752 96.7478C203.752 91.6329 200.166 89.5573 195.728 92.1147L192.948 93.7178C188.519 96.2752 184.923 102.502 184.923 107.617V108.998C187.49 109.841 190.715 109.387 194.189 107.358C198.039 104.983 201.294 101.76 203.706 97.9339L203.752 96.7478Z" fill="#0C395B"/>
<path opacity="0.7" d="M194.236 80.1429C196.932 78.5862 199.119 79.8464 199.119 82.9228C199.027 84.6175 198.538 86.2668 197.689 87.7367C196.841 89.2066 195.658 90.4558 194.236 91.3828C191.539 92.9395 189.353 91.6793 189.353 88.6029C189.444 86.9082 189.934 85.2589 190.783 83.789C191.631 82.3191 192.814 81.0699 194.236 80.1429Z" fill="white"/>
<path opacity="0.7" d="M203.752 96.7478C203.752 91.6329 200.166 89.5573 195.728 92.1147L192.948 93.7178C188.519 96.2752 184.923 102.502 184.923 107.617V108.998C187.49 109.841 190.715 109.387 194.189 107.358C198.039 104.983 201.294 101.76 203.706 97.9339L203.752 96.7478Z" fill="white"/>
<path d="M165.103 128.531L184.479 117.346C185.405 116.837 186.082 117.245 186.082 118.273V118.912C186.052 119.469 185.892 120.011 185.613 120.494C185.335 120.978 184.946 121.388 184.479 121.692L165.103 132.877C164.223 133.386 163.5 132.969 163.5 131.95V131.311C163.53 130.754 163.691 130.212 163.969 129.729C164.248 129.246 164.636 128.836 165.103 128.531Z" fill="#0C395B"/>
<path opacity="0.1" d="M165.103 128.531L184.479 117.346C185.405 116.837 186.082 117.245 186.082 118.273V118.912C186.052 119.469 185.892 120.011 185.613 120.494C185.335 120.978 184.946 121.388 184.479 121.692L165.103 132.877C164.223 133.386 163.5 132.969 163.5 131.95V131.311C163.53 130.754 163.691 130.212 163.969 129.729C164.248 129.246 164.636 128.836 165.103 128.531Z" fill="black"/>
<path d="M164.306 142.032L222.924 108.192C223.359 107.932 223.721 108.136 223.721 108.655V115.493C223.704 115.771 223.624 116.041 223.486 116.282C223.347 116.523 223.155 116.729 222.924 116.883L164.306 150.723C163.861 150.983 163.5 150.77 163.5 150.26V143.421C163.516 143.143 163.597 142.872 163.737 142.63C163.877 142.389 164.072 142.184 164.306 142.032Z" fill="#0C395B"/>
<path opacity="0.2" d="M164.306 142.032L222.924 108.192C223.359 107.932 223.721 108.136 223.721 108.655V115.493C223.704 115.771 223.624 116.041 223.486 116.282C223.347 116.523 223.155 116.729 222.924 116.883L164.306 150.723C163.861 150.983 163.5 150.77 163.5 150.26V143.421C163.516 143.143 163.597 142.872 163.737 142.63C163.877 142.389 164.072 142.184 164.306 142.032Z" fill="white"/>
<path d="M165.103 158.951L184.479 147.767C185.405 147.258 186.082 147.675 186.082 148.694V149.333C186.053 149.89 185.893 150.433 185.614 150.916C185.336 151.399 184.946 151.809 184.479 152.113L165.103 163.297C164.223 163.816 163.5 163.399 163.5 162.371V161.731C163.532 161.175 163.693 160.634 163.971 160.151C164.25 159.668 164.637 159.257 165.103 158.951Z" fill="#0C395B"/>
<path opacity="0.1" d="M165.103 158.951L184.479 147.767C185.405 147.258 186.082 147.675 186.082 148.694V149.333C186.053 149.89 185.893 150.433 185.614 150.916C185.336 151.399 184.946 151.809 184.479 152.113L165.103 163.297C164.223 163.816 163.5 163.399 163.5 162.371V161.731C163.532 161.175 163.693 160.634 163.971 160.151C164.25 159.668 164.637 159.257 165.103 158.951Z" fill="black"/>
<path d="M164.306 172.452L222.924 138.612C223.359 138.353 223.721 138.566 223.721 139.076V145.914C223.704 146.192 223.624 146.461 223.486 146.703C223.347 146.944 223.155 147.15 222.924 147.304L164.306 181.144C163.861 181.403 163.5 181.199 163.5 180.681V173.842C163.516 173.563 163.597 173.292 163.737 173.051C163.877 172.81 164.072 172.604 164.306 172.452Z" fill="#0C395B"/>
<path opacity="0.2" d="M164.306 172.452L222.924 138.612C223.359 138.353 223.721 138.566 223.721 139.076V145.914C223.704 146.192 223.624 146.461 223.486 146.703C223.347 146.944 223.155 147.15 222.924 147.304L164.306 181.144C163.861 181.403 163.5 181.199 163.5 180.681V173.842C163.516 173.563 163.597 173.292 163.737 173.051C163.877 172.81 164.072 172.604 164.306 172.452Z" fill="white"/>
<path d="M187.685 176.335L210.85 162.982C211.777 162.463 212.462 162.88 212.462 163.909V171.062C212.432 171.62 212.27 172.163 211.99 172.646C211.71 173.129 211.319 173.539 210.85 173.842L187.685 187.204C186.758 187.714 186.082 187.297 186.082 186.277V179.115C186.114 178.558 186.276 178.017 186.554 177.535C186.832 177.052 187.219 176.641 187.685 176.335Z" fill="#0C395B"/>
<path opacity="0.1" d="M187.685 176.335L210.85 162.982C211.777 162.463 212.462 162.88 212.462 163.909V171.062C212.432 171.62 212.27 172.163 211.99 172.646C211.71 173.129 211.319 173.539 210.85 173.842L187.685 187.204C186.758 187.714 186.082 187.297 186.082 186.277V179.115C186.114 178.558 186.276 178.017 186.554 177.535C186.832 177.052 187.219 176.641 187.685 176.335Z" fill="black"/>
<path d="M242.54 146.146C242.54 146.146 231.161 130.449 230.494 128.54C229.966 127.132 230.494 125.037 230.661 124.064C230.828 123.091 230.976 120.923 231.143 120.358C231.421 119.302 230.059 119.515 229.29 120.478C228.521 121.442 228.261 123.369 227.863 123.685C227.464 124 224.434 119.58 222.85 117.541C221.265 115.503 220.274 114.261 219.301 115.021C218.606 115.567 219.125 116.753 220.274 118.495C220.945 119.434 221.563 120.408 222.127 121.414C222.303 121.794 221.358 121.822 220.848 122.61C220.45 123.221 220.848 124.213 220.292 124.685C219.95 124.946 219.716 125.323 219.634 125.745C219.552 126.167 219.628 126.604 219.847 126.974C220.879 128.594 222.209 130.003 223.767 131.125C225.472 132.302 226.158 132.719 227.168 134.322C228.178 135.925 237.24 152.298 237.852 153.281C238.463 154.263 239.64 156.264 241.428 156.32C243.217 156.375 257.857 143.774 258.608 143.143C261.017 141.133 261.786 140.845 262.194 142.652C262.335 143.295 262.44 143.944 262.509 144.598C262.796 146.896 264.362 155.106 264.362 155.106C264.362 155.106 271.775 158.692 277.863 156.959C283.951 155.226 286.008 152.641 286.008 152.641L282.959 147.675C283.784 145.627 287.592 137.324 288.825 131.514L269.736 128.429C269.347 128.345 268.717 128.188 267.883 127.975C266.836 127.697 264.177 126.779 262.166 128.54C255.606 134.257 242.559 146.146 242.559 146.146" fill="#FFA8A7"/>
<path d="M280.383 242.458L276.964 247.212C278.518 247.937 280.216 248.301 281.931 248.277C284.998 248.388 285.841 247.351 285.952 247.147C286.471 246.035 285.665 244.033 285.443 242.31L280.383 242.458Z" fill="#37474F"/>
<path d="M277.159 244.932C277.159 244.932 273.007 244.663 270.144 244.311C267.281 243.959 265.011 245.349 265.678 246.526C266.345 247.703 267.929 248.685 270.394 249.51C272.498 250.223 275.027 250.733 277.214 251.363C279.401 251.993 280.921 252.818 282.19 252.373C283.608 251.882 284.219 251.316 284.099 250.279C283.79 248.802 283.406 247.343 282.95 245.905L277.159 244.932Z" fill="#37474F"/>
<path d="M285.952 237.686C285.952 237.686 285.433 242.004 285.396 242.931C285.359 243.857 281.18 244.154 280.383 242.458L280.253 237.176L285.952 237.686Z" fill="#F28F8F"/>
<path d="M281.745 240.336L283.237 246.896C283.237 246.896 283.376 247.693 279.966 248.203C276.556 248.713 271.2 246.415 270.283 245.951C269.366 245.488 269.264 244.552 272.618 244.737C275.973 244.923 277.159 244.932 277.159 244.932L276.065 242.032L281.745 240.336Z" fill="#FFA8A7"/>
<path d="M288.769 131.459L291.132 130.801C291.132 130.801 296.071 146.433 296.617 147.943C297.164 149.454 297.785 151.047 296.719 152.91C295.45 155.125 288.769 164.029 288.769 164.029L284.525 159.878L289.344 151.057L285.081 142.439L288.769 131.459Z" fill="#F28F8F"/>
<path d="M264.501 111.157C263.947 110.117 263.666 108.953 263.684 107.775C263.702 106.597 264.018 105.443 264.603 104.42C266.957 100.056 272.201 97.9339 278.447 98.7401C281.338 99.12 284.748 101.52 286.61 105.106C288.667 109.081 288.862 117.087 289.39 120.117L264.501 111.157Z" fill="#37474F"/>
<path d="M264.334 112.871C264.334 112.871 262.852 115.697 263.111 115.957C263.495 116.181 263.915 116.338 264.353 116.42L264.334 112.871Z" fill="#FFA8A7"/>
<path d="M268.838 103.938C267.225 104.985 264.445 106.913 264.325 113.26C264.195 119.746 265.122 121.887 266.086 122.637C266.734 123.147 270.543 122.888 272.173 122.508C273.804 122.128 278.502 119.802 280.198 116.272C282.19 112.12 281.782 106.079 278.826 104.226C277.322 103.336 275.616 102.843 273.869 102.793C272.122 102.742 270.391 103.137 268.838 103.938Z" fill="#FFA8A7"/>
<path d="M285.952 152.604C288.806 157.052 291.512 160.944 292.105 165.966C293.328 176.52 289.325 188.585 288.463 196.396C290.084 198.618 291.018 201.266 291.15 204.013C291.15 207.247 285.952 237.686 285.952 237.686C285.952 237.686 282.172 238.835 280.253 237.176L276.686 181.181L278.539 174.361L285.952 152.604Z" fill="#8ED2CF"/>
<path opacity="0.2" d="M285.952 152.604C288.806 157.052 291.512 160.944 292.105 165.966C293.328 176.52 289.325 188.585 288.463 196.396C290.084 198.618 291.018 201.266 291.15 204.013C291.15 207.247 285.952 237.686 285.952 237.686C285.952 237.686 282.172 238.835 280.253 237.176L276.686 181.181L278.539 174.361L285.952 152.604Z" fill="black"/>
<path d="M276.686 181.181L278.539 174.361C282.088 173.427 285.51 172.067 288.732 170.312C288.732 170.312 286.805 173.824 281.263 175.751L278.4 184.508L278.159 204.569L276.686 181.181Z" fill="#8ED2CF"/>
<path opacity="0.3" d="M276.686 181.181L278.539 174.361C282.088 173.427 285.51 172.067 288.732 170.312C288.732 170.312 286.805 173.824 281.263 175.751L278.4 184.508L278.159 204.569L276.686 181.181Z" fill="black"/>
<path d="M285.952 152.604C287.481 155.106 291.132 159.369 290.354 163.473C289.427 168.44 286.74 171.933 278.567 174.361L270.895 202.16C270.895 202.16 274.888 205.866 276.111 209.452C277.335 213.038 281.745 240.355 281.745 240.355C281.745 240.355 280.374 242.588 276.065 242.05C276.065 242.05 261.045 207.766 259.988 205.532C258.706 203.271 258.257 200.632 258.719 198.073C259.191 194.478 264.279 155.125 264.279 155.125L285.952 152.604Z" fill="#8ED2CF"/>
<path opacity="0.2" d="M285.952 152.604C287.481 155.106 291.132 159.369 290.354 163.473C289.427 168.44 286.74 171.933 278.567 174.361L270.895 202.16C270.895 202.16 274.888 205.866 276.111 209.452C277.335 213.038 281.745 240.355 281.745 240.355C281.745 240.355 280.374 242.588 276.065 242.05C276.065 242.05 261.045 207.766 259.988 205.532C258.706 203.271 258.257 200.632 258.719 198.073C259.191 194.478 264.279 155.125 264.279 155.125L285.952 152.604Z" fill="black"/>
<path d="M288.769 131.459L269.681 128.373C269.292 128.29 268.662 128.132 267.828 127.919C267.828 127.919 267.012 139.891 262.11 142.634C262.231 143.208 262.333 143.848 262.425 144.58C262.713 146.878 264.279 155.088 264.279 155.088C264.279 155.088 271.692 158.674 277.779 156.941C283.867 155.208 285.924 152.623 285.924 152.623L282.876 147.656C283.728 145.59 287.564 137.287 288.769 131.459Z" fill="#8ED2CF"/>
<path opacity="0.7" d="M288.769 131.459L269.681 128.373C269.292 128.29 268.662 128.132 267.828 127.919C267.828 127.919 267.012 139.891 262.11 142.634C262.231 143.208 262.333 143.848 262.425 144.58C262.713 146.878 264.279 155.088 264.279 155.088C264.279 155.088 271.692 158.674 277.779 156.941C283.867 155.208 285.924 152.623 285.924 152.623L282.876 147.656C283.728 145.59 287.564 137.287 288.769 131.459Z" fill="white"/>
<path d="M283.738 145.682C281.203 147.205 278.547 148.516 275.796 149.602C278.293 149.552 280.736 148.877 282.904 147.638L283.738 145.682Z" fill="#8ED2CF"/>
<path d="M268.365 104.253C268.365 104.253 267.438 110.276 269.625 113.816C269.625 113.816 270.441 111.416 272.47 111.87C274.499 112.324 274.61 115.002 273.183 116.503C272.821 116.924 272.347 117.235 271.816 117.399C271.285 117.562 270.718 117.573 270.181 117.43C270.181 117.43 269.857 121.785 269.681 125.436C269.505 129.087 268.541 137.046 272.646 140.262C276.751 143.477 287.055 144.608 291.882 137.862C294.57 134.109 291.002 127.474 289.344 120.034C287.815 113.195 286.953 103.058 279.697 101.427C272.442 99.7965 268.365 104.253 268.365 104.253Z" fill="#37474F"/>
<path d="M294.987 21.9607L293.458 22.8874C293.586 22.3434 293.657 21.7875 293.671 21.2287C293.671 18.1246 291.493 16.8736 288.806 18.4489C287.988 18.9422 287.259 19.5685 286.647 20.3021C286.647 16.1323 283.719 14.4366 280.105 16.5215C278.201 17.7634 276.616 19.4367 275.479 21.4057C274.343 23.3747 273.686 25.5839 273.563 27.854C273.563 28.0671 273.563 28.271 273.563 28.4748C272.632 28.3577 271.69 28.5744 270.904 29.0864C269.488 30.0091 268.31 31.2526 267.464 32.7161C266.619 34.1796 266.131 35.8218 266.039 37.5093C266.039 37.9016 266.079 38.2929 266.16 38.6769L265.344 39.1494C263.13 40.4282 261.332 42.9208 261.332 44.7091C261.332 46.4975 263.13 46.9237 265.344 45.6357L294.996 28.5397C297.211 27.261 299.008 24.7684 299.008 22.98C299.008 21.1916 297.201 20.6727 294.987 21.9607Z" fill="#EBEBEB"/>
</svg>
